<svg xmlns="http://www.w3.org/2000/svg" xmlns:xlink="http://www.w3.org/1999/xlink" width="500" zoomAndPan="magnify" viewBox="0 0 375 374.999991" height="500" preserveAspectRatio="xMidYMid meet" version="1.0"><defs><clipPath id="b0237b88fd"><path d="M 7.886719 7.886719 L 367.113281 7.886719 L 367.113281 367.113281 L 7.886719 367.113281 Z M 7.886719 7.886719 " clip-rule="nonzero"/></clipPath><clipPath id="91c05d3867"><path d="M 187.5 7.886719 C 88.304688 7.886719 7.886719 88.304688 7.886719 187.5 C 7.886719 286.695312 88.304688 367.113281 187.5 367.113281 C 286.695312 367.113281 367.113281 286.695312 367.113281 187.5 C 367.113281 88.304688 286.695312 7.886719 187.5 7.886719 Z M 187.5 7.886719 " clip-rule="nonzero"/></clipPath><clipPath id="5eb7a045e0"><path d="M 0.886719 0.886719 L 360.113281 0.886719 L 360.113281 360.113281 L 0.886719 360.113281 Z M 0.886719 0.886719 " clip-rule="nonzero"/></clipPath><clipPath id="be77fa300a"><path d="M 180.5 0.886719 C 81.304688 0.886719 0.886719 81.304688 0.886719 180.5 C 0.886719 279.695312 81.304688 360.113281 180.5 360.113281 C 279.695312 360.113281 360.113281 279.695312 360.113281 180.5 C 360.113281 81.304688 279.695312 0.886719 180.5 0.886719 Z M 180.5 0.886719 " clip-rule="nonzero"/></clipPath><clipPath id="4120ee627b"><rect x="0" width="361" y="0" height="361"/></clipPath><clipPath id="bbbb59f947"><path d="M 108.113281 62 L 294.863281 62 L 294.863281 343 L 108.113281 343 Z M 108.113281 62 " clip-rule="nonzero"/></clipPath><clipPath id="5c1a628c7d"><path d="M 126 37.5 L 158 37.5 L 158 69 L 126 69 Z M 126 37.5 " clip-rule="nonzero"/></clipPath></defs><g clip-path="url(#b0237b88fd)"><g clip-path="url(#91c05d3867)"><g transform="matrix(1, 0, 0, 1, 7, 7)"><g clip-path="url(#4120ee627b)"><g clip-path="url(#5eb7a045e0)"><g clip-path="url(#be77fa300a)"><path fill="#293133" d="M 0.886719 0.886719 L 360.113281 0.886719 L 360.113281 360.113281 L 0.886719 360.113281 Z M 0.886719 0.886719 " fill-opacity="1" fill-rule="nonzero"/></g></g></g></g></g></g><g clip-path="url(#bbbb59f947)"><path fill="#ffffff" d="M 169.257812 142.425781 C 168.539062 143.988281 167.867188 145.570312 167.085938 147.101562 C 165.851562 149.542969 164.382812 151.804688 161.960938 153.300781 C 160.085938 154.480469 157.945312 154.25 155.902344 154.472656 C 147.808594 155.339844 140.160156 153.117188 132.515625 150.953125 C 131.042969 150.542969 129.546875 150.242188 128.03125 150.042969 C 127.738281 149.953125 127.445312 149.953125 127.152344 150.042969 C 124.949219 151.386719 122.253906 150.90625 119.988281 152.058594 C 119.671875 152.21875 119.34375 152.316406 118.992188 152.359375 C 118.644531 152.402344 118.300781 152.386719 117.957031 152.308594 C 117.613281 152.230469 117.292969 152.097656 116.996094 151.910156 C 116.699219 151.722656 116.445312 151.492188 116.226562 151.214844 C 115.625 150.574219 115.050781 149.875 114.492188 149.179688 C 114.1875 148.808594 114 148.386719 113.925781 147.914062 C 113.851562 147.441406 113.902344 146.984375 114.082031 146.539062 C 114.539062 145.210938 115.101562 143.929688 115.773438 142.695312 C 116.324219 141.683594 118.765625 140.738281 119.871094 141.109375 C 121.914062 141.792969 124.027344 142.230469 126.070312 142.964844 C 127.351562 143.414062 128.839844 143.191406 130.234375 143.226562 C 133.585938 143.316406 136.941406 143.496094 140.289062 143.4375 C 144.472656 143.363281 148.296875 141.683594 152.195312 140.398438 C 153.605469 139.9375 155.03125 139.511719 156.191406 138.476562 C 156.835938 137.941406 157.179688 137.253906 157.222656 136.417969 C 157.402344 134.765625 157.484375 133.082031 158.382812 131.539062 C 159.03125 130.253906 159.292969 128.894531 159.175781 127.460938 C 159.066406 124.210938 159.855469 121.085938 160.34375 117.929688 C 160.8125 115.417969 161.953125 113.265625 163.769531 111.46875 C 164.34375 110.785156 164.855469 110.058594 165.3125 109.289062 C 166.382812 107.667969 167.875 106.484375 169.308594 105.222656 C 169.578125 104.984375 170.128906 104.652344 169.769531 104.210938 C 169.519531 103.898438 169.070312 104.289062 168.71875 104.382812 C 168.367188 104.480469 167.949219 104.722656 167.546875 104.859375 C 167.363281 104.949219 167.167969 104.992188 166.960938 104.996094 C 166.753906 104.996094 166.558594 104.953125 166.371094 104.867188 C 166.183594 104.777344 166.027344 104.65625 165.894531 104.496094 C 165.765625 104.335938 165.675781 104.15625 165.625 103.953125 C 165.417969 103.445312 165.246094 102.925781 165.101562 102.390625 C 164.980469 101.886719 164.78125 101.488281 164.210938 101.484375 C 163.046875 101.484375 163.007812 100.65625 163.410156 100.015625 C 164.441406 98.351562 163.917969 97.300781 162.398438 96.367188 C 161.941406 95.980469 161.558594 95.53125 161.246094 95.019531 C 160.800781 94.429688 160.21875 94.035156 159.511719 93.828125 C 158.070312 93.40625 157.691406 92.6875 158.042969 91.222656 C 158.226562 90.296875 158.5625 89.429688 159.046875 88.621094 C 159.355469 88.148438 159.632812 87.589844 159.273438 87.074219 C 157.933594 85.152344 157.660156 82.96875 157.773438 80.667969 C 157.804688 80.421875 157.761719 80.191406 157.644531 79.976562 C 157.523438 79.757812 157.355469 79.597656 157.132812 79.488281 C 156.007812 78.683594 155.890625 77.121094 154.96875 76.109375 C 154.710938 75.832031 154.570312 75.46875 154.328125 75.160156 C 154.164062 74.96875 154.019531 74.761719 153.894531 74.539062 C 153.773438 74.320312 153.671875 74.085938 153.597656 73.847656 C 153.523438 73.605469 153.472656 73.359375 153.445312 73.105469 C 153.421875 72.851562 153.421875 72.601562 153.449219 72.351562 C 153.476562 72.097656 153.527344 71.851562 153.605469 71.609375 C 153.683594 71.367188 153.78125 71.136719 153.90625 70.917969 C 154.03125 70.699219 154.179688 70.492188 154.34375 70.300781 C 154.511719 70.109375 154.695312 69.9375 154.898438 69.785156 C 154.957031 69.730469 155.070312 69.695312 155.089844 69.632812 C 155.730469 67.4375 157.984375 67.519531 159.511719 66.585938 C 160.246094 66.246094 160.988281 66.230469 161.738281 66.53125 C 162.003906 66.636719 162.273438 66.65625 162.550781 66.59375 C 162.828125 66.53125 163.0625 66.394531 163.257812 66.1875 C 164.105469 65.359375 165.085938 64.742188 166.203125 64.34375 C 166.761719 64.132812 167.261719 63.828125 167.707031 63.433594 C 168.265625 62.894531 168.917969 62.53125 169.667969 62.339844 C 170.421875 62.148438 171.167969 62.15625 171.914062 62.363281 C 174.296875 62.84375 176.65625 63.496094 179.113281 63.59375 C 180.3125 63.636719 181.382812 64.042969 181.714844 65.464844 C 181.777344 65.738281 182.238281 65.925781 182.65625 66.007812 C 184.980469 66.4375 187.050781 69.363281 186.84375 71.773438 C 186.84375 71.917969 186.691406 72.066406 186.8125 72.226562 C 188.777344 74.902344 188.523438 77.992188 188.164062 80.976562 C 187.84375 83.785156 188.039062 86.5625 188.746094 89.300781 C 188.871094 89.832031 189.078125 90.324219 189.367188 90.785156 C 189.65625 91.246094 190.011719 91.644531 190.4375 91.988281 C 190.859375 92.328125 191.328125 92.589844 191.839844 92.773438 C 192.351562 92.957031 192.878906 93.054688 193.421875 93.0625 C 194.925781 93.132812 196.398438 93.484375 197.9375 93.335938 C 200.863281 93.054688 203.0625 94.910156 205.378906 96.207031 C 206.160156 96.722656 207.015625 97.050781 207.941406 97.191406 C 209.714844 97.351562 211.253906 98.253906 212.769531 99.035156 C 216.203125 100.808594 219.785156 102.390625 222.160156 105.730469 C 223.402344 107.472656 225.222656 108.617188 227.035156 109.75 C 229.199219 111.078125 231.273438 112.53125 233.265625 114.105469 C 233.398438 114.207031 233.609375 114.285156 233.65625 114.421875 C 234.726562 117.796875 237.894531 118.859375 240.496094 120.402344 C 245.230469 123.21875 250.3125 125.460938 254.675781 128.875 C 258.648438 131.980469 262.488281 135.28125 266.390625 138.480469 C 267.785156 139.671875 269.28125 140.71875 270.871094 141.625 C 272.628906 142.585938 273.269531 142.433594 274.671875 141.089844 C 275.539062 140.34375 276.320312 139.519531 277.019531 138.617188 C 277.234375 138.308594 277.527344 138.160156 277.898438 138.160156 C 280.199219 138.089844 281.992188 136.933594 283.664062 135.511719 C 284.46875 134.824219 285.257812 134.511719 286.128906 135.351562 C 286.632812 135.835938 287.082031 135.121094 287.558594 135.351562 C 289.242188 136.085938 291.167969 136.496094 291.945312 138.496094 C 292.003906 138.683594 292.117188 138.828125 292.285156 138.933594 C 292.453125 139.035156 292.632812 139.074219 292.828125 139.046875 C 293.296875 139.046875 293.761719 139.046875 294.230469 139.078125 C 294.453125 139.058594 294.652344 139.117188 294.828125 139.257812 C 295 139.398438 295.105469 139.578125 295.132812 139.800781 C 295.160156 140.003906 295.109375 140.183594 294.984375 140.34375 C 294.859375 140.507812 294.695312 140.597656 294.492188 140.621094 C 293.390625 140.898438 292.347656 141.421875 291.167969 141.382812 C 290.914062 141.367188 290.660156 141.367188 290.40625 141.382812 C 289.703125 141.453125 288.871094 141.664062 288.832031 142.375 C 288.800781 142.945312 289.714844 142.832031 290.207031 142.984375 C 290.984375 143.1875 291.769531 143.351562 292.566406 143.472656 C 292.988281 143.554688 293.511719 143.644531 293.480469 144.15625 C 293.480469 144.535156 292.957031 144.648438 292.605469 144.746094 C 291.472656 144.941406 290.335938 145 289.191406 144.914062 C 287.808594 144.867188 286.59375 145.292969 285.546875 146.191406 C 281.703125 149.574219 277.367188 150.066406 272.578125 148.683594 C 270.078125 147.984375 267.660156 147.078125 265.320312 145.960938 C 260.835938 143.785156 255.996094 142.5625 251.5 140.453125 C 249.917969 139.816406 248.425781 139.019531 247.015625 138.058594 C 244.601562 136.207031 241.507812 135.5625 239.15625 133.664062 C 235.71875 130.894531 231.925781 128.605469 228.53125 125.78125 C 227.75 125.101562 226.839844 124.78125 225.804688 124.820312 C 224.695312 124.820312 223.484375 123.925781 222.519531 123.105469 C 221.117188 121.914062 219.378906 121.464844 217.746094 120.78125 C 217.175781 120.542969 216.933594 120.78125 216.84375 121.421875 C 216.585938 122.621094 216.4375 123.835938 216.394531 125.066406 C 216.460938 127.371094 215.664062 129.546875 215.511719 131.859375 C 215.109375 138.085938 214.601562 144.304688 214.921875 150.546875 C 215.089844 152.605469 214.828125 154.609375 214.140625 156.554688 C 213.851562 157.367188 213.757812 158.203125 213.859375 159.058594 C 214.328125 164.972656 214.96875 170.882812 214.800781 176.808594 C 214.703125 180.117188 214.347656 183.449219 213.917969 186.761719 C 213.441406 190.460938 213.109375 194.1875 212.976562 197.917969 C 212.726562 204.730469 211.054688 211.289062 209.773438 217.9375 C 209.101562 221.570312 208.351562 225.167969 207.449219 228.742188 C 206.960938 230.828125 206.171875 232.789062 205.085938 234.632812 C 203.195312 237.695312 202.695312 241.039062 202.394531 244.472656 C 202.09375 247.90625 201.792969 251.242188 201.753906 254.628906 C 201.753906 256.148438 202.003906 257.703125 202.066406 259.246094 C 202.304688 264.5 201.777344 269.675781 200.488281 274.773438 C 199.117188 280.0625 197.925781 285.402344 196.453125 290.667969 C 195.523438 294.011719 194.363281 297.296875 193.113281 300.539062 C 191.488281 304.75 190.878906 309.15625 190.554688 313.597656 C 190.425781 315.273438 190.625 316.996094 190.15625 318.636719 C 189.074219 322.738281 188.273438 326.894531 187.746094 331.105469 C 187.472656 332.996094 187.234375 334.878906 186.363281 336.621094 C 185.746094 337.867188 184.949219 338.984375 183.96875 339.96875 C 182.992188 340.957031 181.878906 341.761719 180.636719 342.386719 C 178.269531 343.628906 174.515625 342.550781 173.335938 340.328125 C 173.023438 339.714844 172.878906 339.066406 172.910156 338.375 C 172.921875 334.90625 173.777344 331.660156 175.46875 328.632812 C 176.976562 325.929688 177.859375 323.035156 178.121094 319.949219 C 178.121094 319.554688 178.027344 319.195312 178.027344 318.824219 C 178.027344 318.449219 177.871094 317.972656 178.132812 317.582031 C 179.632812 315.410156 180.425781 313.003906 180.511719 310.367188 C 180.578125 309.421875 180.835938 308.53125 181.277344 307.691406 C 183.609375 302.714844 184.410156 297.445312 184.699219 292 C 185.109375 284.316406 185.492188 276.628906 186.660156 269.046875 C 187.054688 266.441406 187.621094 263.808594 187.441406 261.21875 C 187.25 258.472656 187.164062 255.71875 186.972656 252.96875 C 186.480469 246.402344 186.367188 239.828125 186.625 233.246094 C 186.699219 232.902344 186.664062 232.574219 186.53125 232.25 C 185.523438 230.847656 185.890625 229.371094 185.890625 227.808594 C 185.890625 225.765625 185.972656 223.472656 184.257812 221.761719 C 183.753906 221.117188 183.398438 220.398438 183.1875 219.609375 C 182.878906 218.851562 182.507812 218.730469 181.90625 219.429688 C 180.160156 221.550781 178.902344 223.933594 178.132812 226.570312 C 177.75 227.703125 177.195312 228.742188 176.46875 229.691406 C 175.984375 230.382812 175.226562 230.132812 174.585938 229.992188 C 173.222656 229.691406 171.871094 229.351562 170.527344 228.953125 C 169.886719 228.78125 169.707031 228.953125 169.457031 229.59375 C 167.238281 235.09375 165.402344 240.769531 162.15625 245.796875 C 161.1875 247.296875 159.988281 248.621094 159.113281 250.183594 C 158.558594 251.132812 158.152344 252.140625 157.894531 253.207031 C 155.96875 261.414062 153.066406 269.261719 149.199219 276.75 C 145.628906 283.898438 142.617188 291.273438 140.160156 298.878906 C 139.359375 301.332031 140.019531 303.667969 139.976562 306.050781 C 139.988281 308.347656 139.789062 310.621094 139.375 312.878906 C 139.269531 313.628906 138.914062 314.230469 138.3125 314.683594 C 137.738281 315.203125 137.292969 315.8125 136.972656 316.515625 C 136.734375 316.882812 136.503906 317.277344 136.011719 316.742188 C 135.003906 315.632812 134.46875 315.664062 133.480469 316.84375 C 133.292969 317.066406 133.097656 317.28125 132.886719 317.484375 C 132.785156 317.601562 132.664062 317.691406 132.527344 317.753906 C 132.386719 317.820312 132.238281 317.851562 132.085938 317.851562 C 131.929688 317.851562 131.785156 317.820312 131.644531 317.753906 C 131.503906 317.691406 131.386719 317.601562 131.285156 317.484375 C 130.214844 315.644531 128.503906 316.394531 127.230469 316.640625 C 125.308594 316.996094 123.265625 317.554688 122.695312 319.949219 C 122.644531 320.167969 122.390625 320.480469 122.214844 320.496094 C 121.726562 320.507812 121.269531 320.644531 120.851562 320.902344 C 120.433594 321.160156 120.105469 321.503906 119.871094 321.933594 C 119.550781 322.433594 119.085938 322 118.789062 321.5625 C 117.9375 320.335938 116.808594 320.441406 115.902344 321.710938 C 115.425781 322.351562 114.730469 322.664062 113.980469 321.960938 C 113.421875 321.441406 112.863281 320.9375 112.328125 320.398438 C 112.101562 320.128906 111.820312 319.949219 111.480469 319.855469 C 111.144531 319.761719 110.808594 319.769531 110.476562 319.886719 C 109.71875 320.160156 109.382812 319.746094 109.074219 319.1875 C 108.839844 318.769531 108.691406 318.328125 108.621094 317.855469 C 108.554688 317.382812 108.574219 316.914062 108.679688 316.445312 C 108.789062 315.980469 108.976562 315.550781 109.242188 315.15625 C 109.511719 314.761719 109.839844 314.425781 110.234375 314.152344 C 112.359375 312.496094 114.785156 311.363281 117.183594 310.171875 C 118.5 309.53125 119.910156 309.011719 120.882812 307.808594 C 121.121094 307.511719 121.441406 307.292969 121.523438 306.871094 C 121.871094 304.347656 123.535156 302.886719 125.667969 301.835938 C 126.039062 301.605469 126.441406 301.507812 126.878906 301.542969 C 128.160156 301.902344 128.574219 301.109375 128.945312 300.21875 C 130.882812 295.851562 132.1875 291.308594 132.867188 286.582031 C 132.867188 286.492188 132.945312 286.394531 132.917969 286.332031 C 131.636719 283.457031 133.238281 280.867188 133.847656 278.242188 C 134.863281 273.867188 136.171875 269.558594 137.441406 265.25 C 137.972656 263.429688 139.128906 261.875 139.675781 260.007812 C 140.601562 256.835938 141.773438 253.757812 143.191406 250.773438 C 144.933594 247.097656 146.664062 243.421875 148.46875 239.777344 C 150.011719 236.65625 150.625 233.269531 151.40625 229.925781 C 152.09375 226.992188 152.746094 224.046875 153.46875 221.128906 C 153.570312 220.863281 153.574219 220.601562 153.484375 220.335938 C 153.390625 220.070312 153.226562 219.867188 152.988281 219.71875 C 151.953125 218.910156 150.941406 218.066406 149.96875 217.1875 C 149.664062 216.953125 149.40625 216.671875 149.199219 216.347656 C 148.996094 216.023438 148.851562 215.671875 148.765625 215.296875 C 148.683594 214.921875 148.667969 214.542969 148.71875 214.160156 C 148.765625 213.78125 148.878906 213.417969 149.058594 213.078125 C 149.886719 211.007812 151.066406 209.160156 152.59375 207.535156 C 154.515625 205.480469 155.917969 202.929688 158.261719 201.222656 C 158.902344 200.773438 158.824219 199.941406 158.972656 199.222656 C 159.59375 196.183594 160.519531 193.238281 161.75 190.390625 C 162.269531 189.207031 162.347656 187.828125 162.78125 186.605469 C 163.878906 183.5 164.789062 180.3125 166.472656 177.433594 C 166.671875 177.101562 166.914062 176.671875 166.652344 176.359375 C 165.640625 175.121094 166.28125 173.914062 166.902344 172.953125 C 167.339844 172.261719 167.597656 171.515625 167.683594 170.703125 C 167.769531 169.890625 167.667969 169.105469 167.382812 168.339844 C 165.605469 162.664062 166.511719 157.132812 168.054688 151.585938 C 168.796875 148.902344 169.808594 146.25 169.53125 143.375 C 169.53125 143.101562 169.496094 142.824219 169.476562 142.550781 Z M 169.257812 142.425781 " fill-opacity="1" fill-rule="nonzero"/></g><g clip-path="url(#5c1a628c7d)"><path fill="#ffffff" d="M 140.859375 68.824219 C 133.707031 68.824219 125.144531 61.589844 126.085938 52.175781 C 126.960938 43.394531 135.050781 37.660156 141.671875 37.949219 C 150.601562 38.332031 157.632812 45.890625 157.179688 53.582031 C 156.640625 62.8125 148.796875 68.871094 140.859375 68.824219 Z M 140.859375 68.824219 " fill-opacity="1" fill-rule="nonzero"/></g></svg>