<svg xmlns="http://www.w3.org/2000/svg" xmlns:xlink="http://www.w3.org/1999/xlink" width="500" zoomAndPan="magnify" viewBox="0 0 375 374.999991" height="500" preserveAspectRatio="xMidYMid meet" version="1.0"><defs><clipPath id="a0cdc45f02"><path d="M 7.886719 7.886719 L 367.113281 7.886719 L 367.113281 367.113281 L 7.886719 367.113281 Z M 7.886719 7.886719 " clip-rule="nonzero"/></clipPath><clipPath id="abff284159"><path d="M 187.5 7.886719 C 88.304688 7.886719 7.886719 88.304688 7.886719 187.5 C 7.886719 286.695312 88.304688 367.113281 187.5 367.113281 C 286.695312 367.113281 367.113281 286.695312 367.113281 187.5 C 367.113281 88.304688 286.695312 7.886719 187.5 7.886719 Z M 187.5 7.886719 " clip-rule="nonzero"/></clipPath><clipPath id="fb0c746498"><path d="M 0.886719 0.886719 L 360.113281 0.886719 L 360.113281 360.113281 L 0.886719 360.113281 Z M 0.886719 0.886719 " clip-rule="nonzero"/></clipPath><clipPath id="2889bea0d7"><path d="M 180.5 0.886719 C 81.304688 0.886719 0.886719 81.304688 0.886719 180.5 C 0.886719 279.695312 81.304688 360.113281 180.5 360.113281 C 279.695312 360.113281 360.113281 279.695312 360.113281 180.5 C 360.113281 81.304688 279.695312 0.886719 180.5 0.886719 Z M 180.5 0.886719 " clip-rule="nonzero"/></clipPath><clipPath id="cc95c31691"><rect x="0" width="361" y="0" height="361"/></clipPath><clipPath id="8a84e69583"><path d="M 85 14 L 228 14 L 228 153 L 85 153 Z M 85 14 " clip-rule="nonzero"/></clipPath><clipPath id="9192a996fd"><path d="M 76.261719 79.945312 L 204.339844 14.128906 L 249.933594 102.847656 L 121.855469 168.667969 Z M 76.261719 79.945312 " clip-rule="nonzero"/></clipPath><clipPath id="dcd53aa3fb"><path d="M 76.261719 79.945312 L 204.339844 14.128906 L 249.933594 102.847656 L 121.855469 168.667969 Z M 76.261719 79.945312 " clip-rule="nonzero"/></clipPath></defs><g clip-path="url(#a0cdc45f02)"><g clip-path="url(#abff284159)"><g transform="matrix(1, 0, 0, 1, 7, 7)"><g clip-path="url(#cc95c31691)"><g clip-path="url(#fb0c746498)"><g clip-path="url(#2889bea0d7)"><path fill="#293133" d="M 0.886719 0.886719 L 360.113281 0.886719 L 360.113281 360.113281 L 0.886719 360.113281 Z M 0.886719 0.886719 " fill-opacity="1" fill-rule="nonzero"/></g></g></g></g></g></g><path fill="#f8fbfd" d="M 250.507812 291.371094 C 242.699219 291.25 236.308594 297.523438 236.191406 305.371094 C 236.070312 313.261719 242.265625 319.730469 250.035156 319.847656 C 257.84375 319.964844 264.234375 313.695312 264.351562 305.84375 C 264.472656 297.957031 258.277344 291.488281 250.507812 291.371094 Z M 153.910156 247.824219 L 155.6875 244.707031 C 155.765625 244.628906 155.726562 244.511719 155.648438 244.433594 C 155.410156 244.234375 155.410156 243.960938 155.609375 243.605469 C 156.398438 242.222656 157.105469 241.121094 157.699219 240.25 C 158.449219 239.1875 158.960938 238.320312 159.316406 237.6875 C 160.894531 234.847656 162.628906 231.96875 164.996094 229.5625 C 165.667969 228.890625 166.179688 228.300781 166.535156 227.789062 C 166.574219 227.75 166.613281 227.707031 166.613281 227.667969 L 166.691406 226.683594 C 166.691406 226.40625 166.847656 226.132812 167.125 226.011719 C 167.675781 225.695312 168.152344 225.382812 168.507812 225.066406 C 169.136719 224.554688 169.292969 223.882812 168.980469 223.054688 C 168.859375 222.738281 168.941406 222.382812 169.175781 222.1875 L 169.925781 221.4375 C 170.125 221.238281 170.242188 220.964844 170.242188 220.6875 C 170.320312 220.097656 170.359375 219.78125 170.753906 219.308594 C 171.1875 218.835938 171.425781 218.558594 171.425781 218.519531 C 171.503906 218.398438 171.621094 218.242188 171.660156 218.085938 C 171.699219 217.964844 171.859375 217.375 172.09375 216.308594 C 172.371094 215.007812 173.238281 213.746094 174.105469 212.800781 C 174.539062 212.367188 174.738281 212.011719 175.054688 211.457031 C 175.09375 211.378906 175.171875 211.261719 175.25 211.183594 C 176.316406 210 176.59375 209.484375 177.261719 208.144531 C 177.421875 207.828125 177.617188 207.515625 177.894531 207.277344 C 179.589844 205.621094 181.484375 204.042969 184.007812 203.765625 C 184.242188 203.726562 184.441406 203.53125 184.480469 203.292969 C 184.675781 201.597656 185.78125 201.558594 187.003906 200.808594 C 187.042969 200.769531 187.082031 200.691406 187.125 200.609375 C 187.519531 198.164062 188.386719 196.628906 189.570312 193.90625 C 190.359375 192.089844 191.382812 191.855469 193.117188 191.261719 C 193.472656 191.144531 193.789062 190.789062 193.945312 190.355469 C 194.5 189.171875 195.289062 187.238281 196.117188 185.820312 C 196.589844 184.992188 196.90625 184.359375 197.0625 183.886719 C 198.324219 180.0625 199.351562 176.078125 200.101562 171.976562 C 200.179688 171.460938 200.21875 171.027344 199.746094 170.714844 C 198.640625 169.964844 196.828125 169.726562 195.445312 169.570312 C 194.378906 169.410156 192.761719 169.292969 190.59375 169.097656 C 190.476562 169.097656 190.398438 169.015625 190.359375 168.898438 L 190.277344 168.1875 C 190.238281 168.070312 190.160156 167.992188 190.082031 167.953125 C 188.1875 167.558594 186.609375 167.164062 185.269531 166.769531 C 183.691406 166.296875 182.074219 166.136719 180.695312 166.453125 C 179.828125 166.652344 178.761719 168.269531 177.65625 169.6875 C 176.078125 171.699219 174.660156 173.078125 172.609375 175.089844 C 169.53125 178.050781 166.890625 181.363281 164.71875 185.03125 C 164.523438 185.386719 163.890625 186.6875 162.785156 188.9375 C 162.667969 189.171875 162.234375 189.726562 161.484375 190.632812 C 161.25 190.910156 160.855469 191.65625 160.261719 192.917969 C 159.75 194.023438 159.355469 195.839844 158.605469 196.902344 C 157.933594 197.851562 157.144531 198.640625 156.277344 199.230469 C 156.042969 199.386719 155.371094 199.664062 154.304688 199.980469 C 153.28125 200.296875 152.335938 200.53125 151.425781 200.691406 C 150.285156 200.925781 149.21875 201.519531 148.507812 201.875 C 148.035156 202.109375 147.640625 202.148438 147.324219 201.992188 C 146.535156 201.597656 147.484375 200.609375 147.679688 200.136719 C 147.679688 200.136719 147.679688 200.097656 147.679688 200.097656 C 147.679688 200.019531 147.640625 199.980469 147.601562 199.980469 L 146.8125 199.742188 C 146.734375 199.742188 146.695312 199.742188 146.613281 199.742188 L 144.996094 199.980469 C 144.761719 199.980469 144.523438 199.863281 144.445312 199.664062 C 143.933594 198.558594 145.195312 198.207031 145.945312 197.851562 C 145.945312 197.851562 145.984375 197.851562 145.984375 197.851562 C 146.023438 197.8125 146.023438 197.769531 145.984375 197.730469 C 145.984375 197.730469 145.984375 197.730469 145.984375 197.691406 C 145.3125 197.179688 145.667969 196.3125 146.21875 195.839844 C 146.300781 195.761719 146.339844 195.640625 146.300781 195.5625 C 145.867188 194.695312 146.101562 193.945312 147.007812 193.3125 C 147.167969 193.195312 147.246094 193.039062 147.246094 192.839844 C 147.207031 192.089844 147.363281 191.5 147.957031 190.988281 C 148.941406 190.078125 149.730469 189.488281 150.242188 189.210938 C 150.835938 188.898438 151.507812 188.582031 152.292969 188.1875 C 153.359375 187.714844 153.992188 187.121094 155.09375 186.332031 C 155.488281 186.015625 155.726562 185.742188 155.882812 185.464844 C 156.515625 184.242188 157.144531 183.175781 157.816406 182.269531 C 158.84375 180.8125 159.90625 179.3125 160.734375 177.535156 C 161.089844 176.667969 162.351562 174.34375 164.445312 170.554688 C 166.652344 166.609375 168.941406 163.140625 171.304688 160.0625 C 172.292969 158.839844 173.199219 157.816406 174.066406 156.949219 C 175.449219 155.644531 176.550781 155.292969 178.5625 154.9375 C 182.273438 154.304688 185.386719 154.148438 189.570312 154.1875 C 189.765625 154.1875 190.003906 154.148438 190.277344 154.109375 C 190.398438 154.109375 190.515625 154.027344 190.59375 153.949219 C 190.949219 153.632812 191.265625 153.4375 191.582031 153.398438 C 193.238281 153.082031 194.734375 153.554688 196.589844 153.949219 C 196.785156 153.988281 197.023438 153.949219 197.21875 153.871094 C 197.929688 153.398438 198.71875 153.121094 199.546875 152.964844 C 200.769531 152.726562 203.253906 152.292969 204.910156 151.898438 C 206.410156 151.503906 207.832031 151.269531 209.132812 151.109375 C 210.117188 150.992188 210.90625 151.03125 211.855469 151.308594 C 212.644531 151.542969 213.511719 151.859375 214.417969 152.253906 C 214.773438 152.410156 215.167969 152.492188 215.5625 152.53125 C 217.21875 152.609375 218.757812 152.804688 220.492188 153.160156 C 221.753906 153.398438 223.449219 153.320312 224.398438 152.886719 C 226.054688 152.136719 228.421875 150.992188 229.917969 151.703125 C 229.917969 151.742188 229.957031 151.742188 229.996094 151.78125 L 230.667969 152.609375 C 230.667969 152.609375 230.707031 152.648438 230.707031 152.648438 C 230.746094 152.6875 230.828125 152.6875 230.867188 152.609375 C 230.867188 152.609375 230.867188 152.609375 230.90625 152.609375 C 231.574219 151.621094 232.089844 150.636719 232.324219 149.691406 C 232.484375 149.097656 232.5625 148.035156 232.5625 146.457031 C 232.523438 144.957031 232.523438 143.890625 232.523438 143.222656 C 232.601562 141.605469 232.996094 139.828125 233.707031 137.9375 C 234.257812 136.4375 235.441406 135.253906 236.742188 134.582031 C 239.1875 133.320312 241.753906 132.570312 244.394531 132.414062 C 245.65625 132.335938 246.878906 132.570312 248.101562 133.046875 C 250.429688 133.914062 252.519531 135.136719 254.414062 136.59375 C 256.03125 137.898438 257.84375 139.710938 258.199219 141.761719 C 258.4375 143.101562 258.316406 145.390625 257.214844 146.378906 C 257.136719 146.457031 257.09375 146.535156 257.09375 146.613281 C 257.175781 148.824219 256.859375 150.992188 256.070312 153.121094 C 255.992188 153.320312 255.636719 153.714844 254.964844 154.1875 C 254.375 154.660156 254.097656 155.332031 254.175781 156.199219 C 254.335938 157.777344 254.414062 158.644531 254.414062 158.878906 C 254.414062 160.144531 253.664062 160.183594 252.636719 160.300781 C 251.730469 160.417969 251.414062 160.8125 251.652344 161.679688 C 252.164062 163.335938 249.679688 162.507812 250.035156 164.207031 C 250.035156 164.285156 250.074219 164.324219 250.113281 164.363281 C 251.375 165.980469 252.125 167.480469 252.441406 168.820312 C 252.835938 170.714844 253.347656 173.160156 253.941406 176.117188 C 254.175781 177.300781 254.335938 178.761719 254.414062 180.496094 C 254.414062 180.769531 254.570312 181.324219 254.847656 182.152344 C 255.28125 183.375 256.226562 186.015625 257.726562 190 C 257.726562 190.039062 257.726562 190.121094 257.726562 190.199219 C 257.6875 190.277344 257.648438 190.355469 257.488281 190.433594 C 257.410156 190.515625 257.410156 190.59375 257.410156 190.710938 L 257.84375 191.855469 C 257.882812 191.894531 257.921875 191.933594 258.003906 191.933594 C 258.003906 191.933594 258.042969 191.933594 258.042969 191.933594 C 260.015625 191.144531 262.105469 190 263.289062 188.460938 C 263.957031 187.59375 264.511719 186.648438 264.984375 185.582031 C 265.179688 185.148438 265.21875 184.753906 265.101562 184.441406 C 264.984375 184.003906 264.945312 183.808594 264.90625 183.769531 C 264.746094 181.519531 264.628906 180.378906 264.628906 180.378906 C 264.628906 179.863281 264.707031 179.273438 265.101562 178.71875 C 265.890625 177.535156 266.128906 175.445312 265.929688 174.027344 C 265.851562 173.199219 266.089844 172.605469 266.917969 172.527344 C 266.996094 172.527344 267.074219 172.527344 267.152344 172.605469 C 267.585938 172.921875 267.863281 173.199219 267.941406 173.433594 C 268.296875 174.300781 268.496094 175.25 268.453125 176.3125 C 268.453125 176.394531 268.535156 176.433594 268.574219 176.433594 C 268.613281 176.433594 268.613281 176.433594 268.613281 176.433594 C 269.519531 176.195312 270.308594 175.878906 271.058594 175.484375 C 271.335938 175.367188 271.609375 175.328125 271.886719 175.367188 C 272.832031 175.605469 273.304688 176.15625 273.304688 177.023438 C 273.304688 177.101562 273.347656 177.183594 273.425781 177.183594 C 273.859375 177.300781 274.175781 177.417969 274.449219 177.617188 C 275.121094 178.089844 275.121094 178.484375 275.199219 179.195312 C 275.238281 179.273438 275.277344 179.351562 275.359375 179.351562 C 276.144531 179.667969 276.738281 179.984375 276.777344 181.046875 C 276.777344 181.207031 276.894531 181.363281 277.054688 181.441406 C 279.578125 182.546875 275.988281 186.371094 274.964844 187.398438 C 274.136719 188.265625 273.148438 188.9375 272.042969 189.449219 C 271.769531 189.566406 271.453125 189.921875 271.097656 190.472656 C 270.78125 190.949219 269.125 193.472656 266.128906 198.085938 C 265.101562 199.664062 263.839844 201.28125 262.339844 202.703125 C 260.410156 204.59375 258.554688 206.132812 256.820312 207.394531 C 255.832031 208.066406 254.570312 208.933594 253.464844 208.5 C 250.230469 207.277344 248.613281 205.109375 247.3125 202.109375 C 246.601562 200.414062 245.65625 198.085938 244.472656 195.128906 C 244.277344 194.65625 244 194.417969 243.644531 194.378906 C 242.894531 194.261719 242.421875 193.984375 242.027344 193.3125 C 241.949219 193.15625 241.949219 193.039062 241.949219 192.878906 C 242.105469 191.695312 241.753906 190.632812 240.921875 189.605469 C 240.449219 189.054688 239.898438 188.699219 239.1875 188.460938 C 239.109375 188.421875 239.03125 188.421875 238.953125 188.503906 C 238.558594 188.816406 238.242188 189.09375 238.082031 189.292969 C 234.101562 193.984375 229.839844 198.796875 225.265625 203.648438 C 224.121094 204.871094 223.449219 205.699219 223.175781 206.132812 C 222.226562 207.789062 221.675781 208.695312 221.558594 208.855469 C 220.453125 210.589844 218.914062 212.011719 217.21875 213.507812 C 216.46875 214.179688 216.667969 215.875 216.941406 216.78125 C 217.140625 217.414062 217.257812 218.085938 217.257812 218.875 C 217.257812 220.097656 217.335938 221.121094 218.558594 221.753906 C 218.636719 221.792969 219.308594 222.027344 220.609375 222.503906 C 221.003906 222.660156 221.320312 222.976562 221.519531 223.449219 C 222.265625 225.183594 222.976562 226.445312 224.199219 227.550781 C 227.945312 230.984375 229.957031 234.21875 233.230469 239.265625 C 233.273438 239.304688 233.273438 239.34375 233.273438 239.421875 C 233.273438 239.460938 233.273438 239.503906 233.230469 239.542969 C 233.152344 239.699219 233.074219 239.855469 233.191406 240.054688 C 234.808594 242.972656 236.230469 245.851562 237.492188 248.8125 C 238.398438 250.980469 239.1875 252.320312 240.371094 253.9375 C 242.582031 257.09375 240.84375 260.839844 239.070312 263.679688 C 237.375 266.285156 236.152344 268.414062 235.363281 269.992188 C 234.808594 271.136719 233.785156 273.421875 232.324219 276.855469 C 232.285156 276.933594 232.285156 277.011719 232.285156 277.132812 L 232.285156 277.761719 C 232.285156 277.800781 232.285156 277.878906 232.246094 277.921875 C 231.851562 278.75 231.457031 279.496094 231.023438 280.207031 C 227.828125 285.335938 224.4375 289.871094 220.570312 294.761719 C 219.902344 295.628906 219.230469 296.378906 218.519531 297.089844 C 218.402344 297.207031 218.324219 297.367188 218.242188 297.523438 C 217.847656 298.546875 217.335938 299.652344 216.785156 300.835938 C 216.074219 302.335938 215.917969 303.441406 215.835938 305.097656 C 215.835938 305.175781 215.878906 305.214844 215.957031 305.253906 C 216.585938 305.410156 216.941406 305.609375 217.019531 306.320312 C 217.0625 306.59375 217.21875 306.832031 217.414062 307.027344 C 218.441406 307.816406 219.191406 308.726562 219.742188 309.75 C 219.941406 310.105469 220.214844 310.421875 220.570312 310.65625 C 221.519531 311.289062 222.859375 312.234375 224.59375 313.457031 C 226.566406 314.839844 229.722656 315.195312 232.167969 316.652344 C 233.074219 317.164062 233.113281 318.46875 232.324219 319.136719 C 232.089844 319.296875 231.574219 319.414062 230.785156 319.492188 C 230.433594 319.53125 228.300781 319.570312 224.4375 319.730469 C 222.265625 319.769531 220.335938 319.769531 218.675781 319.652344 C 216.191406 319.53125 213.589844 318.625 211.339844 318.152344 C 210.117188 317.875 209.015625 317.71875 208.027344 317.640625 C 206.882812 317.558594 206.054688 317.480469 205.425781 317.324219 C 203.136719 316.8125 201.285156 316.335938 199.785156 315.902344 C 198.285156 315.429688 197.890625 314.050781 197.96875 312.589844 C 198.089844 310.304688 198.71875 308.410156 199.941406 306.515625 C 200.179688 306.160156 200.574219 305.492188 201.085938 304.542969 C 201.558594 303.714844 202.191406 303.320312 202.980469 303.320312 C 203.058594 303.320312 203.136719 303.28125 203.175781 303.203125 C 204.28125 301.78125 205.148438 300.125 206.015625 298.3125 C 208.027344 294.289062 209.449219 291.171875 210.316406 288.886719 C 211.027344 286.992188 211.617188 285.097656 212.011719 283.285156 C 212.40625 281.390625 212.800781 279.773438 213.15625 278.433594 C 214.140625 274.84375 215.640625 272.003906 217.890625 268.257812 C 219.347656 265.730469 220.492188 263.71875 221.242188 262.261719 C 221.636719 261.472656 221.910156 260.800781 222.070312 260.25 C 222.109375 259.972656 222.03125 259.695312 221.753906 259.421875 C 220.414062 258.121094 218.796875 256.777344 216.824219 255.398438 C 214.496094 253.742188 211.339844 252.359375 208.976562 250.625 C 208.894531 250.546875 208.777344 250.507812 208.660156 250.546875 C 206.882812 250.742188 205.070312 251.175781 203.214844 251.847656 C 203.019531 251.925781 202.859375 251.886719 202.742188 251.730469 C 202.269531 251.21875 201.757812 250.585938 201.242188 249.835938 C 200.296875 248.496094 198.484375 245.378906 196.550781 243.25 C 195.683594 242.304688 194.65625 241.710938 193.472656 241.472656 C 192.410156 241.238281 191.265625 241.828125 190.316406 242.421875 C 187.992188 243.960938 186.886719 244.707031 184.71875 245.851562 C 182.863281 246.878906 181.679688 247.546875 181.167969 247.824219 C 178.445312 249.402344 176.511719 252.125 174.421875 254.453125 C 174.027344 254.925781 173.59375 255.199219 173.160156 255.28125 C 173.042969 255.320312 172.882812 255.398438 172.765625 255.476562 C 167.914062 259.894531 164.796875 263.679688 160.816406 266.640625 C 158.722656 268.175781 156.042969 268.652344 153.4375 269.046875 C 152.136719 269.28125 151.507812 269.28125 150.363281 268.453125 C 149.535156 267.863281 148.429688 266.875 147.050781 265.535156 C 145.589844 264.113281 144.128906 262.65625 142.632812 261.15625 C 141.960938 260.484375 141.289062 259.933594 140.660156 259.5 C 139.316406 258.671875 138.015625 257.804688 136.675781 256.898438 C 135.136719 255.832031 133.441406 254.609375 132.691406 253.269531 C 132.101562 252.125 131.667969 251.414062 131.46875 251.136719 C 129.21875 248.21875 127.050781 245.617188 124.328125 243.644531 C 123.460938 243.011719 122.238281 242.578125 120.621094 242.382812 C 120.503906 242.382812 120.386719 242.382812 120.304688 242.421875 C 118.335938 243.089844 116.480469 243.132812 114.351562 243.011719 C 113.878906 243.011719 113.285156 243.132812 112.574219 243.367188 C 110.40625 244.117188 108.238281 244.828125 106.105469 245.457031 C 103.304688 246.324219 101.453125 246.839844 98.96875 246.40625 C 95.417969 245.8125 96.640625 242.183594 97.941406 240.054688 C 98.890625 238.554688 100.269531 237.015625 102.082031 235.519531 C 103.503906 234.375 104.6875 233.585938 105.671875 233.113281 C 107.210938 232.402344 109.339844 231.929688 110.683594 231.457031 C 112.339844 230.863281 113.835938 229.839844 116.046875 228.300781 C 117.507812 227.3125 119.476562 226.050781 121.488281 225.382812 C 122.238281 225.144531 122.949219 225.105469 123.621094 225.261719 C 125.59375 225.738281 126.578125 226.960938 127.484375 228.65625 C 128.117188 229.839844 128.433594 231.140625 128.351562 232.640625 C 128.351562 232.953125 128.472656 233.230469 128.746094 233.429688 C 130.246094 234.453125 131.980469 235.28125 133.796875 236.1875 C 133.953125 236.269531 134.113281 236.347656 134.230469 236.464844 C 134.507812 236.703125 134.78125 237.058594 135.175781 237.292969 C 136.558594 238.082031 138.136719 238.554688 139.910156 238.792969 C 140.34375 238.871094 141.210938 239.070312 142.472656 239.382812 C 146.929688 240.527344 150.757812 244.234375 153.636719 247.824219 C 153.675781 247.863281 153.714844 247.902344 153.753906 247.902344 C 153.832031 247.902344 153.871094 247.863281 153.910156 247.824219 Z M 153.910156 247.824219 " fill-opacity="1" fill-rule="evenodd"/><g clip-path="url(#8a84e69583)"><g clip-path="url(#9192a996fd)"><g clip-path="url(#dcd53aa3fb)"><path fill="#f8fbfd" d="M 187.242188 94.523438 C 187.332031 106.3125 187.324219 118.105469 186.9375 129.890625 C 185.304688 115.421875 184.238281 100.871094 183.242188 86.347656 C 186.230469 88.738281 190.152344 91.871094 193.6875 94.714844 C 192.402344 82.460938 191.113281 68.714844 190.128906 56.929688 L 189.585938 50.664062 L 194.136719 54.960938 C 196.398438 57.089844 200.238281 60.722656 203.445312 63.773438 C 203.488281 47.210938 203.742188 30.507812 204.597656 14.003906 C 206.214844 32.164062 207.109375 50.597656 207.792969 68.816406 C 207.792969 68.816406 207.972656 73.90625 207.972656 73.90625 C 204.402344 70.695312 199.683594 66.457031 195.472656 62.644531 L 195.90625 67.242188 C 196.980469 78.871094 198.105469 93.191406 198.957031 104.820312 C 195.558594 101.84375 191.097656 97.929688 187.242188 94.523438 Z M 137.332031 127.382812 C 138.921875 125.191406 140.503906 122.988281 142.085938 120.785156 L 144.078125 118.007812 L 140.699219 117.175781 C 132.808594 115.203125 123.566406 113.007812 115.304688 111.140625 C 117.960938 107.34375 121.132812 102.742188 123.34375 99.53125 C 123.34375 99.53125 120.792969 98.726562 120.792969 98.726562 C 109.195312 95.101562 97.480469 91.609375 85.675781 88.691406 C 95.910156 93.324219 106.390625 97.523438 116.882812 101.550781 C 113.828125 105.535156 110.042969 110.535156 107.386719 114.078125 C 115.105469 116.003906 124.644531 118.328125 132.410156 120.105469 L 136.324219 120.988281 C 134.914062 123.09375 133.511719 125.203125 132.125 127.324219 L 130.46875 129.859375 C 130.46875 129.859375 133.300781 130.582031 133.300781 130.582031 C 146.316406 133.847656 159.382812 136.921875 172.589844 139.335938 C 160.984375 134.925781 149.1875 131.058594 137.332031 127.382812 Z M 212.089844 111.78125 C 209.511719 110.398438 206.871094 109.054688 204.261719 107.78125 C 202.019531 114.445312 199.976562 121.15625 198.738281 128.105469 C 201.660156 123.519531 204.113281 118.730469 206.40625 113.835938 C 208.96875 115.449219 211.601562 117.019531 214.21875 118.503906 C 218.347656 110.210938 222.179688 101.753906 225.203125 92.988281 C 226.117188 90.324219 226.984375 87.640625 227.664062 84.867188 C 225.929688 87.136719 224.382812 89.496094 222.882812 91.875 C 218.871094 98.289062 215.335938 104.964844 212.089844 111.78125 Z M 142.34375 139.617188 C 133.152344 138.460938 123.902344 137.636719 114.628906 137.679688 C 111.816406 137.699219 108.996094 137.769531 106.152344 138.042969 C 108.867188 138.925781 111.605469 139.609375 114.347656 140.238281 C 121.726562 141.90625 129.195312 143.035156 136.703125 143.847656 C 136.25 146.738281 135.851562 149.671875 135.511719 152.558594 C 142.542969 152.472656 149.554688 152.183594 156.519531 151.054688 C 151.226562 149.8125 145.898438 149.082031 140.523438 148.535156 C 141.195312 145.582031 141.808594 142.578125 142.34375 139.617188 Z M 127.6875 75.617188 C 129.144531 78.074219 130.75 80.394531 132.398438 82.675781 C 136.839844 88.796875 141.703125 94.574219 146.8125 100.140625 C 144.5625 102.015625 142.328125 103.957031 140.171875 105.898438 C 145.507812 110.476562 150.964844 114.882812 156.945312 118.632812 C 153.789062 114.203125 150.265625 110.140625 146.589844 106.179688 C 149.042969 104.40625 151.484375 102.554688 153.839844 100.683594 C 147.699219 93.75 141.292969 87.027344 134.296875 80.941406 C 132.171875 79.097656 130.003906 77.289062 127.6875 75.617188 Z M 161.53125 82.578125 C 162.339844 82.679688 163.144531 82.78125 163.957031 82.878906 C 167.566406 83.328125 171.648438 83.78125 175.289062 84.191406 C 169.375 71.558594 163.242188 58.921875 156.253906 46.835938 C 159.667969 57.609375 163.722656 68.214844 167.976562 78.6875 C 162.832031 77.898438 157.582031 77.164062 152.476562 76.464844 C 157.761719 85.933594 163.457031 95.601562 169.21875 104.855469 C 167.175781 105.128906 165.109375 105.414062 163.109375 105.714844 C 163.109375 105.714844 164.355469 107.65625 164.355469 107.65625 C 167.867188 113.089844 171.457031 118.480469 175.277344 123.707031 C 173.050781 118.519531 170.625 113.414062 168.125 108.351562 C 170.523438 108.265625 172.988281 108.144531 175.335938 108.066406 C 170.972656 99.59375 166.285156 90.945312 161.53125 82.578125 Z M 161.53125 82.578125 " fill-opacity="1" fill-rule="nonzero"/></g></g></g></svg>