<svg xmlns="http://www.w3.org/2000/svg" xmlns:xlink="http://www.w3.org/1999/xlink" width="500" zoomAndPan="magnify" viewBox="0 0 375 374.999991" height="500" preserveAspectRatio="xMidYMid meet" version="1.0"><defs><clipPath id="443e9a9407"><path d="M 7.886719 7.886719 L 367.113281 7.886719 L 367.113281 367.113281 L 7.886719 367.113281 Z M 7.886719 7.886719 " clip-rule="nonzero"/></clipPath><clipPath id="ed256731e7"><path d="M 187.5 7.886719 C 88.304688 7.886719 7.886719 88.304688 7.886719 187.5 C 7.886719 286.695312 88.304688 367.113281 187.5 367.113281 C 286.695312 367.113281 367.113281 286.695312 367.113281 187.5 C 367.113281 88.304688 286.695312 7.886719 187.5 7.886719 Z M 187.5 7.886719 " clip-rule="nonzero"/></clipPath><clipPath id="8b2bc07ea0"><path d="M 0.886719 0.886719 L 360.113281 0.886719 L 360.113281 360.113281 L 0.886719 360.113281 Z M 0.886719 0.886719 " clip-rule="nonzero"/></clipPath><clipPath id="def3dca17a"><path d="M 180.5 0.886719 C 81.304688 0.886719 0.886719 81.304688 0.886719 180.5 C 0.886719 279.695312 81.304688 360.113281 180.5 360.113281 C 279.695312 360.113281 360.113281 279.695312 360.113281 180.5 C 360.113281 81.304688 279.695312 0.886719 180.5 0.886719 Z M 180.5 0.886719 " clip-rule="nonzero"/></clipPath><clipPath id="3533594fa7"><rect x="0" width="361" y="0" height="361"/></clipPath></defs><g clip-path="url(#443e9a9407)"><g clip-path="url(#ed256731e7)"><g transform="matrix(1, 0, 0, 1, 7, 7)"><g clip-path="url(#3533594fa7)"><g clip-path="url(#8b2bc07ea0)"><g clip-path="url(#def3dca17a)"><path fill="#293133" d="M 0.886719 0.886719 L 360.113281 0.886719 L 360.113281 360.113281 L 0.886719 360.113281 Z M 0.886719 0.886719 " fill-opacity="1" fill-rule="nonzero"/></g></g></g></g></g></g><path fill="#ffffff" d="M 288.003906 151.582031 C 286.925781 151.609375 260.980469 152.503906 242.601562 182.273438 C 235.484375 177.789062 226.441406 173.941406 215.683594 173.308594 C 197.597656 172.332031 179.429688 180.613281 161.609375 197.988281 C 162.558594 180.636719 160.15625 158.175781 158.046875 142.671875 C 158.046875 142.617188 158.128906 142.617188 158.152344 142.566406 C 160.34375 141.089844 172.257812 142.722656 183.703125 146.097656 C 184.070312 146.203125 184.359375 146.257812 184.730469 146.257812 C 185.601562 146.257812 186.496094 145.914062 187.183594 145.308594 L 200.523438 132.941406 C 207.273438 124.980469 206.507812 116.59375 204.53125 111.640625 C 210.042969 105.074219 208.589844 98.375 206.851562 95.527344 C 206.640625 95.238281 206.429688 94.949219 206.140625 94.710938 L 188.789062 79.839844 C 179.273438 70.296875 168.59375 72.695312 164.402344 75.199219 C 149.609375 83.347656 120.238281 110.453125 119.027344 111.613281 C 118.761719 111.875 118.527344 112.164062 118.367188 112.480469 C 71.542969 194.296875 78.449219 235.214844 78.765625 236.902344 C 78.949219 237.773438 79.425781 238.5625 80.164062 239.117188 C 129.625 276.242188 175 286.707031 210.359375 286.707031 C 255.417969 286.707031 284.367188 269.753906 284.816406 269.464844 C 286.503906 268.4375 287.082031 266.195312 286.054688 264.480469 C 285.027344 262.765625 282.8125 262.238281 281.097656 263.269531 C 280.226562 263.796875 193.695312 314.445312 85.699219 234.238281 C 85.015625 226.75 83.90625 187.359375 124.328125 116.542969 C 127.992188 113.21875 154.777344 88.753906 167.988281 81.476562 C 168.753906 81.027344 175.976562 77.230469 183.886719 85.113281 L 200.894531 99.695312 C 201.367188 100.90625 202.183594 104.308594 198.046875 108.160156 L 182.859375 120.261719 L 176.792969 114.433594 L 180.25 108.898438 C 181.328125 107.210938 180.800781 104.996094 179.113281 103.914062 C 177.402344 102.886719 175.1875 103.386719 174.105469 105.074219 L 169.121094 113.089844 C 168.199219 114.539062 168.4375 116.4375 169.648438 117.625 L 180.117188 127.667969 C 181.460938 128.933594 183.464844 129.015625 184.863281 127.878906 L 198.546875 116.964844 C 199.074219 119.8125 198.808594 123.820312 195.304688 127.960938 L 183.78125 138.609375 C 174.15625 135.894531 163.425781 133.8125 157.019531 135.5 C 156.441406 131.835938 155.992188 128.855469 155.675781 126.984375 C 155.304688 125.03125 153.40625 123.714844 151.507812 124.03125 C 149.53125 124.375 148.214844 126.21875 148.53125 128.195312 C 154.066406 160.863281 158.152344 209.71875 149.980469 216.101562 C 148.425781 217.3125 148.132812 219.582031 149.375 221.136719 C 150.085938 222.058594 151.167969 222.53125 152.222656 222.53125 C 152.984375 222.53125 153.804688 222.296875 154.460938 221.796875 C 157.285156 219.554688 159.128906 215.019531 160.261719 209.140625 C 160.527344 208.980469 160.816406 209.007812 161.027344 208.769531 C 179.195312 189.023438 197.753906 179.664062 215.183594 180.507812 C 239.121094 181.851562 254.414062 202.285156 254.574219 202.496094 C 255.785156 204.101562 258.027344 204.472656 259.636719 203.285156 C 261.242188 202.101562 261.585938 199.859375 260.398438 198.25 C 260.058594 197.777344 255.867188 192.210938 248.5625 186.4375 C 264.722656 159.863281 287.242188 158.832031 288.164062 158.808594 C 290.167969 158.753906 291.777344 157.09375 291.722656 155.117188 C 291.671875 153.113281 290.324219 151.53125 288.003906 151.582031 Z M 288.003906 151.582031 " fill-opacity="1" fill-rule="nonzero"/><path fill="#ffffff" d="M 179.667969 225.671875 C 178.902344 224.246094 177.929688 222.375 175.582031 222.375 C 173.605469 222.375 171.96875 224.035156 171.96875 225.988281 C 171.96875 226.960938 172.363281 227.886719 172.972656 228.519531 L 173.289062 229.070312 C 183.175781 247.660156 204.265625 257.152344 235.0625 257.152344 C 246.398438 257.152344 258.949219 255.886719 272.765625 253.328125 C 274.769531 252.960938 276.0625 251.0625 275.691406 249.109375 C 275.324219 247.160156 273.53125 245.867188 271.472656 246.234375 C 237.859375 252.40625 194.722656 253.910156 179.667969 225.671875 Z M 179.667969 225.671875 " fill-opacity="1" fill-rule="nonzero"/></svg>