<svg xmlns="http://www.w3.org/2000/svg" xmlns:xlink="http://www.w3.org/1999/xlink" width="500" zoomAndPan="magnify" viewBox="0 0 375 374.999991" height="500" preserveAspectRatio="xMidYMid meet" version="1.0"><defs><clipPath id="8891825b45"><path d="M 7.886719 7.886719 L 367.113281 7.886719 L 367.113281 367.113281 L 7.886719 367.113281 Z M 7.886719 7.886719 " clip-rule="nonzero"/></clipPath><clipPath id="1feeb4ffc8"><path d="M 187.5 7.886719 C 88.304688 7.886719 7.886719 88.304688 7.886719 187.5 C 7.886719 286.695312 88.304688 367.113281 187.5 367.113281 C 286.695312 367.113281 367.113281 286.695312 367.113281 187.5 C 367.113281 88.304688 286.695312 7.886719 187.5 7.886719 Z M 187.5 7.886719 " clip-rule="nonzero"/></clipPath><clipPath id="2dd63a7422"><path d="M 0.886719 0.886719 L 360.113281 0.886719 L 360.113281 360.113281 L 0.886719 360.113281 Z M 0.886719 0.886719 " clip-rule="nonzero"/></clipPath><clipPath id="cbb1000c38"><path d="M 180.5 0.886719 C 81.304688 0.886719 0.886719 81.304688 0.886719 180.5 C 0.886719 279.695312 81.304688 360.113281 180.5 360.113281 C 279.695312 360.113281 360.113281 279.695312 360.113281 180.5 C 360.113281 81.304688 279.695312 0.886719 180.5 0.886719 Z M 180.5 0.886719 " clip-rule="nonzero"/></clipPath><clipPath id="bb3e8bdc26"><rect x="0" width="361" y="0" height="361"/></clipPath><clipPath id="8bcbe439fa"><path d="M 69.5 64.351562 L 315.5 64.351562 L 315.5 310.351562 L 69.5 310.351562 Z M 69.5 64.351562 " clip-rule="nonzero"/></clipPath></defs><g clip-path="url(#8891825b45)"><g clip-path="url(#1feeb4ffc8)"><g transform="matrix(1, 0, 0, 1, 7, 7)"><g clip-path="url(#bb3e8bdc26)"><g clip-path="url(#2dd63a7422)"><g clip-path="url(#cbb1000c38)"><path fill="#293133" d="M 0.886719 0.886719 L 360.113281 0.886719 L 360.113281 360.113281 L 0.886719 360.113281 Z M 0.886719 0.886719 " fill-opacity="1" fill-rule="nonzero"/></g></g></g></g></g></g><g clip-path="url(#8bcbe439fa)"><path fill="#f8fbfd" d="M 275.730469 135.664062 C 279.394531 135.664062 282.921875 134.214844 285.535156 131.597656 L 314.34375 102.789062 C 315.722656 101.414062 316.15625 99.425781 315.480469 97.601562 C 314.804688 95.78125 313.183594 94.554688 311.242188 94.40625 L 287.5625 92.585938 L 285.742188 68.902344 C 285.59375 66.964844 284.367188 65.339844 282.542969 64.664062 C 280.71875 63.992188 278.730469 64.425781 277.359375 65.800781 L 248.546875 94.609375 C 245.679688 97.476562 244.214844 101.441406 244.523438 105.484375 L 244.78125 108.820312 C 225.976562 95.460938 203.910156 88.425781 180.613281 88.425781 C 150.933594 88.425781 123.03125 99.984375 102.046875 120.96875 C 81.0625 141.953125 69.503906 169.855469 69.503906 199.53125 C 69.503906 229.210938 81.0625 257.113281 102.046875 278.101562 C 123.03125 299.089844 150.933594 310.644531 180.613281 310.644531 C 210.289062 310.644531 238.191406 299.089844 259.179688 278.101562 C 280.164062 257.117188 291.71875 229.210938 291.71875 199.53125 C 291.71875 176.234375 284.683594 154.167969 271.328125 135.367188 L 274.660156 135.621094 C 275.019531 135.648438 275.375 135.664062 275.730469 135.664062 Z M 281.980469 128.042969 C 280.152344 129.875 277.628906 130.808594 275.046875 130.609375 L 254.65625 129.042969 L 268.078125 115.621094 L 292.523438 117.5 Z M 297.207031 112.820312 L 272.757812 110.941406 L 286.179688 97.519531 L 310.628906 99.398438 Z M 280.746094 69.519531 L 282.625 93.964844 L 269.203125 107.386719 L 267.328125 82.941406 Z M 252.101562 98.164062 L 262.644531 87.621094 L 264.523438 112.070312 L 251.101562 125.488281 L 249.535156 105.101562 C 249.335938 102.523438 250.273438 99.992188 252.101562 98.164062 Z M 286.691406 199.53125 C 286.691406 258.03125 239.105469 305.621094 180.613281 305.621094 C 122.117188 305.621094 74.53125 258.03125 74.53125 199.53125 C 74.53125 141.039062 122.117188 93.453125 180.613281 93.453125 C 204.285156 93.453125 226.621094 101.058594 245.289062 115.449219 L 246.421875 130.171875 L 238.984375 137.605469 C 223.730469 123.21875 203.183594 114.386719 180.613281 114.386719 C 133.660156 114.386719 95.464844 152.582031 95.464844 199.535156 C 95.464844 246.484375 133.660156 284.679688 180.613281 284.679688 C 227.5625 284.679688 265.757812 246.484375 265.757812 199.535156 C 265.757812 176.960938 256.925781 156.414062 242.539062 141.160156 L 249.972656 133.726562 L 264.699219 134.855469 C 279.089844 153.523438 286.691406 175.859375 286.691406 199.53125 Z M 178.835938 201.3125 C 179.324219 201.800781 179.96875 202.046875 180.613281 202.046875 C 181.253906 202.046875 181.898438 201.800781 182.390625 201.3125 L 202.234375 181.464844 C 206.335938 186.359375 208.808594 192.664062 208.808594 199.535156 C 208.808594 215.082031 196.160156 227.730469 180.613281 227.730469 C 165.066406 227.730469 152.414062 215.082031 152.414062 199.535156 C 152.414062 183.988281 165.066406 171.335938 180.613281 171.335938 C 187.484375 171.335938 193.785156 173.8125 198.683594 177.910156 L 178.835938 197.757812 C 177.855469 198.738281 177.855469 200.328125 178.835938 201.3125 Z M 202.242188 174.347656 C 196.425781 169.347656 188.867188 166.3125 180.613281 166.3125 C 162.292969 166.3125 147.390625 181.214844 147.390625 199.535156 C 147.390625 217.851562 162.292969 232.757812 180.613281 232.757812 C 198.929688 232.757812 213.835938 217.851562 213.835938 199.535156 C 213.835938 191.277344 210.800781 183.71875 205.796875 177.902344 L 220.625 163.074219 C 229.40625 172.703125 234.769531 185.503906 234.769531 199.535156 C 234.769531 229.398438 210.476562 253.691406 180.613281 253.691406 C 150.75 253.691406 126.453125 229.398438 126.453125 199.535156 C 126.453125 169.671875 150.75 145.375 180.613281 145.375 C 194.640625 145.375 207.441406 150.738281 217.070312 159.519531 Z M 220.625 155.964844 C 210.082031 146.273438 196.027344 140.347656 180.613281 140.347656 C 147.976562 140.347656 121.425781 166.898438 121.425781 199.535156 C 121.425781 232.167969 147.976562 258.71875 180.613281 258.71875 C 213.246094 258.71875 239.796875 232.167969 239.796875 199.535156 C 239.796875 184.117188 233.871094 170.0625 224.179688 159.519531 L 238.984375 144.714844 C 252.460938 159.058594 260.734375 178.347656 260.734375 199.535156 C 260.734375 243.710938 224.789062 279.65625 180.613281 279.65625 C 136.433594 279.65625 100.492188 243.710938 100.492188 199.535156 C 100.492188 155.355469 136.433594 119.414062 180.613281 119.414062 C 201.800781 119.414062 221.089844 127.683594 235.433594 141.160156 Z M 220.625 155.964844 " fill-opacity="1" fill-rule="nonzero"/></g></svg>