<svg xmlns="http://www.w3.org/2000/svg" xmlns:xlink="http://www.w3.org/1999/xlink" width="500" zoomAndPan="magnify" viewBox="0 0 375 374.999991" height="500" preserveAspectRatio="xMidYMid meet" version="1.0"><defs><clipPath id="a85a843924"><path d="M 7.886719 7.886719 L 367.113281 7.886719 L 367.113281 367.113281 L 7.886719 367.113281 Z M 7.886719 7.886719 " clip-rule="nonzero"/></clipPath><clipPath id="2c67e7e977"><path d="M 187.5 7.886719 C 88.304688 7.886719 7.886719 88.304688 7.886719 187.5 C 7.886719 286.695312 88.304688 367.113281 187.5 367.113281 C 286.695312 367.113281 367.113281 286.695312 367.113281 187.5 C 367.113281 88.304688 286.695312 7.886719 187.5 7.886719 Z M 187.5 7.886719 " clip-rule="nonzero"/></clipPath><clipPath id="049d7577fc"><path d="M 0.886719 0.886719 L 360.113281 0.886719 L 360.113281 360.113281 L 0.886719 360.113281 Z M 0.886719 0.886719 " clip-rule="nonzero"/></clipPath><clipPath id="7743d7402b"><path d="M 180.5 0.886719 C 81.304688 0.886719 0.886719 81.304688 0.886719 180.5 C 0.886719 279.695312 81.304688 360.113281 180.5 360.113281 C 279.695312 360.113281 360.113281 279.695312 360.113281 180.5 C 360.113281 81.304688 279.695312 0.886719 180.5 0.886719 Z M 180.5 0.886719 " clip-rule="nonzero"/></clipPath><clipPath id="263116c804"><rect x="0" width="361" y="0" height="361"/></clipPath><clipPath id="b823a73a9a"><path d="M 67.425781 159 L 165 159 L 165 273 L 67.425781 273 Z M 67.425781 159 " clip-rule="nonzero"/></clipPath><clipPath id="82930b7fe1"><path d="M 197 159 L 295.425781 159 L 295.425781 273 L 197 273 Z M 197 159 " clip-rule="nonzero"/></clipPath><clipPath id="3d04661fa0"><path d="M 81 263 L 282 263 L 282 317.855469 L 81 317.855469 Z M 81 263 " clip-rule="nonzero"/></clipPath><clipPath id="d7c20c36a8"><path d="M 132 48.605469 L 230 48.605469 L 230 162 L 132 162 Z M 132 48.605469 " clip-rule="nonzero"/></clipPath></defs><g clip-path="url(#a85a843924)"><g clip-path="url(#2c67e7e977)"><g transform="matrix(1, 0, 0, 1, 7, 7)"><g clip-path="url(#263116c804)"><g clip-path="url(#049d7577fc)"><g clip-path="url(#7743d7402b)"><path fill="#293133" d="M 0.886719 0.886719 L 360.113281 0.886719 L 360.113281 360.113281 L 0.886719 360.113281 Z M 0.886719 0.886719 " fill-opacity="1" fill-rule="nonzero"/></g></g></g></g></g></g><g clip-path="url(#b823a73a9a)"><path fill="#f8fbfd" d="M 98.8125 272.175781 C 95.601562 272.175781 92.445312 271.335938 89.605469 269.597656 L 72.609375 259.179688 C 69.449219 257.234375 67.503906 253.8125 67.503906 250.128906 C 67.503906 249.65625 67.558594 249.128906 67.609375 248.605469 C 68.082031 245.394531 69.925781 242.605469 72.714844 240.976562 C 75.503906 239.34375 78.816406 239.027344 81.867188 240.183594 L 95.128906 245.183594 L 125.542969 182.675781 C 131.171875 171.097656 142.117188 162.996094 154.796875 160.941406 L 161.214844 159.890625 C 162.953125 159.628906 164.582031 160.785156 164.847656 162.523438 C 165.109375 164.257812 163.953125 165.890625 162.214844 166.152344 L 155.796875 167.203125 C 145.113281 168.941406 135.960938 175.730469 131.222656 185.464844 L 99.546875 250.550781 C 98.8125 252.023438 97.128906 252.707031 95.601562 252.128906 L 79.660156 246.132812 C 78.449219 245.65625 77.082031 245.761719 75.976562 246.445312 C 74.871094 247.132812 74.082031 248.234375 73.921875 249.550781 C 73.871094 249.761719 73.871094 249.972656 73.871094 250.183594 C 73.871094 251.65625 74.660156 253.078125 75.921875 253.867188 L 92.917969 264.285156 C 97.179688 266.914062 102.757812 266.390625 106.492188 263.023438 L 144.0625 229.136719 C 145.378906 227.976562 147.378906 228.082031 148.535156 229.347656 C 149.691406 230.660156 149.585938 232.660156 148.324219 233.820312 L 110.753906 267.703125 C 107.386719 270.652344 103.074219 272.175781 98.8125 272.175781 Z M 98.8125 272.175781 " fill-opacity="1" fill-rule="nonzero"/></g><path fill="#f8fbfd" d="M 142.0625 265.074219 C 141.851562 265.074219 141.695312 265.074219 141.484375 265.019531 C 139.75 264.707031 138.644531 263.023438 138.957031 261.335938 L 141.222656 249.234375 C 142.328125 243.289062 142.90625 237.292969 142.957031 231.398438 C 143.011719 225.242188 142.433594 219.136719 141.328125 213.140625 C 140.644531 209.667969 139.851562 206.246094 138.90625 202.773438 C 138.433594 201.089844 139.433594 199.355469 141.117188 198.878906 C 142.800781 198.40625 144.535156 199.40625 145.011719 201.089844 C 146.007812 204.722656 146.800781 208.300781 147.535156 211.929688 C 148.746094 218.296875 149.324219 224.820312 149.273438 231.398438 C 149.21875 237.710938 148.640625 244.078125 147.429688 250.394531 L 145.167969 262.496094 C 144.851562 264.019531 143.535156 265.074219 142.0625 265.074219 Z M 142.0625 265.074219 " fill-opacity="1" fill-rule="nonzero"/><path fill="#f8fbfd" d="M 181.421875 315.691406 C 180.527344 315.691406 179.632812 315.324219 179 314.585938 C 169.636719 303.433594 132.066406 281.699219 131.699219 281.492188 C 130.171875 280.597656 129.644531 278.703125 130.539062 277.175781 C 131.433594 275.648438 133.328125 275.125 134.855469 276.019531 C 136.433594 276.914062 173.792969 298.484375 183.839844 310.535156 C 184.945312 311.851562 184.789062 313.851562 183.472656 315.007812 C 182.84375 315.429688 182.15625 315.691406 181.421875 315.691406 Z M 181.421875 315.691406 " fill-opacity="1" fill-rule="nonzero"/><g clip-path="url(#82930b7fe1)"><path fill="#f8fbfd" d="M 264.03125 272.175781 C 259.714844 272.175781 255.453125 270.652344 252.140625 267.652344 L 214.570312 233.765625 C 213.253906 232.609375 213.148438 230.609375 214.359375 229.292969 C 215.515625 227.976562 217.515625 227.871094 218.832031 229.082031 L 256.402344 262.96875 C 260.136719 266.335938 265.714844 266.863281 269.976562 264.230469 L 286.972656 253.8125 C 288.234375 253.023438 289.023438 251.605469 289.023438 250.128906 C 289.023438 249.917969 289.023438 249.710938 288.972656 249.5 C 288.761719 248.183594 288.023438 247.078125 286.917969 246.394531 C 285.816406 245.710938 284.445312 245.605469 283.238281 246.078125 L 267.242188 252.078125 C 265.714844 252.65625 263.976562 251.972656 263.292969 250.5 L 231.617188 185.410156 C 226.882812 175.675781 217.675781 168.835938 207.046875 167.152344 L 200.625 166.101562 C 198.890625 165.835938 197.734375 164.207031 197.996094 162.46875 C 198.257812 160.734375 199.890625 159.574219 201.625 159.839844 L 208.046875 160.890625 C 220.726562 162.941406 231.671875 171.046875 237.300781 182.621094 L 267.714844 245.183594 L 280.972656 240.183594 C 283.972656 239.027344 287.339844 239.34375 290.128906 240.976562 C 292.917969 242.605469 294.757812 245.394531 295.234375 248.605469 C 295.285156 249.128906 295.339844 249.605469 295.339844 250.128906 C 295.339844 253.8125 293.390625 257.285156 290.289062 259.179688 L 273.238281 269.597656 C 270.398438 271.335938 267.242188 272.175781 264.03125 272.175781 Z M 264.03125 272.175781 " fill-opacity="1" fill-rule="nonzero"/></g><path fill="#f8fbfd" d="M 220.78125 265.074219 C 219.304688 265.074219 217.992188 264.019531 217.675781 262.496094 L 215.414062 250.394531 C 214.203125 244.078125 213.570312 237.710938 213.570312 231.398438 C 213.519531 224.875 214.097656 218.296875 215.308594 211.929688 C 215.992188 208.300781 216.832031 204.722656 217.832031 201.089844 C 218.304688 199.40625 220.042969 198.40625 221.726562 198.878906 C 223.410156 199.355469 224.410156 201.089844 223.9375 202.773438 C 222.988281 206.246094 222.199219 209.667969 221.515625 213.140625 C 220.359375 219.085938 219.832031 225.242188 219.886719 231.347656 C 219.9375 237.292969 220.515625 243.289062 221.621094 249.234375 L 223.882812 261.335938 C 224.199219 263.074219 223.09375 264.707031 221.359375 265.019531 C 221.199219 265.074219 220.988281 265.074219 220.78125 265.074219 Z M 220.78125 265.074219 " fill-opacity="1" fill-rule="nonzero"/><g clip-path="url(#3d04661fa0)"><path fill="#f8fbfd" d="M 145.535156 318.007812 C 133.222656 318.007812 120.4375 316.585938 106.808594 313.691406 C 99.285156 312.113281 92.445312 308.167969 87.605469 302.589844 C 76.132812 289.382812 82.078125 276.4375 88.550781 265.335938 C 89.445312 263.8125 91.339844 263.335938 92.867188 264.179688 C 94.390625 265.074219 94.867188 266.96875 94.023438 268.492188 C 86.972656 280.542969 84.445312 289.332031 92.390625 298.433594 C 96.339844 302.957031 101.96875 306.21875 108.175781 307.535156 C 126.121094 311.324219 142.535156 312.535156 158.375 311.167969 L 181.261719 309.378906 C 181.421875 309.378906 181.578125 309.378906 181.738281 309.378906 L 204.625 311.167969 C 220.464844 312.535156 236.878906 311.324219 254.875 307.535156 C 261.085938 306.21875 266.660156 303.011719 270.660156 298.433594 C 278.554688 289.332031 276.027344 280.597656 269.03125 268.492188 C 268.136719 266.96875 268.660156 265.074219 270.1875 264.179688 C 271.714844 263.285156 273.609375 263.8125 274.5 265.335938 C 280.972656 276.4375 286.972656 289.382812 275.449219 302.589844 C 270.609375 308.167969 263.769531 312.113281 256.242188 313.691406 C 237.667969 317.636719 220.621094 318.847656 204.152344 317.429688 L 181.578125 315.691406 L 158.953125 317.429688 C 154.429688 317.796875 150.007812 318.007812 145.535156 318.007812 Z M 145.535156 318.007812 " fill-opacity="1" fill-rule="nonzero"/></g><path fill="#f8fbfd" d="M 181.421875 271.019531 C 171.109375 271.019531 160.796875 269.703125 150.796875 267.074219 L 150.480469 267.019531 C 147.535156 266.230469 144.535156 265.601562 141.484375 265.125 C 132.644531 263.707031 123.753906 263.546875 115.070312 264.757812 C 114.28125 264.863281 113.542969 264.96875 112.753906 265.074219 C 111.019531 265.335938 109.441406 264.179688 109.125 262.441406 C 108.863281 260.707031 110.019531 259.128906 111.753906 258.8125 C 112.597656 258.707031 113.386719 258.550781 114.230469 258.445312 C 123.542969 257.179688 133.011719 257.339844 142.484375 258.863281 C 145.746094 259.390625 148.957031 260.074219 152.0625 260.917969 L 152.324219 260.96875 C 171.320312 265.96875 191.367188 265.96875 210.359375 260.96875 L 210.675781 260.917969 C 213.78125 260.074219 216.992188 259.390625 220.253906 258.863281 C 229.722656 257.339844 239.195312 257.179688 248.507812 258.445312 C 249.296875 258.550781 250.140625 258.65625 250.929688 258.8125 C 252.664062 259.074219 253.824219 260.707031 253.558594 262.441406 C 253.296875 264.179688 251.664062 265.335938 249.929688 265.074219 C 249.140625 264.96875 248.402344 264.863281 247.613281 264.757812 C 238.933594 263.601562 230.039062 263.707031 221.199219 265.125 C 218.148438 265.601562 215.148438 266.285156 212.253906 267.019531 L 211.941406 267.125 C 202.046875 269.703125 191.734375 271.019531 181.421875 271.019531 Z M 181.421875 271.019531 " fill-opacity="1" fill-rule="nonzero"/><path fill="#f8fbfd" d="M 181.421875 315.691406 C 180.683594 315.691406 180 315.429688 179.421875 314.957031 C 178.105469 313.851562 177.894531 311.851562 179.054688 310.484375 C 189.101562 298.433594 226.460938 276.914062 228.039062 275.964844 C 229.566406 275.070312 231.460938 275.597656 232.355469 277.125 C 233.25 278.648438 232.722656 280.542969 231.199219 281.4375 C 230.828125 281.648438 193.261719 303.328125 183.894531 314.535156 C 183.210938 315.269531 182.316406 315.691406 181.421875 315.691406 Z M 181.421875 315.691406 " fill-opacity="1" fill-rule="nonzero"/><g clip-path="url(#d7c20c36a8)"><path fill="#f8fbfd" d="M 181.421875 161.628906 C 154.640625 161.628906 132.855469 139.84375 132.855469 113.0625 L 132.855469 97.171875 C 132.855469 70.386719 154.640625 48.605469 181.421875 48.605469 C 208.203125 48.605469 229.988281 70.386719 229.988281 97.171875 L 229.988281 113.0625 C 229.988281 139.84375 208.203125 161.628906 181.421875 161.628906 Z M 181.421875 54.917969 C 158.113281 54.917969 139.167969 73.859375 139.167969 97.171875 L 139.167969 113.0625 C 139.167969 136.371094 158.113281 155.3125 181.421875 155.3125 C 204.730469 155.3125 223.671875 136.371094 223.671875 113.0625 L 223.671875 97.171875 C 223.671875 73.859375 204.730469 54.917969 181.421875 54.917969 Z M 181.421875 54.917969 " fill-opacity="1" fill-rule="nonzero"/></g><path fill="#f8fbfd" d="M 136.011719 109.378906 C 135.695312 109.378906 135.328125 109.324219 134.960938 109.21875 C 133.328125 108.640625 132.433594 106.851562 133.011719 105.222656 C 135.277344 98.695312 139.433594 94.066406 145.851562 91.066406 C 148.796875 89.644531 152.21875 88.855469 155.902344 88.699219 C 175.6875 87.753906 188.261719 81.703125 198.523438 76.125 C 199.890625 75.386719 201.574219 75.753906 202.519531 76.964844 C 204.625 79.703125 206.992188 82.121094 209.675781 84.332031 C 210.992188 85.4375 212.464844 86.488281 214.253906 87.648438 C 229.933594 97.589844 229.933594 101.117188 229.933594 102.800781 C 229.933594 104.539062 228.515625 105.957031 226.777344 105.957031 C 225.148438 105.957031 223.777344 104.695312 223.621094 103.117188 C 223.042969 101.90625 219.253906 98.328125 210.835938 93.015625 C 208.835938 91.75 207.097656 90.488281 205.574219 89.226562 C 203.257812 87.277344 201.152344 85.226562 199.207031 82.964844 C 186.523438 89.644531 174.054688 94.222656 156.164062 95.066406 C 153.324219 95.222656 150.746094 95.800781 148.535156 96.855469 C 143.695312 99.117188 140.644531 102.484375 138.957031 107.324219 C 138.589844 108.589844 137.328125 109.378906 136.011719 109.378906 Z M 223.726562 103.167969 Z M 223.726562 103.167969 " fill-opacity="1" fill-rule="nonzero"/><path fill="#f8fbfd" d="M 163.582031 116.21875 C 160.164062 116.21875 156.796875 114.691406 153.640625 111.589844 C 152.375 110.378906 152.375 108.378906 153.585938 107.117188 C 154.796875 105.851562 156.796875 105.851562 158.058594 107.0625 C 161.953125 110.902344 165.269531 110.851562 169.371094 107.011719 C 170.632812 105.800781 172.632812 105.90625 173.84375 107.167969 C 175.054688 108.429688 174.949219 110.429688 173.6875 111.640625 C 170.425781 114.691406 167.003906 116.21875 163.582031 116.21875 Z M 163.582031 116.21875 " fill-opacity="1" fill-rule="nonzero"/><path fill="#f8fbfd" d="M 199.046875 116.21875 C 195.628906 116.21875 192.261719 114.691406 189.101562 111.589844 C 187.839844 110.378906 187.839844 108.378906 189.050781 107.117188 C 190.261719 105.851562 192.261719 105.851562 193.523438 107.0625 C 197.417969 110.902344 200.730469 110.851562 204.835938 107.011719 C 206.097656 105.800781 208.097656 105.90625 209.308594 107.167969 C 210.519531 108.429688 210.414062 110.429688 209.152344 111.640625 C 205.835938 114.691406 202.414062 116.21875 199.046875 116.21875 Z M 199.046875 116.21875 " fill-opacity="1" fill-rule="nonzero"/><path fill="#f8fbfd" d="M 181.421875 141.949219 C 177.683594 141.949219 173.949219 140.6875 170.320312 138.105469 C 168.898438 137.109375 168.53125 135.160156 169.53125 133.6875 C 170.53125 132.265625 172.527344 131.898438 173.949219 132.898438 C 179.054688 136.476562 183.839844 136.476562 188.945312 132.898438 C 190.367188 131.898438 192.367188 132.214844 193.367188 133.6875 C 194.367188 135.109375 194.050781 137.109375 192.578125 138.105469 C 188.894531 140.6875 185.15625 141.949219 181.421875 141.949219 Z M 181.421875 141.949219 " fill-opacity="1" fill-rule="nonzero"/><path fill="#f8fbfd" d="M 181.421875 183.78125 C 169.6875 183.78125 159.902344 174.992188 158.585938 163.363281 C 158.480469 162.574219 158.425781 161.679688 158.425781 160.785156 L 158.425781 153.894531 C 158.425781 152.15625 159.847656 150.734375 161.585938 150.734375 C 163.320312 150.734375 164.742188 152.15625 164.742188 153.894531 L 164.742188 160.785156 C 164.742188 161.417969 164.792969 162.046875 164.847656 162.628906 C 165.792969 171.097656 172.898438 177.414062 181.421875 177.414062 C 189.945312 177.414062 197.046875 171.046875 197.941406 162.628906 C 197.996094 161.996094 198.046875 161.417969 198.046875 160.785156 L 198.046875 153.890625 C 198.046875 152.15625 199.46875 150.734375 201.207031 150.734375 C 202.941406 150.734375 204.363281 152.15625 204.363281 153.890625 L 204.363281 160.785156 C 204.363281 161.679688 204.308594 162.574219 204.203125 163.363281 C 202.941406 174.992188 193.15625 183.78125 181.421875 183.78125 Z M 181.421875 183.78125 " fill-opacity="1" fill-rule="nonzero"/></svg>