<svg xmlns="http://www.w3.org/2000/svg" xmlns:xlink="http://www.w3.org/1999/xlink" width="500" zoomAndPan="magnify" viewBox="0 0 375 374.999991" height="500" preserveAspectRatio="xMidYMid meet" version="1.0"><defs><clipPath id="78b4dbb451"><path d="M 7.886719 7.886719 L 367.113281 7.886719 L 367.113281 367.113281 L 7.886719 367.113281 Z M 7.886719 7.886719 " clip-rule="nonzero"/></clipPath><clipPath id="f85e6d3ec9"><path d="M 187.5 7.886719 C 88.304688 7.886719 7.886719 88.304688 7.886719 187.5 C 7.886719 286.695312 88.304688 367.113281 187.5 367.113281 C 286.695312 367.113281 367.113281 286.695312 367.113281 187.5 C 367.113281 88.304688 286.695312 7.886719 187.5 7.886719 Z M 187.5 7.886719 " clip-rule="nonzero"/></clipPath><clipPath id="fe333dce80"><path d="M 0.886719 0.886719 L 360.113281 0.886719 L 360.113281 360.113281 L 0.886719 360.113281 Z M 0.886719 0.886719 " clip-rule="nonzero"/></clipPath><clipPath id="bfaadb03e5"><path d="M 180.5 0.886719 C 81.304688 0.886719 0.886719 81.304688 0.886719 180.5 C 0.886719 279.695312 81.304688 360.113281 180.5 360.113281 C 279.695312 360.113281 360.113281 279.695312 360.113281 180.5 C 360.113281 81.304688 279.695312 0.886719 180.5 0.886719 Z M 180.5 0.886719 " clip-rule="nonzero"/></clipPath><clipPath id="e239b43983"><rect x="0" width="361" y="0" height="361"/></clipPath><clipPath id="e8a52f0450"><path d="M 35.113281 119 L 277 119 L 277 241 L 35.113281 241 Z M 35.113281 119 " clip-rule="nonzero"/></clipPath><clipPath id="8e8b3ec67f"><path d="M 111 160 L 341.863281 160 L 341.863281 271.929688 L 111 271.929688 Z M 111 160 " clip-rule="nonzero"/></clipPath></defs><g clip-path="url(#78b4dbb451)"><g clip-path="url(#f85e6d3ec9)"><g transform="matrix(1, 0, 0, 1, 7, 7)"><g clip-path="url(#e239b43983)"><g clip-path="url(#fe333dce80)"><g clip-path="url(#bfaadb03e5)"><path fill="#293133" d="M 0.886719 0.886719 L 360.113281 0.886719 L 360.113281 360.113281 L 0.886719 360.113281 Z M 0.886719 0.886719 " fill-opacity="1" fill-rule="nonzero"/></g></g></g></g></g></g><g clip-path="url(#e8a52f0450)"><path fill="#f8fbfd" d="M 178.199219 216.074219 C 181.972656 203.433594 185.394531 191.941406 188.832031 180.460938 C 189.355469 178.710938 189.640625 176.773438 190.609375 175.304688 C 191.519531 173.925781 193.175781 172.203125 194.53125 172.171875 C 196.109375 172.140625 198.382812 173.402344 199.1875 174.78125 C 201.613281 178.941406 203.597656 183.375 205.523438 187.800781 C 207.929688 193.335938 208.496094 193.847656 214.539062 193.863281 C 225.890625 193.890625 237.242188 193.90625 248.59375 193.921875 C 249.375 193.921875 250.175781 193.953125 250.941406 193.820312 C 264.722656 191.410156 264.972656 191.230469 267.4375 178.152344 C 271.066406 158.886719 260.691406 141.332031 245.632812 133.371094 C 228.5625 124.34375 208.441406 127.332031 194.601562 140.828125 C 189.839844 145.472656 187.808594 145.804688 183.042969 141.226562 C 175.683594 134.15625 166.972656 130.128906 157.066406 128.535156 C 139.402344 125.695312 119.679688 137.046875 112.511719 153.824219 C 109.828125 160.105469 108.761719 166.558594 109.109375 173.316406 C 109.136719 173.839844 109.21875 174.363281 109.183594 174.882812 C 109.027344 177.375 108.507812 179.722656 105.417969 179.917969 C 102.203125 180.121094 100.96875 177.910156 100.78125 175.222656 C 100.25 167.613281 100.667969 160.140625 103.546875 152.878906 C 111.488281 132.847656 129.765625 120.101562 151.5 119.511719 C 164.019531 119.167969 175.695312 123.59375 185.414062 131.882812 C 187.863281 133.972656 189.3125 133.925781 191.652344 131.972656 C 215.375 112.171875 250.152344 116.738281 267.808594 142.101562 C 278.152344 156.964844 279.117188 173.1875 273.398438 189.976562 C 270.964844 197.121094 264.976562 200.445312 258.023438 201.007812 C 246.59375 201.933594 235.097656 202.132812 223.625 202.394531 C 218.808594 202.503906 213.984375 201.925781 209.15625 201.773438 C 204.738281 201.632812 201.839844 199.597656 200.195312 195.460938 C 199.199219 192.953125 197.800781 190.605469 196.117188 187.257812 C 194.179688 193.09375 192.421875 198.03125 190.902344 203.039062 C 188.519531 210.90625 186.296875 218.824219 184 226.71875 C 183.851562 227.21875 183.769531 227.839844 183.425781 228.160156 C 181.914062 229.578125 180.34375 231.933594 178.746094 231.972656 C 177.167969 232.015625 174.796875 230.007812 174.039062 228.328125 C 170.023438 219.402344 166.445312 210.28125 162.632812 201.261719 C 159.84375 194.652344 159.792969 194.734375 152.574219 194.75 C 133.238281 194.789062 113.90625 194.773438 94.570312 194.78125 C 89.585938 194.78125 89.320312 195.023438 89.378906 200.148438 C 89.480469 209.289062 89.773438 218.433594 89.722656 227.574219 C 89.679688 234.867188 86.363281 238.929688 80.039062 240.449219 C 76.207031 241.367188 73.25 239.789062 70.1875 237.8125 C 68.5625 236.769531 66.453125 235.859375 64.59375 235.914062 C 59.175781 236.082031 54.976562 234.488281 51.859375 229.8125 C 51.046875 228.59375 48.9375 227.722656 47.359375 227.609375 C 39.820312 227.082031 35.992188 223.859375 35.601562 216.234375 C 35.226562 208.816406 35.304688 201.347656 35.660156 193.921875 C 35.972656 187.339844 40.21875 183.289062 46.757812 183.019531 C 49.132812 182.921875 50.253906 182.152344 51.035156 180.023438 C 53.148438 174.234375 57.113281 171.167969 63.574219 171.472656 C 64.933594 171.539062 66.761719 170.464844 67.699219 169.347656 C 71.988281 164.210938 76.527344 162.507812 82.125 164.339844 C 86.929688 165.910156 89.613281 170.273438 89.765625 176.796875 C 89.789062 177.710938 89.769531 178.625 89.714844 179.539062 C 89.328125 186.023438 89.730469 186.359375 96.207031 186.355469 C 113.175781 186.34375 130.144531 186.4375 147.113281 186.4375 C 151.285156 186.4375 155.460938 186.175781 159.636719 186.1875 C 163.097656 186.195312 165.527344 187.855469 166.945312 191.109375 C 169.917969 197.929688 172.996094 204.707031 176.039062 211.5 C 176.5625 212.671875 177.136719 213.824219 178.199219 216.074219 Z M 81.035156 202.367188 C 81.035156 195.199219 81.035156 188.027344 81.03125 180.859375 C 81.027344 179.292969 81.382812 177.582031 80.863281 176.203125 C 80.363281 174.875 78.949219 173.890625 77.933594 172.757812 C 76.851562 173.855469 75.601562 174.839844 74.753906 176.097656 C 74.316406 176.746094 74.550781 177.875 74.550781 178.785156 C 74.535156 194.175781 74.527344 209.566406 74.542969 224.953125 C 74.546875 226.253906 74.34375 227.773438 74.925781 228.792969 C 75.664062 230.085938 77.109375 230.96875 78.25 232.03125 C 79.148438 230.875 80.289062 229.824219 80.855469 228.523438 C 81.292969 227.527344 81.03125 226.210938 81.03125 225.039062 C 81.042969 217.480469 81.039062 209.921875 81.035156 202.367188 Z M 58.800781 203.660156 C 58.824219 203.660156 58.847656 203.660156 58.875 203.660156 C 58.875 210.050781 58.675781 216.457031 59.023438 222.832031 C 59.101562 224.269531 61.09375 225.601562 62.203125 226.980469 C 63.472656 225.761719 64.886719 224.648438 65.941406 223.265625 C 66.402344 222.660156 66.171875 221.496094 66.171875 220.585938 C 66.183594 209.492188 66.207031 198.398438 66.152344 187.308594 C 66.148438 185.769531 66.101562 184.050781 65.429688 182.746094 C 64.886719 181.6875 63.34375 180.484375 62.292969 180.53125 C 61.234375 180.578125 59.90625 181.898438 59.304688 182.996094 C 58.726562 184.050781 58.832031 185.53125 58.820312 186.824219 C 58.777344 192.4375 58.800781 198.046875 58.800781 203.660156 Z M 49.992188 205.410156 C 49.992188 202.160156 50.253906 198.875 49.867188 195.671875 C 49.703125 194.332031 48.160156 193.164062 47.242188 191.917969 C 46.082031 193.089844 43.984375 194.214844 43.917969 195.441406 C 43.570312 202.054688 43.554688 208.695312 43.867188 215.308594 C 43.921875 216.523438 46.011719 217.640625 47.164062 218.804688 C 48.109375 217.59375 49.707031 216.460938 49.871094 215.152344 C 50.265625 211.949219 50 208.664062 49.992188 205.410156 Z M 49.992188 205.410156 " fill-opacity="1" fill-rule="evenodd"/></g><g clip-path="url(#8e8b3ec67f)"><path fill="#f8fbfd" d="M 287.535156 187.503906 C 287.539062 182.539062 287.492188 177.574219 287.554688 172.609375 C 287.625 166.882812 290.191406 163.050781 294.980469 161.324219 C 299.757812 159.601562 304.9375 161.011719 308.304688 165.289062 C 309.796875 167.1875 311.171875 168.089844 313.792969 168.015625 C 319.277344 167.859375 323.292969 170.675781 325.339844 175.792969 C 326.476562 178.640625 327.972656 180.015625 331.296875 180.1875 C 336.949219 180.476562 340.699219 183.980469 340.996094 189.636719 C 341.433594 198.101562 341.445312 206.617188 341.035156 215.082031 C 340.765625 220.726562 335.714844 224.582031 329.449219 224.488281 C 327.027344 224.453125 325.617188 225.183594 324.332031 227.148438 C 321.503906 231.460938 317.46875 233.203125 312.234375 232.738281 C 310.570312 232.59375 308.40625 233.375 307.132812 234.488281 C 303.441406 237.703125 299.414062 238.171875 295.0625 236.6875 C 290.691406 235.199219 288.28125 231.878906 287.78125 227.351562 C 287.480469 224.636719 287.550781 221.875 287.554688 219.132812 C 287.554688 216.558594 286.449219 215.273438 283.785156 215.292969 C 276.46875 215.34375 269.132812 215.039062 261.84375 215.5 C 259.5625 215.644531 256.902344 217.300781 255.277344 219.058594 C 237.230469 238.574219 216.160156 254.355469 194.253906 269.152344 C 190.371094 271.773438 187 271.890625 183.105469 269.273438 C 162.898438 255.699219 143.371094 241.28125 126.460938 223.648438 C 121.867188 218.859375 117.785156 213.566406 113.601562 208.398438 C 111.875 206.261719 110.65625 203.515625 113.433594 201.511719 C 116.140625 199.5625 118.347656 201.511719 120.082031 203.671875 C 137.695312 225.613281 159.570312 242.71875 182.496094 258.617188 C 188.492188 262.773438 188.589844 262.722656 194.527344 258.683594 C 211.292969 247.285156 227.199219 234.8125 241.777344 220.691406 C 242.617188 219.875 243.53125 219.085938 244.195312 218.128906 C 250.957031 208.378906 260.617188 206.027344 271.742188 207.066406 C 275.632812 207.429688 279.566406 207.289062 283.480469 207.441406 C 286.492188 207.554688 287.660156 206.191406 287.574219 203.183594 C 287.425781 197.960938 287.53125 192.730469 287.535156 187.503906 Z M 295.90625 202.683594 C 295.90625 208.292969 295.902344 213.902344 295.910156 219.511719 C 295.914062 221.207031 295.535156 223.070312 296.109375 224.554688 C 296.710938 226.117188 298.238281 227.324219 299.363281 228.6875 C 300.351562 227.351562 301.371094 226.035156 302.304688 224.660156 C 302.492188 224.386719 302.378906 223.894531 302.378906 223.503906 C 302.382812 207.226562 302.398438 190.945312 302.367188 174.667969 C 302.363281 172.273438 302.21875 169.464844 298.984375 169.539062 C 296.03125 169.609375 295.929688 172.261719 295.921875 174.539062 C 295.902344 183.921875 295.914062 193.300781 295.90625 202.683594 Z M 310.753906 200.617188 C 310.753906 206.222656 310.699219 211.832031 310.777344 217.4375 C 310.816406 220.328125 310.863281 223.945312 314.726562 223.84375 C 318.445312 223.742188 318.078125 220.113281 318.089844 217.433594 C 318.144531 206.089844 318.117188 194.742188 318.085938 183.398438 C 318.082031 182.234375 318.234375 180.84375 317.675781 179.960938 C 316.921875 178.773438 315.550781 177.222656 314.4375 177.21875 C 313.34375 177.210938 311.878906 178.757812 311.25 179.96875 C 310.636719 181.144531 310.777344 182.761719 310.765625 184.183594 C 310.71875 189.664062 310.746094 195.140625 310.753906 200.617188 Z M 326.914062 202.277344 C 326.902344 202.277344 326.886719 202.277344 326.875 202.277344 C 326.875 205.410156 326.582031 208.578125 327 211.652344 C 327.199219 213.128906 328.746094 214.421875 329.679688 215.796875 C 330.742188 214.542969 332.648438 213.335938 332.71875 212.03125 C 333.066406 205.53125 333.101562 198.996094 332.820312 192.488281 C 332.765625 191.222656 330.808594 190.039062 329.730469 188.8125 C 328.792969 190.042969 327.207031 191.1875 327.042969 192.511719 C 326.648438 195.722656 326.914062 199.015625 326.914062 202.277344 Z M 326.914062 202.277344 " fill-opacity="1" fill-rule="evenodd"/></g></svg>