<svg xmlns="http://www.w3.org/2000/svg" xmlns:xlink="http://www.w3.org/1999/xlink" width="500" zoomAndPan="magnify" viewBox="0 0 375 374.999991" height="500" preserveAspectRatio="xMidYMid meet" version="1.0"><defs><clipPath id="deb2d964c3"><path d="M 8.214844 8.214844 L 367.4375 8.214844 L 367.4375 367.4375 L 8.214844 367.4375 Z M 8.214844 8.214844 " clip-rule="nonzero"/></clipPath><clipPath id="bb6456f116"><path d="M 187.828125 8.214844 C 88.632812 8.214844 8.214844 88.632812 8.214844 187.828125 C 8.214844 287.023438 88.632812 367.4375 187.828125 367.4375 C 287.023438 367.4375 367.4375 287.023438 367.4375 187.828125 C 367.4375 88.632812 287.023438 8.214844 187.828125 8.214844 Z M 187.828125 8.214844 " clip-rule="nonzero"/></clipPath><clipPath id="0937ad0f11"><path d="M 0.214844 0.214844 L 359.4375 0.214844 L 359.4375 359.4375 L 0.214844 359.4375 Z M 0.214844 0.214844 " clip-rule="nonzero"/></clipPath><clipPath id="5ba2c4332a"><path d="M 179.828125 0.214844 C 80.632812 0.214844 0.214844 80.632812 0.214844 179.828125 C 0.214844 279.023438 80.632812 359.4375 179.828125 359.4375 C 279.023438 359.4375 359.4375 279.023438 359.4375 179.828125 C 359.4375 80.632812 279.023438 0.214844 179.828125 0.214844 Z M 179.828125 0.214844 " clip-rule="nonzero"/></clipPath><clipPath id="e52dae57bd"><rect x="0" width="360" y="0" height="360"/></clipPath><clipPath id="783a3de52f"><path d="M 206 123 L 303.695312 123 L 303.695312 307.039062 L 206 307.039062 Z M 206 123 " clip-rule="nonzero"/></clipPath><clipPath id="2622d376b2"><path d="M 71.195312 123 L 169 123 L 169 307.039062 L 71.195312 307.039062 Z M 71.195312 123 " clip-rule="nonzero"/></clipPath><clipPath id="9f8411e053"><path d="M 195 97.039062 L 252 97.039062 L 252 214 L 195 214 Z M 195 97.039062 " clip-rule="nonzero"/></clipPath><clipPath id="1f547c73c8"><path d="M 123 97.039062 L 180 97.039062 L 180 214 L 123 214 Z M 123 97.039062 " clip-rule="nonzero"/></clipPath><clipPath id="7a0d937e75"><path d="M 142.453125 19.445312 L 232.453125 19.445312 L 232.453125 109.445312 L 142.453125 109.445312 Z M 142.453125 19.445312 " clip-rule="nonzero"/></clipPath></defs><g clip-path="url(#deb2d964c3)"><g clip-path="url(#bb6456f116)"><g transform="matrix(1, 0, 0, 1, 8, 8)"><g clip-path="url(#e52dae57bd)"><g clip-path="url(#0937ad0f11)"><g clip-path="url(#5ba2c4332a)"><path fill="#293133" d="M 0.214844 0.214844 L 359.4375 0.214844 L 359.4375 359.4375 L 0.214844 359.4375 Z M 0.214844 0.214844 " fill-opacity="1" fill-rule="nonzero"/></g></g></g></g></g></g><g clip-path="url(#783a3de52f)"><path fill="#ffffff" d="M 232.515625 130.871094 C 229.160156 130.871094 226.523438 131.894531 224.441406 134.019531 C 216.746094 141.832031 217.113281 163.449219 217.394531 180.800781 C 217.453125 184.273438 217.511719 187.671875 217.511719 190.898438 C 217.511719 204.703125 216.5 216.351562 215.515625 227.636719 C 214.609375 237.984375 213.757812 247.773438 213.757812 258.425781 C 213.757812 277.640625 225.4375 280.953125 244.503906 284.761719 C 254.046875 286.667969 258.574219 290.625 262.191406 293.804688 C 266.105469 297.234375 268.917969 299.695312 277.535156 299.695312 C 291.386719 299.695312 296.296875 291.769531 296.296875 247.171875 C 296.296875 177.839844 248.417969 130.871094 232.515625 130.871094 Z M 277.535156 307.199219 C 266.089844 307.199219 261.605469 303.257812 257.253906 299.460938 C 253.839844 296.457031 250.617188 293.644531 243.039062 292.121094 C 225.804688 288.675781 206.253906 284.761719 206.253906 258.425781 C 206.253906 247.449219 207.121094 237.5 208.027344 226.992188 C 209.011719 215.867188 210.007812 204.363281 210.007812 190.898438 C 210.007812 187.714844 209.949219 184.359375 209.890625 180.929688 C 209.566406 161.191406 209.199219 138.8125 219.09375 128.746094 C 222.609375 125.183594 227.125 123.367188 232.515625 123.367188 C 253.078125 123.367188 303.800781 172.710938 303.800781 247.171875 C 303.800781 283.429688 301.96875 307.199219 277.535156 307.199219 " fill-opacity="1" fill-rule="nonzero"/></g><g clip-path="url(#2622d376b2)"><path fill="#ffffff" d="M 142.476562 130.871094 C 126.574219 130.871094 78.695312 177.839844 78.695312 247.171875 C 78.695312 291.769531 83.621094 299.695312 97.457031 299.695312 C 106.074219 299.695312 108.886719 297.234375 112.800781 293.804688 C 116.417969 290.625 120.949219 286.667969 130.488281 284.761719 C 149.554688 280.953125 161.234375 277.640625 161.234375 258.425781 C 161.234375 247.773438 160.382812 237.984375 159.476562 227.636719 C 158.492188 216.351562 157.484375 204.703125 157.484375 190.898438 C 157.484375 187.671875 157.542969 184.273438 157.601562 180.800781 C 157.878906 163.449219 158.246094 141.832031 150.550781 134.019531 C 148.46875 131.894531 145.832031 130.871094 142.476562 130.871094 Z M 97.457031 307.199219 C 73.027344 307.199219 71.195312 283.429688 71.195312 247.171875 C 71.195312 172.710938 121.914062 123.367188 142.476562 123.367188 C 147.867188 123.367188 152.382812 125.183594 155.898438 128.746094 C 165.792969 138.8125 165.425781 161.191406 165.101562 180.929688 C 165.042969 184.359375 164.984375 187.714844 164.984375 190.898438 C 164.984375 204.363281 165.984375 215.867188 166.964844 226.992188 C 167.875 237.5 168.738281 247.449219 168.738281 258.425781 C 168.738281 284.761719 149.1875 288.675781 131.953125 292.121094 C 124.375 293.644531 121.152344 296.457031 117.738281 299.460938 C 113.386719 303.257812 108.902344 307.199219 97.457031 307.199219 " fill-opacity="1" fill-rule="nonzero"/></g><g clip-path="url(#9f8411e053)"><path fill="#ffffff" d="M 247.523438 213.40625 C 246 213.40625 244.578125 212.484375 244.007812 210.972656 C 238.539062 196.40625 226.214844 188.390625 215.339844 181.328125 C 204.878906 174.527344 195 168.09375 195 157.132812 L 195 100.855469 C 195 98.789062 196.683594 97.105469 198.75 97.105469 C 200.816406 97.105469 202.503906 98.789062 202.503906 100.855469 L 202.503906 157.132812 C 202.503906 163.695312 208.9375 168.210938 219.429688 175.023438 C 230.699219 182.351562 244.710938 191.46875 251.039062 208.335938 C 251.757812 210.269531 250.777344 212.441406 248.84375 213.171875 C 248.402344 213.332031 247.964844 213.40625 247.523438 213.40625 " fill-opacity="1" fill-rule="nonzero"/></g><g clip-path="url(#1f547c73c8)"><path fill="#ffffff" d="M 127.46875 213.40625 C 127.03125 213.40625 126.589844 213.332031 126.148438 213.171875 C 124.214844 212.441406 123.234375 210.269531 123.953125 208.335938 C 130.28125 191.46875 144.292969 182.351562 155.5625 175.023438 C 166.054688 168.210938 172.488281 163.695312 172.488281 157.132812 L 172.488281 100.855469 C 172.488281 98.789062 174.175781 97.105469 176.242188 97.105469 C 178.308594 97.105469 179.992188 98.789062 179.992188 100.855469 L 179.992188 157.132812 C 179.992188 168.09375 170.117188 174.527344 159.652344 181.328125 C 148.777344 188.390625 136.453125 196.40625 130.984375 210.972656 C 130.414062 212.484375 128.992188 213.40625 127.46875 213.40625 " fill-opacity="1" fill-rule="nonzero"/></g><path fill="#ffffff" d="M 240.019531 262.179688 C 238.453125 262.179688 236.988281 261.183594 236.457031 259.613281 C 236.296875 259.128906 232.515625 247.554688 232.515625 228.414062 C 232.515625 212.132812 196.847656 183.394531 187.496094 183.394531 C 178.144531 183.394531 142.476562 212.132812 142.476562 228.414062 C 142.476562 247.554688 138.695312 259.128906 138.535156 259.613281 C 137.875 261.578125 135.75 262.632812 133.785156 261.988281 C 131.820312 261.328125 130.765625 259.21875 131.410156 257.242188 C 131.441406 257.136719 134.972656 246.234375 134.972656 228.414062 C 134.972656 207.148438 174.9375 175.890625 187.496094 175.890625 C 200.054688 175.890625 240.019531 207.148438 240.019531 228.414062 C 240.019531 246.234375 243.550781 257.136719 243.582031 257.242188 C 244.226562 259.21875 243.171875 261.328125 241.207031 261.988281 C 240.8125 262.105469 240.402344 262.179688 240.019531 262.179688 " fill-opacity="1" fill-rule="nonzero"/><path fill="#ffffff" d="M 277.535156 247.171875 C 276.160156 247.171875 274.839844 246.410156 274.179688 245.105469 C 269.945312 236.636719 257.402344 235.332031 247.316406 234.261719 C 241.851562 233.703125 237.558594 233.25 234.582031 231.769531 C 232.738281 230.847656 231.988281 228.589844 232.914062 226.726562 C 233.835938 224.882812 236.09375 224.121094 237.953125 225.058594 C 239.683594 225.9375 243.960938 226.375 248.09375 226.816406 C 259.363281 227.988281 274.824219 229.601562 280.894531 241.734375 C 281.816406 243.597656 281.070312 245.851562 279.222656 246.777344 C 278.679688 247.039062 278.109375 247.171875 277.535156 247.171875 " fill-opacity="1" fill-rule="nonzero"/><path fill="#ffffff" d="M 97.457031 247.171875 C 96.882812 247.171875 96.3125 247.039062 95.769531 246.777344 C 93.921875 245.851562 93.175781 243.597656 94.097656 241.734375 C 100.167969 229.601562 115.628906 227.988281 126.898438 226.816406 C 131.03125 226.375 135.308594 225.9375 137.039062 225.058594 C 138.898438 224.121094 141.15625 224.882812 142.082031 226.726562 C 143.003906 228.589844 142.257812 230.847656 140.410156 231.769531 C 137.433594 233.25 133.140625 233.703125 127.675781 234.261719 C 117.589844 235.332031 105.046875 236.636719 100.8125 245.105469 C 100.152344 246.410156 98.832031 247.171875 97.457031 247.171875 " fill-opacity="1" fill-rule="nonzero"/><path fill="#ffffff" d="M 266.28125 265.929688 C 265.316406 265.929688 264.363281 265.5625 263.628906 264.832031 C 259.730469 260.933594 257.753906 254.441406 255.65625 247.566406 C 254.105469 242.453125 252.492188 237.164062 250.101562 233.089844 C 249.046875 231.300781 249.664062 229 251.4375 227.960938 C 253.222656 226.90625 255.523438 227.503906 256.582031 229.292969 C 259.410156 234.128906 261.152344 239.84375 262.839844 245.382812 C 264.65625 251.335938 266.371094 256.945312 268.933594 259.527344 C 270.398438 260.992188 270.398438 263.367188 268.933594 264.832031 C 268.203125 265.5625 267.25 265.929688 266.28125 265.929688 " fill-opacity="1" fill-rule="nonzero"/><path fill="#ffffff" d="M 108.710938 265.929688 C 107.742188 265.929688 106.789062 265.5625 106.058594 264.832031 C 104.59375 263.367188 104.59375 260.992188 106.058594 259.527344 C 108.621094 256.945312 110.335938 251.335938 112.15625 245.382812 C 113.839844 239.84375 115.582031 234.128906 118.414062 229.292969 C 119.46875 227.503906 121.769531 226.90625 123.554688 227.960938 C 125.328125 229 125.945312 231.300781 124.890625 233.089844 C 122.5 237.164062 120.890625 242.453125 119.335938 247.566406 C 117.238281 254.441406 115.261719 260.933594 111.363281 264.832031 C 110.628906 265.5625 109.679688 265.929688 108.710938 265.929688 " fill-opacity="1" fill-rule="nonzero"/><path fill="#ffffff" d="M 224.867188 186.925781 C 222.960938 186.925781 221.320312 185.472656 221.128906 183.539062 C 220.925781 181.472656 222.417969 179.640625 224.484375 179.4375 C 230.378906 178.851562 241.339844 176.769531 248.621094 169.484375 C 250.089844 168.019531 252.460938 168.019531 253.929688 169.484375 C 255.394531 170.953125 255.394531 173.324219 253.929688 174.789062 C 245.003906 183.730469 232.121094 186.207031 225.234375 186.894531 C 225.117188 186.910156 224.984375 186.925781 224.867188 186.925781 " fill-opacity="1" fill-rule="nonzero"/><path fill="#ffffff" d="M 150.125 186.925781 C 150.007812 186.925781 149.875 186.910156 149.757812 186.894531 C 142.871094 186.207031 129.988281 183.730469 121.066406 174.789062 C 119.597656 173.324219 119.597656 170.953125 121.066406 169.484375 C 122.53125 168.019531 124.90625 168.019531 126.371094 169.484375 C 133.652344 176.769531 144.617188 178.851562 150.507812 179.4375 C 152.574219 179.640625 154.066406 181.472656 153.863281 183.539062 C 153.671875 185.472656 152.03125 186.925781 150.125 186.925781 " fill-opacity="1" fill-rule="nonzero"/><path fill="#ffffff" d="M 262.53125 202.152344 C 261.8125 202.152344 261.078125 201.945312 260.449219 201.523438 C 253.238281 196.699219 248.109375 197.199219 241.046875 197.871094 L 238.347656 198.121094 C 236.328125 198.328125 234.464844 196.773438 234.289062 194.707031 C 234.113281 192.640625 235.652344 190.824219 237.71875 190.648438 L 240.328125 190.414062 C 247.964844 189.664062 255.1875 188.976562 264.609375 195.277344 C 266.339844 196.4375 266.808594 198.765625 265.652344 200.480469 C 264.933594 201.566406 263.730469 202.152344 262.53125 202.152344 " fill-opacity="1" fill-rule="nonzero"/><path fill="#ffffff" d="M 112.460938 202.152344 C 111.261719 202.152344 110.074219 201.566406 109.339844 200.480469 C 108.199219 198.765625 108.652344 196.4375 110.382812 195.277344 C 119.804688 188.976562 127.03125 189.664062 134.664062 190.414062 L 137.273438 190.648438 C 139.339844 190.824219 140.878906 192.640625 140.703125 194.707031 C 140.527344 196.773438 138.695312 198.328125 136.644531 198.121094 L 133.945312 197.871094 C 126.867188 197.199219 121.753906 196.699219 114.542969 201.523438 C 113.914062 201.945312 113.179688 202.152344 112.460938 202.152344 " fill-opacity="1" fill-rule="nonzero"/><g clip-path="url(#7a0d937e75)"><path fill="#ffffff" d="M 229.253906 71.53125 C 231.023438 71.53125 232.46875 70.085938 232.46875 68.316406 L 232.46875 60.546875 C 232.46875 58.78125 231.023438 57.332031 229.253906 57.332031 L 225.917969 57.332031 C 224.152344 57.332031 222.28125 55.949219 221.761719 54.261719 L 218.914062 47.351562 C 218.078125 45.792969 218.417969 43.496094 219.664062 42.246094 L 222.027344 39.886719 C 223.277344 38.636719 223.277344 36.589844 222.027344 35.339844 L 216.535156 29.847656 C 215.285156 28.597656 213.238281 28.597656 211.988281 29.847656 L 209.625 32.207031 C 208.375 33.457031 206.078125 33.796875 204.523438 32.960938 L 197.609375 30.113281 C 195.921875 29.59375 194.539062 27.722656 194.539062 25.957031 L 194.539062 22.617188 C 194.539062 20.851562 193.09375 19.40625 191.328125 19.40625 L 183.554688 19.40625 C 181.789062 19.40625 180.34375 20.851562 180.34375 22.617188 L 180.34375 25.957031 C 180.34375 27.722656 178.960938 29.59375 177.273438 30.113281 L 170.359375 32.960938 C 168.804688 33.796875 166.507812 33.457031 165.257812 32.207031 L 162.894531 29.84375 C 161.644531 28.59375 159.601562 28.59375 158.351562 29.84375 L 152.855469 35.339844 C 151.605469 36.589844 151.605469 38.632812 152.855469 39.882812 L 155.21875 42.246094 C 156.46875 43.496094 156.808594 45.792969 155.972656 47.351562 L 153.125 54.261719 C 152.605469 55.949219 150.734375 57.332031 148.964844 57.332031 L 145.632812 57.332031 C 143.863281 57.332031 142.417969 58.777344 142.417969 60.546875 L 142.417969 68.316406 C 142.417969 70.085938 143.863281 71.53125 145.632812 71.53125 L 148.964844 71.53125 C 150.734375 71.53125 152.605469 72.914062 153.125 74.601562 L 155.972656 81.515625 C 156.808594 83.070312 156.472656 85.367188 155.222656 86.617188 L 152.859375 88.980469 C 151.609375 90.230469 151.609375 92.273438 152.859375 93.523438 L 158.351562 99.019531 C 159.601562 100.269531 161.644531 100.265625 162.894531 99.019531 L 165.257812 96.65625 C 166.507812 95.40625 168.804688 95.066406 170.359375 95.902344 L 177.273438 98.75 C 178.960938 99.269531 180.34375 101.140625 180.34375 102.910156 L 180.34375 106.246094 C 180.34375 108.011719 181.789062 109.460938 183.558594 109.460938 L 191.328125 109.460938 C 193.09375 109.460938 194.539062 108.011719 194.539062 106.246094 L 194.539062 102.910156 C 194.539062 101.140625 195.921875 99.269531 197.613281 98.75 L 204.523438 95.902344 C 206.082031 95.066406 208.378906 95.40625 209.625 96.65625 L 211.992188 99.019531 C 213.238281 100.269531 215.285156 100.265625 216.535156 99.019531 L 222.027344 93.523438 C 223.277344 92.273438 223.277344 90.230469 222.027344 88.980469 L 219.667969 86.617188 C 218.417969 85.367188 218.078125 83.070312 218.914062 81.511719 L 221.761719 74.601562 C 222.28125 72.914062 224.152344 71.53125 225.917969 71.53125 Z M 187.441406 82.957031 C 177.210938 82.957031 168.917969 74.664062 168.917969 64.433594 C 168.917969 54.199219 177.210938 45.90625 187.441406 45.90625 C 197.671875 45.90625 205.964844 54.199219 205.964844 64.433594 C 205.964844 74.664062 197.671875 82.957031 187.441406 82.957031 Z M 187.441406 82.957031 " fill-opacity="1" fill-rule="nonzero"/></g></svg>