<svg xmlns="http://www.w3.org/2000/svg" xmlns:xlink="http://www.w3.org/1999/xlink" width="500" zoomAndPan="magnify" viewBox="0 0 375 374.999991" height="500" preserveAspectRatio="xMidYMid meet" version="1.0"><defs><clipPath id="36c668b8e0"><path d="M 7.886719 7.886719 L 367.113281 7.886719 L 367.113281 367.113281 L 7.886719 367.113281 Z M 7.886719 7.886719 " clip-rule="nonzero"/></clipPath><clipPath id="971067c07f"><path d="M 187.5 7.886719 C 88.304688 7.886719 7.886719 88.304688 7.886719 187.5 C 7.886719 286.695312 88.304688 367.113281 187.5 367.113281 C 286.695312 367.113281 367.113281 286.695312 367.113281 187.5 C 367.113281 88.304688 286.695312 7.886719 187.5 7.886719 Z M 187.5 7.886719 " clip-rule="nonzero"/></clipPath><clipPath id="b836fec93f"><path d="M 0.886719 0.886719 L 360.113281 0.886719 L 360.113281 360.113281 L 0.886719 360.113281 Z M 0.886719 0.886719 " clip-rule="nonzero"/></clipPath><clipPath id="3a6cf9dbd0"><path d="M 180.5 0.886719 C 81.304688 0.886719 0.886719 81.304688 0.886719 180.5 C 0.886719 279.695312 81.304688 360.113281 180.5 360.113281 C 279.695312 360.113281 360.113281 279.695312 360.113281 180.5 C 360.113281 81.304688 279.695312 0.886719 180.5 0.886719 Z M 180.5 0.886719 " clip-rule="nonzero"/></clipPath><clipPath id="b8a27899a7"><rect x="0" width="361" y="0" height="361"/></clipPath><clipPath id="efcf792f2c"><path d="M 89.316406 65.015625 L 273.816406 65.015625 L 273.816406 322.265625 L 89.316406 322.265625 Z M 89.316406 65.015625 " clip-rule="nonzero"/></clipPath></defs><g clip-path="url(#36c668b8e0)"><g clip-path="url(#971067c07f)"><g transform="matrix(1, 0, 0, 1, 7, 7)"><g clip-path="url(#b8a27899a7)"><g clip-path="url(#b836fec93f)"><g clip-path="url(#3a6cf9dbd0)"><path fill="#293133" d="M 0.886719 0.886719 L 360.113281 0.886719 L 360.113281 360.113281 L 0.886719 360.113281 Z M 0.886719 0.886719 " fill-opacity="1" fill-rule="nonzero"/></g></g></g></g></g></g><g clip-path="url(#efcf792f2c)"><path fill="#f8fbfd" d="M 210.582031 65.015625 C 188.152344 65.015625 168.414062 76.839844 157.316406 94.585938 L 157.246094 94.515625 C 153.082031 100.554688 148.515625 106.921875 144.253906 113.011719 C 139.992188 119.097656 136.269531 125.746094 132.171875 131.972656 C 124.003906 144.429688 116.300781 157.234375 109.535156 170.582031 C 102.816406 183.925781 96.984375 197.832031 93.285156 212.441406 C 91.460938 219.746094 90.171875 227.214844 89.773438 234.777344 C 89.375 242.316406 89.867188 249.972656 91.625 257.390625 C 93.355469 264.789062 96.375 271.90625 100.542969 278.253906 C 101.597656 279.84375 102.652344 281.367188 103.914062 282.886719 C 105.15625 284.386719 106.539062 285.742188 107.964844 287.007812 C 110.84375 289.535156 114.007812 291.667969 117.261719 293.5625 C 123.792969 297.355469 130.699219 300.234375 137.722656 302.742188 C 144.746094 305.222656 151.886719 307.304688 159.097656 309.132812 C 173.496094 312.761719 188.105469 315.453125 202.785156 317.632812 C 217.464844 319.785156 232.191406 321.472656 246.960938 322.546875 C 242.09375 322.054688 237.246094 321.308594 232.421875 320.441406 C 227.601562 319.574219 222.824219 318.542969 218.070312 317.351562 C 208.613281 314.9375 199.273438 311.847656 190.65625 307.398438 C 182.273438 303.046875 173.917969 297.238281 170.5 288.015625 C 167.785156 280.6875 168.789062 272.398438 171.597656 265.117188 C 175.554688 254.910156 182.554688 245.3125 189.230469 236.71875 C 195.175781 229.0625 201.636719 221.757812 208.332031 214.6875 C 215.027344 207.617188 221.980469 200.804688 229.121094 194.15625 C 235.421875 188.304688 242.398438 182.847656 249.070312 177.417969 C 249.9375 176.738281 250.777344 176.035156 251.621094 175.332031 C 251.644531 175.308594 251.667969 175.285156 251.691406 175.285156 C 264.988281 163.769531 273.394531 146.746094 273.394531 127.832031 C 273.394531 93.203125 245.230469 65.015625 210.582031 65.015625 Z M 241.25 78.734375 C 241.15625 78.851562 241.085938 78.945312 241.015625 79.039062 C 236.238281 77.121094 223.058594 73.703125 218.867188 73.328125 C 217.511719 72.25 214.839844 71.011719 211.726562 69.980469 C 222.542969 70.167969 232.65625 73.351562 241.25 78.734375 Z M 201.800781 153.699219 C 201.824219 158.3125 201.988281 163.605469 202.222656 166.507812 C 202.269531 166.953125 202.292969 167.328125 202.339844 167.679688 C 196.71875 170.394531 189.554688 172.242188 184.921875 172.992188 C 175.507812 167.722656 166.261719 157.492188 166.167969 157.375 C 166.097656 157.304688 166.027344 157.210938 165.933594 157.164062 C 165.863281 157.117188 165.816406 157.070312 165.746094 157.046875 C 164.316406 152.601562 163.125 144.195312 163.78125 136.820312 C 166.847656 135.671875 174.339844 132.300781 181.058594 129.234375 C 181.878906 129.914062 182.90625 130.734375 184.078125 131.695312 C 189.648438 136.234375 197.726562 142.8125 202.035156 145.8125 C 201.871094 147.167969 201.777344 149.511719 201.800781 153.699219 Z M 186.160156 129.164062 C 185.132812 128.324219 184.195312 127.574219 183.421875 126.941406 C 183.046875 119.402344 186.300781 104.769531 187.097656 101.398438 C 192.648438 98.402344 202.761719 94.515625 211.140625 92.152344 C 212.382812 92.921875 217.371094 95.992188 222.144531 99.621094 C 224.957031 101.75 227.71875 104.113281 229.753906 105.847656 C 231.089844 106.992188 231.886719 107.671875 232.421875 108.070312 C 232.28125 115.726562 230.175781 125.816406 228.164062 133.050781 C 227.648438 133.285156 226.921875 133.636719 225.84375 134.128906 C 223.550781 135.230469 220.085938 136.867188 216.761719 138.273438 C 212.851562 139.910156 208.964844 141.363281 206.390625 142.324219 C 205.265625 142.742188 204.539062 143 204.046875 143.210938 C 199.929688 140.378906 191.453125 133.472656 186.160156 129.164062 Z M 178.902344 79.578125 C 178.972656 79.484375 179.042969 79.367188 179.089844 79.273438 C 185.132812 75.339844 191.945312 72.507812 199.25 71.058594 C 199.484375 71.171875 199.765625 71.242188 200.046875 71.21875 C 205.570312 70.941406 212.96875 73.632812 215.871094 75.269531 C 215.191406 76.441406 214.28125 78.40625 212.945312 81.640625 C 211.9375 84.097656 210.8125 87.023438 210.300781 88.96875 C 201.777344 91.378906 191.429688 95.359375 185.648438 98.449219 C 183.1875 97.253906 177.359375 95.054688 172.066406 93.109375 C 173.003906 90.371094 175.320312 84.308594 178.902344 79.578125 Z M 172.019531 84.660156 C 170.125 88.5 168.976562 91.917969 168.578125 93.15625 C 166.285156 95.265625 161.296875 102.382812 160.691406 103.25 C 156.476562 109.289062 154.976562 112.144531 154.484375 113.621094 L 154.460938 113.621094 C 157.316406 102.265625 163.546875 92.246094 172.019531 84.660156 Z M 153.617188 117.554688 C 153.992188 117.367188 154.390625 117.203125 154.742188 117.039062 C 155.328125 119.449219 156.3125 123.335938 157.316406 126.917969 C 158.816406 132.324219 159.730469 134.949219 160.527344 136.210938 C 159.871094 143.28125 160.804688 151.78125 162.328125 157.140625 C 161.90625 157.234375 161.414062 157.351562 160.875 157.515625 C 155.679688 148.832031 152.683594 138.695312 152.683594 127.832031 C 152.683594 124.320312 153.011719 120.902344 153.617188 117.554688 Z M 138.472656 300.632812 C 130.582031 297.636719 122.691406 294.078125 115.714844 289.304688 C 104.570312 281.695312 97.875 269.636719 95.089844 256.574219 C 93.566406 249.527344 93.238281 242.222656 93.753906 234.988281 C 94.269531 227.753906 95.652344 220.566406 97.570312 213.542969 C 101.433594 199.472656 107.402344 185.984375 114.261719 173.015625 C 121.148438 160.046875 129.011719 147.589844 137.324219 135.417969 C 140.882812 130.21875 144.535156 125.089844 148.234375 119.988281 C 147.90625 122.5625 147.742188 125.160156 147.742188 127.808594 C 147.742188 135.324219 149.078125 142.558594 151.511719 149.253906 C 149.289062 152.578125 147.179688 155.878906 145.074219 159.25 C 134.070312 176.902344 123.628906 195.820312 116.605469 215.601562 C 115.222656 219.582031 113.984375 223.632812 113.023438 227.730469 C 112.0625 231.828125 111.359375 235.992188 111.242188 240.183594 C 111.710938 236.015625 112.742188 231.96875 114.007812 227.988281 C 120.398438 208.226562 131.941406 190.316406 143.738281 173.390625 C 146.128906 169.972656 148.539062 166.601562 151.019531 163.277344 C 152.425781 161.378906 153.851562 159.507812 155.28125 157.632812 C 158.699219 163.957031 163.171875 169.621094 168.460938 174.398438 C 162.75 182.449219 157.269531 190.714844 152.214844 199.238281 C 147.132812 207.828125 142.476562 216.726562 138.660156 226.019531 C 134.867188 235.316406 131.847656 245.054688 130.769531 255.191406 C 129.082031 271.324219 133.625 286.304688 147.132812 295.953125 C 151.253906 298.902344 155.703125 301.265625 160.246094 303.398438 C 169.328125 307.5625 178.832031 310.5625 188.433594 313.066406 C 191.453125 313.839844 194.496094 314.5625 197.5625 315.242188 C 184.828125 313.089844 171.878906 310.773438 159.542969 307.375 C 152.425781 305.433594 145.355469 303.234375 138.472656 300.632812 Z M 224.816406 189.683594 C 217.816406 196.613281 210.976562 203.730469 204.421875 211.082031 C 197.867188 218.433594 191.546875 226.042969 185.695312 234.027344 C 178.855469 243.390625 171.949219 253.878906 168.296875 264.953125 C 163.78125 278.625 165.933594 291.714844 177.21875 301.078125 C 181.082031 304.285156 185.414062 306.816406 189.859375 308.96875 C 193.441406 310.679688 199.53125 313.441406 204.304688 315.3125 C 199.132812 314.121094 194.003906 312.808594 188.925781 311.332031 C 179.488281 308.570312 170.171875 305.316406 161.414062 300.984375 C 157.0625 298.785156 152.824219 296.351562 149.007812 293.445312 C 136.902344 284.246094 133.320312 270.433594 135.21875 255.707031 C 136.503906 246.203125 139.664062 236.976562 143.597656 228.128906 C 147.554688 219.253906 152.355469 210.753906 157.574219 202.492188 C 162.703125 194.390625 168.25 186.546875 174.035156 178.867188 C 179.511719 182.800781 185.648438 185.867188 192.226562 187.90625 C 188.550781 192.660156 185.015625 197.457031 181.550781 202.328125 C 177.125 208.601562 172.863281 214.992188 168.882812 221.546875 C 166.894531 224.828125 164.972656 228.152344 163.148438 231.523438 C 161.320312 234.894531 159.589844 238.335938 158.019531 241.847656 C 156.453125 245.359375 155.023438 248.917969 153.898438 252.59375 C 152.800781 256.269531 151.980469 260.0625 151.910156 263.878906 C 152.308594 260.085938 153.480469 256.433594 154.859375 252.945312 C 156.265625 249.433594 157.996094 246.0625 159.847656 242.761719 C 161.695312 239.457031 163.6875 236.25 165.769531 233.113281 C 167.855469 229.953125 170.03125 226.863281 172.277344 223.84375 C 176.773438 217.757812 181.527344 211.855469 186.394531 206.097656 C 191.101562 200.570312 195.996094 195.09375 200.933594 189.894531 C 204.070312 190.386719 207.277344 190.621094 210.558594 190.621094 C 215.777344 190.621094 220.859375 189.964844 225.703125 188.773438 C 225.421875 189.101562 225.117188 189.402344 224.816406 189.683594 Z M 221.863281 184.347656 C 221.628906 184.441406 221.445312 184.558594 221.28125 184.722656 C 217.816406 185.378906 214.234375 185.726562 210.582031 185.726562 C 203.976562 185.726562 197.65625 184.605469 191.757812 182.589844 C 191.640625 182.355469 191.476562 182.144531 191.265625 182.003906 C 189.113281 180.4375 187.683594 177.769531 186.910156 176.011719 C 191.898438 175.074219 198.664062 173.203125 204.09375 170.511719 C 210.113281 172.992188 222.519531 174.375 227.695312 174.375 C 227.929688 174.375 228.164062 174.375 228.351562 174.375 C 228.910156 176.222656 229.589844 178.402344 230.175781 180.226562 C 228.375 181.539062 225.492188 182.988281 221.863281 184.347656 Z M 261.828125 154.800781 C 257.449219 163.113281 251.128906 170.207031 243.425781 175.519531 C 243.121094 175.425781 242.796875 175.425781 242.46875 175.542969 C 238.207031 176.949219 234.625 177.980469 233.054688 178.421875 C 232.515625 176.691406 231.910156 174.75 231.417969 173.109375 C 233.5 171.28125 236.660156 167.632812 238.675781 164.960938 C 240.59375 162.433594 244.785156 156.347656 246.238281 153.351562 C 249.84375 151.828125 256.046875 149.066406 261.242188 145.929688 C 262.390625 150.632812 261.78125 154.003906 261.78125 154.050781 C 261.734375 154.285156 261.757812 154.542969 261.828125 154.800781 Z M 260.660156 142.417969 C 255.882812 145.4375 249.726562 148.269531 245.816406 149.953125 C 245.136719 149.066406 243.941406 147.707031 241.882812 145.34375 L 240.3125 143.539062 C 235.070312 137.476562 232.679688 134.785156 231.394531 133.566406 C 233.429688 126.214844 235.492188 116.148438 235.679688 108.328125 C 236.425781 108.023438 237.480469 107.554688 239.097656 106.808594 C 240.78125 106.035156 242.703125 105.144531 244.667969 104.324219 C 246.074219 103.738281 247.546875 103.203125 248.882812 102.710938 C 250.078125 102.289062 250.964844 101.960938 251.644531 101.65625 C 255.71875 105.472656 261.523438 113.785156 264.007812 118.464844 C 263.960938 118.652344 263.9375 118.839844 263.9375 119.027344 C 264.472656 126.050781 261.242188 139.933594 260.660156 142.417969 Z M 253.425781 98.871094 C 252.488281 95.382812 246.65625 84.777344 243.636719 80.984375 C 243.730469 80.84375 243.847656 80.703125 243.964844 80.5625 C 255.414062 88.664062 263.796875 100.8125 267.003906 114.953125 C 266.769531 115.28125 266.511719 115.585938 266.277344 115.867188 C 263.375 110.667969 257.847656 102.78125 253.425781 98.871094 Z M 253.425781 98.871094 " fill-opacity="1" fill-rule="nonzero"/></g></svg>