<svg xmlns="http://www.w3.org/2000/svg" xmlns:xlink="http://www.w3.org/1999/xlink" width="500" zoomAndPan="magnify" viewBox="0 0 375 374.999991" height="500" preserveAspectRatio="xMidYMid meet" version="1.0"><defs><clipPath id="e3b99aef43"><path d="M 7.886719 7.886719 L 367.113281 7.886719 L 367.113281 367.113281 L 7.886719 367.113281 Z M 7.886719 7.886719 " clip-rule="nonzero"/></clipPath><clipPath id="0fd44449e3"><path d="M 187.5 7.886719 C 88.304688 7.886719 7.886719 88.304688 7.886719 187.5 C 7.886719 286.695312 88.304688 367.113281 187.5 367.113281 C 286.695312 367.113281 367.113281 286.695312 367.113281 187.5 C 367.113281 88.304688 286.695312 7.886719 187.5 7.886719 Z M 187.5 7.886719 " clip-rule="nonzero"/></clipPath><clipPath id="47337f8d54"><path d="M 0.886719 0.886719 L 360.113281 0.886719 L 360.113281 360.113281 L 0.886719 360.113281 Z M 0.886719 0.886719 " clip-rule="nonzero"/></clipPath><clipPath id="90af70310f"><path d="M 180.5 0.886719 C 81.304688 0.886719 0.886719 81.304688 0.886719 180.5 C 0.886719 279.695312 81.304688 360.113281 180.5 360.113281 C 279.695312 360.113281 360.113281 279.695312 360.113281 180.5 C 360.113281 81.304688 279.695312 0.886719 180.5 0.886719 Z M 180.5 0.886719 " clip-rule="nonzero"/></clipPath><clipPath id="50870d3c21"><rect x="0" width="361" y="0" height="361"/></clipPath><clipPath id="67710bbf85"><path d="M 82.15625 53.492188 L 190 53.492188 L 190 306 L 82.15625 306 Z M 82.15625 53.492188 " clip-rule="nonzero"/></clipPath><clipPath id="c3115029db"><path d="M 246 290 L 281.65625 290 L 281.65625 326.492188 L 246 326.492188 Z M 246 290 " clip-rule="nonzero"/></clipPath></defs><g clip-path="url(#e3b99aef43)"><g clip-path="url(#0fd44449e3)"><g transform="matrix(1, 0, 0, 1, 7, 7)"><g clip-path="url(#50870d3c21)"><g clip-path="url(#47337f8d54)"><g clip-path="url(#90af70310f)"><path fill="#293133" d="M 0.886719 0.886719 L 360.113281 0.886719 L 360.113281 360.113281 L 0.886719 360.113281 Z M 0.886719 0.886719 " fill-opacity="1" fill-rule="nonzero"/></g></g></g></g></g></g><g clip-path="url(#67710bbf85)"><path fill="#ffffff" d="M 96.621094 305.078125 C 98.703125 304.882812 104.851562 305.128906 104.851562 305.128906 C 105.691406 303.988281 104.601562 300.171875 104.601562 300.171875 C 104.601562 300.171875 104.40625 299.921875 104.257812 297.644531 C 104.109375 295.363281 104.703125 290.902344 104.703125 289.8125 C 104.703125 288.722656 106.390625 282.523438 106.390625 282.523438 C 107.476562 275.335938 111.496094 268.445312 111.496094 268.445312 C 112.984375 266.90625 116.054688 259.125 115.710938 255.753906 C 115.363281 252.382812 116.796875 246.78125 116.601562 245.515625 C 116.402344 244.253906 117.34375 243.210938 117.34375 243.210938 C 118.410156 242.492188 117.964844 240.933594 118.433594 240.636719 C 118.902344 240.335938 118.183594 239.394531 118.582031 239.296875 C 118.976562 239.195312 120.960938 233.695312 120.960938 233.695312 C 121.457031 230.421875 122.050781 229.679688 122.050781 229.679688 C 121.949219 228.289062 123.390625 224.671875 123.390625 224.671875 C 123.390625 222.636719 125.523438 217.582031 126.015625 216.9375 C 126.511719 216.292969 127.007812 215.898438 127.007812 215.898438 C 126.957031 214.707031 128.792969 212.179688 129.289062 211.1875 C 129.78125 210.199219 131.121094 205.984375 131.121094 205.984375 C 131.816406 205.191406 133.355469 201.523438 133.355469 201.523438 C 134.84375 205.539062 138.558594 208.859375 139.503906 210.246094 C 140.445312 211.636719 143.417969 217.289062 143.417969 217.289062 C 145.652344 221.652344 148.476562 231.566406 148.824219 233.003906 C 149.167969 234.441406 150.460938 238.285156 151.003906 238.855469 C 151.546875 239.425781 152.195312 240.566406 152.070312 240.910156 C 151.945312 241.257812 152.195312 242.078125 152.195312 242.078125 C 152.765625 243.539062 151.800781 243.269531 152.691406 244.457031 C 153.582031 245.644531 153.382812 247.132812 153.382812 247.132812 C 154.078125 249.414062 154.472656 253.875 154.472656 253.875 C 154.867188 263.246094 158.539062 266.21875 160.273438 269.246094 C 162.003906 272.273438 165.949219 287.6875 166.292969 288.65625 C 166.640625 289.621094 166.371094 289.871094 166.445312 289.894531 C 166.515625 289.921875 166.839844 291.976562 166.667969 293.242188 C 166.496094 294.507812 167.238281 295.917969 167.238281 295.917969 C 167.460938 296.910156 167.113281 298.148438 167.238281 299.089844 C 167.363281 300.03125 166.964844 300.925781 166.964844 300.925781 C 166.964844 300.925781 166.34375 305.164062 167.882812 305.042969 C 169.421875 304.917969 170.855469 305.117188 172.195312 304.964844 C 173.535156 304.8125 175.070312 304.992188 175.070312 304.992188 C 177.796875 305.683594 187.660156 305.191406 189.175781 305.042969 C 190.691406 304.890625 189.226562 303.777344 188.0625 303.800781 C 186.894531 303.824219 184.761719 302.363281 184.515625 301.816406 C 184.269531 301.273438 183.015625 300.738281 182.632812 300.476562 C 182.246094 300.214844 182.472656 300.070312 182.472656 300.070312 C 182.804688 300.117188 182.953125 299.363281 182.953125 299.363281 C 182.953125 299.363281 184.195312 301 184.542969 301.195312 C 184.890625 301.394531 184.789062 300.875 184.789062 300.875 C 184.019531 300.105469 183.140625 298.542969 183.140625 298.542969 C 182.210938 296.683594 177.898438 295.195312 177.898438 295.195312 C 177.898438 295.195312 177.789062 293.300781 177.160156 292.707031 C 176.535156 292.113281 176.226562 290.660156 176.226562 290.660156 C 175.558594 289.582031 175.484375 288.394531 175.484375 288.394531 C 175.261719 285.34375 174.183594 272.109375 174.183594 272.109375 C 174.480469 266.753906 173.363281 266.007812 173.402344 263.445312 C 173.441406 260.882812 171.207031 255.75 171.207031 255.75 C 171.058594 253.367188 170.726562 253.554688 170.242188 250.988281 C 169.757812 248.421875 166.523438 242.546875 166.488281 241.285156 C 166.453125 240.019531 166.300781 237.679688 165.855469 237.304688 C 165.410156 236.933594 164.441406 233.363281 164.554688 231.726562 C 164.664062 230.089844 164.070312 229.015625 164.070312 229.015625 C 163.625 226.335938 164.515625 224.664062 164.367188 224.03125 C 164.21875 223.398438 164.664062 220.277344 164.664062 220.277344 C 165.257812 216.855469 164.554688 208.378906 164.140625 204.660156 C 163.730469 200.9375 163.769531 198.625 163.769531 198.625 C 163.59375 197.632812 164.292969 197.535156 164.292969 197.535156 C 165.207031 197.0625 164.488281 196.195312 165.929688 195.402344 C 167.367188 194.609375 166.71875 194.089844 166.71875 194.089844 C 164.589844 192.476562 162.902344 189.773438 162.503906 189.378906 C 162.109375 188.984375 162.632812 188.6875 162.632812 188.6875 C 163.027344 187.746094 162.011719 186.949219 161.960938 186.554688 C 161.910156 186.15625 162.503906 185.390625 162.53125 184.578125 C 162.558594 183.765625 162.207031 182.117188 161.863281 181.296875 C 161.515625 180.476562 161.988281 180.230469 161.988281 180.230469 C 162.679688 178.347656 161.640625 177.355469 161.640625 177.355469 C 159.707031 174.976562 159.234375 170.242188 158.738281 167.9375 C 158.246094 165.632812 157.699219 166.546875 157.773438 165.433594 C 157.84375 164.316406 157.351562 162.0625 157.351562 162.0625 C 153.78125 149.324219 154.820312 141.4375 154.820312 141.4375 C 155.027344 140.597656 155.027344 139.722656 155.027344 138.847656 L 157.648438 128.363281 C 157.648438 128.070312 157.9375 127.488281 158.8125 128.65625 C 159.394531 129.527344 159.394531 130.695312 159.6875 131.859375 C 161.726562 136.226562 162.597656 140.597656 163.472656 145.546875 C 164.347656 150.789062 165.800781 155.449219 166.675781 160.691406 C 166.96875 161.566406 167.257812 162.730469 167.257812 163.605469 C 167.550781 165.644531 168.425781 167.976562 167.550781 170.011719 C 167.550781 170.304688 166.96875 170.304688 166.96875 170.597656 C 166.675781 172.34375 165.511719 173.507812 165.511719 174.964844 C 165.21875 176.421875 164.636719 177.585938 164.347656 179.042969 C 164.054688 179.917969 162.597656 178.75 162.308594 180.207031 C 162.308594 180.789062 163.472656 181.371094 164.347656 181.953125 C 164.636719 181.953125 164.929688 183.703125 166.09375 183.121094 C 167.257812 182.246094 168.425781 180.789062 169.878906 181.082031 C 170.460938 181.371094 169.878906 182.539062 169.589844 183.121094 C 168.132812 184.867188 166.09375 186.03125 164.054688 186.613281 C 163.472656 186.90625 162.308594 188.363281 163.765625 188.652344 C 164.636719 188.945312 165.511719 188.652344 166.675781 188.945312 C 169.007812 188.945312 170.753906 187.488281 172.667969 186.691406 C 172.667969 186.691406 173.007812 186.179688 173.585938 186.144531 C 174.160156 186.105469 174.332031 185.636719 174.332031 185.636719 C 174.832031 183.992188 176.289062 182.828125 176.289062 181.082031 C 176.289062 177.292969 175.707031 173.507812 177.160156 170.011719 C 176.578125 167.976562 177.160156 165.644531 176.289062 163.605469 C 177.453125 158.945312 176.871094 153.996094 176.578125 149.335938 C 175.996094 143.21875 174.832031 137.390625 172.210938 131.859375 C 171.628906 130.402344 172.210938 128.363281 171.046875 126.90625 C 171.046875 123.410156 169.589844 120.207031 167.839844 117.003906 C 167.550781 116.128906 167.257812 115.546875 167.257812 114.675781 C 167.257812 109.140625 166.09375 103.316406 162.597656 98.65625 C 158.8125 94.285156 153.277344 92.246094 148.035156 90.5 C 145.996094 90.789062 143.957031 89.917969 141.917969 89.042969 C 142.210938 86.128906 141.335938 83.507812 141.917969 80.597656 C 141.917969 79.433594 142.425781 77.542969 142.316406 76.644531 C 144.304688 77.613281 144.140625 74.027344 144.148438 73.082031 C 144.164062 71.707031 144.503906 69.488281 142.503906 69.839844 C 142.949219 67.796875 142.953125 65.507812 142.558594 63.449219 C 141.628906 60.210938 139.589844 57.589844 137.257812 55.261719 C 134.929688 53.511719 131.726562 53.511719 129.105469 54.386719 C 128.523438 54.679688 127.648438 54.96875 127.066406 55.261719 C 124.734375 57.007812 122.695312 58.171875 120.949219 60.503906 C 119.203125 63.414062 119.515625 67.75 120.265625 70.203125 C 117.613281 70.113281 118.515625 73.902344 119.464844 75.347656 C 119.804688 75.863281 120.222656 76.414062 120.78125 76.625 C 121.664062 76.960938 122.480469 77.429688 123.464844 77.574219 C 122.503906 80.175781 123.898438 83.441406 124.101562 86.074219 C 124.152344 87.296875 124.445312 88.753906 123.277344 89.628906 C 120.367188 91.375 116.871094 91.085938 113.957031 92.25 C 112.210938 93.125 111.046875 94.582031 109.296875 95.164062 C 106.09375 95.746094 103.183594 97.203125 102.015625 100.40625 L 101.144531 101.277344 C 100.269531 102.734375 99.6875 104.191406 99.105469 105.648438 C 98.230469 108.851562 97.648438 112.054688 96.773438 115.257812 C 95.902344 118.171875 93.863281 120.503906 92.988281 123.414062 C 92.40625 125.164062 92.695312 127.203125 92.113281 128.949219 C 91.242188 130.695312 90.367188 132.734375 89.492188 134.484375 L 89.492188 135.9375 C 88.617188 139.726562 87.164062 143.21875 86.582031 147.007812 C 86.289062 149.917969 85.707031 152.539062 85.414062 155.164062 C 85.414062 158.074219 84.832031 160.988281 85.125 163.898438 C 85.125 166.230469 85.996094 168.851562 83.957031 170.890625 L 83.957031 171.765625 C 84.832031 172.636719 85.125 173.800781 84.542969 174.96875 C 84.542969 175.257812 84.542969 175.550781 85.167969 175.625 C 85.164062 176.636719 84.152344 175.773438 85.167969 175.625 C 85.125 177.296875 84.832031 179.335938 84.542969 181.085938 C 84.25 183.707031 85.707031 186.328125 86.871094 188.65625 C 88.328125 190.988281 90.949219 192.152344 93.570312 193.027344 C 93.863281 193.027344 94.445312 192.441406 94.445312 191.859375 C 94.152344 191.570312 94.445312 190.988281 94.152344 190.40625 C 93.277344 187.199219 90.65625 184.578125 91.242188 181.085938 C 91.53125 180.210938 92.40625 179.335938 93.277344 179.917969 C 95.027344 181.667969 94.734375 184.871094 97.355469 185.453125 C 98.8125 185.746094 97.9375 183.996094 97.9375 183.121094 C 97.066406 180.792969 96.484375 178.460938 95.609375 176.132812 C 95.027344 174.675781 93.863281 173.511719 93.570312 171.765625 C 93.570312 171.472656 93.863281 171.179688 93.863281 170.890625 C 93.570312 169.433594 92.988281 167.6875 93.570312 166.230469 C 95.902344 160.113281 97.648438 153.707031 98.523438 147.007812 C 99.6875 146.425781 99.394531 144.96875 99.976562 144.09375 C 100.269531 143.21875 99.394531 142.054688 100.269531 141.472656 C 100.851562 141.183594 101.726562 141.765625 101.726562 140.890625 C 102.597656 136.523438 103.472656 132.445312 106.09375 128.949219 C 106.386719 128.074219 106.675781 127.203125 106.675781 126.328125 C 106.675781 126.035156 106.96875 125.746094 107.257812 125.453125 C 107.84375 129.238281 107.84375 132.734375 108.132812 136.523438 C 108.714844 140.890625 110.753906 144.386719 111.335938 148.753906 C 111.917969 154.578125 109.882812 160.113281 108.132812 165.648438 C 107.550781 167.976562 107.550781 170.308594 106.96875 172.636719 C 106.09375 174.96875 104.636719 177.296875 104.929688 179.917969 C 105.804688 179.917969 107.257812 179.628906 107.257812 180.5 C 107.84375 184.871094 106.09375 188.949219 104.054688 193.027344 C 104.054688 193.316406 103.765625 193.898438 104.347656 194.191406 C 104.347656 193.898438 104.347656 193.609375 104.636719 193.609375 C 104.929688 193.609375 105.222656 193.316406 105.511719 194.191406 C 105.511719 194.480469 105.222656 195.066406 105.222656 195.355469 C 105.222656 196.230469 106.09375 197.101562 105.804688 197.976562 C 104.929688 200.308594 104.929688 202.636719 104.636719 204.96875 C 104.347656 212.25 104.636719 219.238281 105.222656 226.519531 C 105.511719 227.976562 106.09375 229.433594 105.804688 230.890625 C 104.929688 232.929688 104.636719 234.96875 104.054688 237.007812 C 103.472656 238.753906 104.054688 240.5 103.472656 242.25 C 102.890625 244.871094 101.433594 247.492188 100.851562 250.113281 C 99.6875 253.316406 97.9375 256.230469 97.648438 259.433594 C 96.191406 267.878906 96.191406 276.324219 96.191406 284.773438 C 96.191406 286.230469 95.609375 287.683594 95.027344 289.140625 C 93.863281 291.179688 93.570312 293.800781 92.40625 295.839844 C 91.242188 297.296875 89.203125 297.585938 87.746094 299.042969 L 87.746094 299.625 C 87.746094 299.625 88.035156 299.625 88.242188 299.664062 C 87.984375 300.261719 87.007812 299.769531 88.242188 299.664062 C 87.984375 300.261719 88.566406 299.910156 88.808594 299.757812 C 89.355469 299.410156 89.84375 298.917969 90.316406 298.480469 C 90.527344 298.285156 91.320312 297.40625 91.132812 298.089844 C 90.875 299.019531 89.390625 300.136719 88.738281 300.78125 C 87.730469 301.78125 86.667969 302.824219 85.457031 303.574219 C 84.246094 304.328125 82.726562 304.21875 82.15625 305.6875 C 82.15625 305.6875 87.347656 306.148438 92.601562 305.589844 C 97.859375 305.03125 96.621094 305.09375 96.621094 305.09375 Z M 96.621094 305.078125 " fill-opacity="1" fill-rule="nonzero"/></g><g clip-path="url(#c3115029db)"><path fill="#ffffff" d="M 281.789062 308.648438 C 281.789062 309.230469 281.757812 309.816406 281.703125 310.394531 C 281.644531 310.976562 281.558594 311.554688 281.445312 312.128906 C 281.332031 312.703125 281.1875 313.269531 281.019531 313.828125 C 280.847656 314.386719 280.652344 314.9375 280.429688 315.476562 C 280.207031 316.015625 279.957031 316.542969 279.679688 317.058594 C 279.40625 317.574219 279.105469 318.078125 278.78125 318.5625 C 278.453125 319.050781 278.105469 319.519531 277.738281 319.96875 C 277.367188 320.421875 276.972656 320.855469 276.558594 321.265625 C 276.148438 321.679688 275.714844 322.074219 275.261719 322.445312 C 274.808594 322.816406 274.339844 323.164062 273.855469 323.488281 C 273.371094 323.8125 272.867188 324.113281 272.351562 324.386719 C 271.835938 324.664062 271.308594 324.914062 270.769531 325.136719 C 270.230469 325.359375 269.679688 325.558594 269.121094 325.726562 C 268.5625 325.894531 267.996094 326.039062 267.421875 326.152344 C 266.847656 326.265625 266.269531 326.351562 265.6875 326.410156 C 265.105469 326.464844 264.523438 326.496094 263.941406 326.496094 C 263.355469 326.496094 262.773438 326.464844 262.191406 326.410156 C 261.609375 326.351562 261.03125 326.265625 260.457031 326.152344 C 259.882812 326.039062 259.316406 325.894531 258.757812 325.726562 C 258.199219 325.558594 257.648438 325.359375 257.109375 325.136719 C 256.570312 324.914062 256.042969 324.664062 255.527344 324.386719 C 255.011719 324.113281 254.507812 323.8125 254.023438 323.488281 C 253.539062 323.164062 253.070312 322.816406 252.617188 322.445312 C 252.164062 322.074219 251.730469 321.679688 251.320312 321.265625 C 250.90625 320.855469 250.511719 320.421875 250.140625 319.96875 C 249.773438 319.519531 249.425781 319.050781 249.097656 318.5625 C 248.773438 318.078125 248.472656 317.574219 248.199219 317.058594 C 247.921875 316.546875 247.671875 316.015625 247.449219 315.476562 C 247.226562 314.9375 247.03125 314.386719 246.859375 313.828125 C 246.691406 313.269531 246.546875 312.703125 246.433594 312.128906 C 246.320312 311.554688 246.234375 310.976562 246.175781 310.394531 C 246.121094 309.816406 246.089844 309.230469 246.089844 308.648438 C 246.089844 308.0625 246.121094 307.480469 246.175781 306.898438 C 246.234375 306.316406 246.320312 305.738281 246.433594 305.164062 C 246.546875 304.589844 246.691406 304.023438 246.859375 303.464844 C 247.03125 302.90625 247.226562 302.355469 247.449219 301.816406 C 247.671875 301.277344 247.921875 300.75 248.199219 300.234375 C 248.472656 299.71875 248.773438 299.21875 249.097656 298.730469 C 249.425781 298.246094 249.773438 297.777344 250.140625 297.324219 C 250.511719 296.871094 250.90625 296.441406 251.320312 296.027344 C 251.730469 295.613281 252.164062 295.222656 252.617188 294.851562 C 253.070312 294.480469 253.539062 294.132812 254.023438 293.804688 C 254.507812 293.480469 255.011719 293.179688 255.527344 292.90625 C 256.042969 292.628906 256.570312 292.378906 257.109375 292.15625 C 257.648438 291.933594 258.199219 291.738281 258.757812 291.566406 C 259.316406 291.398438 259.882812 291.253906 260.457031 291.140625 C 261.03125 291.027344 261.609375 290.941406 262.191406 290.882812 C 262.773438 290.828125 263.355469 290.796875 263.941406 290.796875 C 264.523438 290.796875 265.105469 290.828125 265.6875 290.882812 C 266.269531 290.941406 266.847656 291.027344 267.421875 291.140625 C 267.996094 291.253906 268.5625 291.398438 269.121094 291.566406 C 269.679688 291.738281 270.230469 291.933594 270.769531 292.15625 C 271.308594 292.378906 271.835938 292.628906 272.351562 292.90625 C 272.867188 293.179688 273.371094 293.480469 273.855469 293.804688 C 274.339844 294.132812 274.808594 294.480469 275.261719 294.851562 C 275.714844 295.222656 276.148438 295.613281 276.558594 296.027344 C 276.972656 296.441406 277.367188 296.871094 277.738281 297.324219 C 278.105469 297.777344 278.453125 298.246094 278.78125 298.730469 C 279.105469 299.21875 279.40625 299.71875 279.679688 300.234375 C 279.957031 300.75 280.207031 301.277344 280.429688 301.816406 C 280.652344 302.355469 280.847656 302.90625 281.019531 303.464844 C 281.1875 304.023438 281.332031 304.589844 281.445312 305.164062 C 281.558594 305.738281 281.644531 306.316406 281.703125 306.898438 C 281.757812 307.480469 281.789062 308.0625 281.789062 308.648438 Z M 281.789062 308.648438 " fill-opacity="1" fill-rule="nonzero"/></g></svg>