<svg xmlns="http://www.w3.org/2000/svg" xmlns:xlink="http://www.w3.org/1999/xlink" width="500" zoomAndPan="magnify" viewBox="0 0 375 374.999991" height="500" preserveAspectRatio="xMidYMid meet" version="1.0"><defs><clipPath id="593696257d"><path d="M 7.886719 7.886719 L 367.113281 7.886719 L 367.113281 367.113281 L 7.886719 367.113281 Z M 7.886719 7.886719 " clip-rule="nonzero"/></clipPath><clipPath id="55b314112e"><path d="M 187.5 7.886719 C 88.304688 7.886719 7.886719 88.304688 7.886719 187.5 C 7.886719 286.695312 88.304688 367.113281 187.5 367.113281 C 286.695312 367.113281 367.113281 286.695312 367.113281 187.5 C 367.113281 88.304688 286.695312 7.886719 187.5 7.886719 Z M 187.5 7.886719 " clip-rule="nonzero"/></clipPath><clipPath id="f38ccfaa7c"><path d="M 0.886719 0.886719 L 360.113281 0.886719 L 360.113281 360.113281 L 0.886719 360.113281 Z M 0.886719 0.886719 " clip-rule="nonzero"/></clipPath><clipPath id="047f5ea058"><path d="M 180.5 0.886719 C 81.304688 0.886719 0.886719 81.304688 0.886719 180.5 C 0.886719 279.695312 81.304688 360.113281 180.5 360.113281 C 279.695312 360.113281 360.113281 279.695312 360.113281 180.5 C 360.113281 81.304688 279.695312 0.886719 180.5 0.886719 Z M 180.5 0.886719 " clip-rule="nonzero"/></clipPath><clipPath id="1362e609e0"><rect x="0" width="361" y="0" height="361"/></clipPath></defs><g clip-path="url(#593696257d)"><g clip-path="url(#55b314112e)"><g transform="matrix(1, 0, 0, 1, 7, 7)"><g clip-path="url(#1362e609e0)"><g clip-path="url(#f38ccfaa7c)"><g clip-path="url(#047f5ea058)"><path fill="#293133" d="M 0.886719 0.886719 L 360.113281 0.886719 L 360.113281 360.113281 L 0.886719 360.113281 Z M 0.886719 0.886719 " fill-opacity="1" fill-rule="nonzero"/></g></g></g></g></g></g><path fill="#f8fbfd" d="M 83.851562 292.886719 L 290.8125 292.886719 C 301.621094 292.886719 309.128906 281.90625 305.125 271.746094 L 270.960938 186.414062 C 269.328125 182.335938 266.019531 179.152344 261.882812 177.683594 C 260.464844 177.1875 258.910156 177.925781 258.40625 179.34375 C 257.902344 180.757812 258.648438 182.316406 260.0625 182.820312 C 262.722656 183.761719 264.855469 185.808594 265.902344 188.433594 L 272.085938 203.871094 L 227.144531 203.871094 L 225.15625 190.75 C 224.933594 189.261719 223.542969 188.261719 222.058594 188.464844 C 220.570312 188.691406 219.546875 190.078125 219.773438 191.566406 L 221.640625 203.871094 L 201.765625 203.871094 C 200.265625 203.871094 199.042969 205.09375 199.042969 206.597656 C 199.042969 208.097656 200.265625 209.320312 201.765625 209.320312 L 222.464844 209.320312 L 228.632812 250 L 146.085938 250 L 147.410156 241.125 C 147.636719 239.640625 146.609375 238.253906 145.125 238.03125 C 143.617188 237.785156 142.253906 238.828125 142.03125 240.320312 L 140.582031 250 L 84.09375 250 L 98.273438 214.640625 L 100.621094 209.320312 L 120.285156 209.320312 C 121.789062 209.320312 123.007812 208.097656 123.007812 206.597656 C 123.007812 205.09375 121.789062 203.871094 120.285156 203.871094 L 103.027344 203.871094 L 106.300781 196.464844 C 110.175781 187.808594 118.808594 182.21875 128.289062 182.21875 L 130.089844 182.21875 C 131.59375 182.21875 132.8125 181 132.8125 179.496094 C 132.8125 177.992188 131.59375 176.773438 130.089844 176.773438 L 128.289062 176.773438 C 116.664062 176.773438 106.082031 183.628906 101.328125 194.242188 L 93.976562 210.730469 L 69.5 271.757812 C 65.519531 281.878906 72.980469 292.886719 83.851562 292.886719 Z M 290.8125 287.441406 L 239.8125 287.441406 L 234.964844 255.445312 L 292.730469 255.445312 L 300.0625 273.753906 C 302.65625 280.324219 297.816406 287.441406 290.8125 287.441406 Z M 227.972656 209.320312 L 274.265625 209.320312 L 290.550781 250 L 234.136719 250 Z M 229.457031 255.445312 L 234.308594 287.441406 L 140.492188 287.441406 L 145.273438 255.445312 Z M 74.5625 273.769531 L 81.910156 255.445312 L 139.769531 255.445312 L 134.984375 287.441406 L 83.851562 287.441406 C 76.777344 287.441406 71.996094 280.292969 74.5625 273.769531 Z M 74.5625 273.769531 " fill-opacity="1" fill-rule="nonzero"/><path fill="#f8fbfd" d="M 140.074219 198.210938 C 134.371094 197.375 129.5 202.117188 130.277344 207.765625 L 132.34375 222.703125 C 132.84375 226.296875 135.519531 229.171875 139 229.859375 C 157.027344 233.417969 173.605469 230.730469 188.460938 223.027344 C 191.578125 221.414062 193.34375 217.933594 192.855469 214.371094 L 190.746094 199.175781 C 189.972656 193.566406 184.058594 190.328125 178.867188 192.585938 C 165.949219 198.1875 152.910156 200.074219 140.074219 198.210938 Z M 185.351562 199.921875 L 187.457031 215.113281 C 187.636719 216.398438 187.03125 217.632812 185.957031 218.191406 C 171.699219 225.582031 156.265625 227.710938 140.054688 224.515625 C 138.847656 224.277344 137.921875 223.25 137.738281 221.953125 L 135.671875 207.019531 C 135.382812 204.933594 137.222656 203.289062 139.289062 203.597656 C 153.136719 205.621094 167.175781 203.589844 181.03125 197.582031 C 182.976562 196.75 185.078125 197.925781 185.351562 199.921875 Z M 185.351562 199.921875 " fill-opacity="1" fill-rule="nonzero"/><path fill="#f8fbfd" d="M 139.308594 124.492188 C 139.25 125.609375 139.085938 123.027344 140.597656 134.515625 C 140.789062 135.878906 141.957031 136.867188 143.292969 136.867188 C 144.949219 136.867188 146.21875 135.40625 145.992188 133.769531 L 145.046875 126.949219 L 153.910156 125.71875 L 154.855469 132.542969 C 155.0625 134.03125 156.472656 135.078125 157.925781 134.867188 C 159.417969 134.660156 160.457031 133.285156 160.25 131.796875 C 160.199219 131.425781 158.820312 121.59375 158.90625 122.210938 C 163.53125 118.335938 166.15625 112.28125 165.273438 105.878906 C 163.894531 95.929688 154.71875 89.066406 144.867188 90.433594 C 134.980469 91.804688 128.054688 100.957031 129.417969 110.84375 C 130.269531 116.976562 134.148438 121.910156 139.308594 124.492188 Z M 145.609375 95.828125 C 152.523438 94.871094 158.921875 99.6875 159.878906 106.625 C 160.835938 113.535156 155.988281 119.9375 149.082031 120.890625 C 142.171875 121.851562 135.773438 117.003906 134.816406 110.097656 C 133.855469 103.1875 138.703125 96.785156 145.609375 95.828125 Z M 145.609375 95.828125 " fill-opacity="1" fill-rule="nonzero"/><path fill="#f8fbfd" d="M 134.195312 157.914062 C 136.121094 158.027344 138.023438 158.074219 139.917969 158.082031 C 140.839844 162.03125 142.742188 173.773438 137.707031 189.507812 C 137.140625 191.269531 138.460938 193.0625 140.300781 193.0625 C 141.453125 193.0625 142.523438 192.324219 142.890625 191.167969 C 147.972656 175.304688 146.578125 163.234375 145.464844 157.886719 C 151.40625 157.585938 157.1875 156.78125 162.769531 155.429688 C 163.140625 160.851562 165.0625 172.886719 174.292969 186.820312 C 175.117188 188.074219 176.8125 188.417969 178.066406 187.589844 C 179.320312 186.757812 179.664062 185.066406 178.832031 183.816406 C 169.484375 169.699219 168.289062 157.660156 168.15625 153.910156 C 169.398438 153.523438 170.660156 153.195312 171.882812 152.753906 C 175.558594 151.425781 177.832031 147.585938 177.273438 143.53125 C 176.550781 138.3125 171.3125 135.015625 166.347656 136.578125 C 156.1875 139.75 145.628906 141.195312 134.992188 140.917969 C 129.976562 140.660156 125.628906 145.265625 126.367188 150.578125 C 126.921875 154.597656 130.210938 157.683594 134.195312 157.914062 Z M 134.753906 146.359375 C 163.625 146.359375 167.09375 139.96875 170.484375 142.109375 C 172.574219 143.433594 172.34375 146.796875 170.03125 147.632812 C 159.078125 151.582031 147.15625 153.203125 134.511719 152.476562 C 133.117188 152.398438 131.960938 151.285156 131.761719 149.832031 C 131.511719 148.023438 132.894531 146.359375 134.753906 146.359375 Z M 134.753906 146.359375 " fill-opacity="1" fill-rule="nonzero"/><path fill="#f8fbfd" d="M 108.5625 102.421875 C 109.0625 103.304688 109.984375 103.796875 110.933594 103.796875 C 112.992188 103.796875 114.335938 101.554688 113.292969 99.726562 L 100.777344 77.769531 C 100.039062 76.460938 98.371094 76.003906 97.066406 76.753906 C 95.757812 77.496094 95.304688 79.160156 96.046875 80.464844 Z M 108.5625 102.421875 " fill-opacity="1" fill-rule="nonzero"/><path fill="#f8fbfd" d="M 83.425781 119.214844 C 83.820312 119.214844 104.582031 119.246094 104.140625 119.246094 C 105.644531 119.246094 106.859375 118.027344 106.863281 116.527344 C 106.867188 115.023438 105.644531 113.800781 104.144531 113.800781 C 103.75 113.796875 82.988281 113.765625 83.429688 113.765625 C 81.925781 113.765625 80.710938 114.984375 80.707031 116.488281 C 80.703125 117.988281 81.921875 119.210938 83.425781 119.214844 Z M 83.425781 119.214844 " fill-opacity="1" fill-rule="nonzero"/><path fill="#f8fbfd" d="M 248.691406 118.78125 L 246.847656 134.464844 C 246.660156 136.078125 247.917969 137.503906 249.554688 137.503906 C 250.917969 137.503906 252.09375 136.484375 252.257812 135.097656 L 254.101562 119.417969 C 254.273438 117.925781 253.207031 116.570312 251.714844 116.394531 C 250.199219 116.210938 248.867188 117.289062 248.691406 118.78125 Z M 248.691406 118.78125 " fill-opacity="1" fill-rule="nonzero"/><path fill="#f8fbfd" d="M 220.542969 123.421875 L 230.441406 111.121094 C 231.386719 109.949219 231.203125 108.234375 230.027344 107.292969 C 228.867188 106.355469 227.144531 106.535156 226.203125 107.707031 L 216.304688 120.007812 C 215.359375 121.179688 215.542969 122.894531 216.71875 123.839844 C 217.875 124.773438 219.601562 124.601562 220.542969 123.421875 Z M 220.542969 123.421875 " fill-opacity="1" fill-rule="nonzero"/><path fill="#f8fbfd" d="M 192.148438 162.535156 L 239.558594 182.433594 C 244.347656 184.441406 249.882812 182.183594 251.890625 177.390625 L 253.183594 174.3125 C 255.195312 169.523438 252.929688 163.992188 248.140625 161.976562 L 200.730469 142.082031 C 195.949219 140.074219 190.421875 142.300781 188.398438 147.121094 L 187.105469 150.203125 C 185.097656 154.988281 187.359375 160.523438 192.148438 162.535156 Z M 192.125 152.308594 L 193.417969 149.230469 C 194.246094 147.25 196.542969 146.230469 198.625 147.101562 L 246.035156 167 C 248.054688 167.847656 249.011719 170.183594 248.164062 172.203125 L 246.871094 175.285156 C 246.019531 177.304688 243.6875 178.25 241.664062 177.410156 L 194.253906 157.515625 C 192.234375 156.664062 191.28125 154.332031 192.125 152.308594 Z M 192.125 152.308594 " fill-opacity="1" fill-rule="nonzero"/><path fill="#f8fbfd" d="M 200.289062 136.253906 C 201.75 136.332031 203.054688 135.132812 203.105469 133.628906 C 203.167969 131.417969 205.609375 129.652344 207.910156 130.613281 C 208.460938 130.847656 216.257812 134.121094 215.761719 133.910156 C 216.132812 134.066406 250.191406 148.359375 250.5625 148.515625 C 252.78125 149.449219 253.449219 152.304688 251.800781 154.078125 C 250.769531 155.171875 250.820312 156.894531 251.917969 157.925781 C 253.007812 158.953125 254.734375 158.90625 255.765625 157.808594 C 259.972656 153.34375 258.4375 145.914062 252.667969 143.496094 C 252.066406 143.242188 230.484375 134.183594 231.34375 134.546875 L 210.015625 125.59375 C 204.265625 123.175781 197.890625 127.34375 197.660156 133.433594 C 197.609375 134.9375 198.785156 136.199219 200.289062 136.253906 Z M 200.289062 136.253906 " fill-opacity="1" fill-rule="nonzero"/><path fill="#f8fbfd" d="M 230.683594 103.035156 C 255.058594 113.035156 254.613281 113.59375 257.5 113.59375 C 260.679688 113.59375 263.765625 111.730469 265.101562 108.535156 L 265.632812 107.277344 C 267.390625 103.082031 265.410156 98.242188 261.21875 96.480469 L 237.59375 86.566406 C 233.40625 84.8125 228.554688 86.785156 226.796875 90.980469 L 226.269531 92.238281 C 224.496094 96.453125 226.492188 101.277344 230.683594 103.035156 Z M 231.289062 94.34375 C 231.585938 93.910156 231.949219 91.367188 234.40625 91.367188 C 235.449219 91.367188 234.476562 91.246094 259.113281 101.5 C 260.535156 102.097656 261.207031 103.746094 260.609375 105.167969 C 260.265625 105.800781 260.078125 107.320312 258.558594 107.9375 C 257.871094 108.21875 257.113281 108.214844 256.417969 107.929688 C 237.390625 99.542969 242.285156 101.980469 232.789062 98.011719 C 231.371094 97.417969 230.683594 95.78125 231.289062 94.34375 Z M 231.289062 94.34375 " fill-opacity="1" fill-rule="nonzero"/><path fill="#f8fbfd" d="M 235.375 78.71875 C 236.441406 78.71875 237.457031 78.085938 237.890625 77.039062 C 243.601562 63.691406 243.136719 63.613281 243.871094 63.3125 C 244.605469 63.023438 244.894531 63.609375 250.960938 65.992188 C 250.566406 67.359375 248.605469 69.78125 249.988281 73.164062 C 251.445312 76.730469 254.675781 76.890625 257.175781 78.21875 C 260.429688 79.589844 264.203125 78.0625 265.578125 74.78125 L 266.527344 72.523438 L 272.671875 75.101562 C 273.269531 75.355469 273.574219 76.078125 273.320312 76.675781 L 268.09375 89.035156 C 267.507812 90.421875 268.15625 92.019531 269.542969 92.605469 C 270.9375 93.1875 272.523438 92.535156 273.109375 91.15625 L 278.339844 78.792969 C 279.753906 75.417969 278.167969 71.503906 274.777344 70.082031 C 265.761719 66.375 266.03125 66.230469 265.0625 66.234375 C 264.003906 66.234375 262.996094 66.867188 262.5625 67.90625 L 260.558594 72.671875 C 260.351562 73.167969 259.796875 73.40625 259.28125 73.195312 L 255.554688 71.632812 C 255.0625 71.425781 254.824219 70.851562 255.035156 70.359375 L 257.035156 65.589844 C 257.617188 64.207031 256.96875 62.609375 255.578125 62.023438 L 246.695312 58.296875 C 243.484375 56.941406 239.722656 58.417969 238.339844 61.722656 L 232.855469 74.953125 C 232.113281 76.75 233.441406 78.71875 235.375 78.71875 Z M 235.375 78.71875 " fill-opacity="1" fill-rule="nonzero"/></svg>