<svg xmlns="http://www.w3.org/2000/svg" xmlns:xlink="http://www.w3.org/1999/xlink" width="500" zoomAndPan="magnify" viewBox="0 0 375 374.999991" height="500" preserveAspectRatio="xMidYMid meet" version="1.0"><defs><clipPath id="c4ccef66d9"><path d="M 7.886719 7.886719 L 367.113281 7.886719 L 367.113281 367.113281 L 7.886719 367.113281 Z M 7.886719 7.886719 " clip-rule="nonzero"/></clipPath><clipPath id="2938740736"><path d="M 187.5 7.886719 C 88.304688 7.886719 7.886719 88.304688 7.886719 187.5 C 7.886719 286.695312 88.304688 367.113281 187.5 367.113281 C 286.695312 367.113281 367.113281 286.695312 367.113281 187.5 C 367.113281 88.304688 286.695312 7.886719 187.5 7.886719 Z M 187.5 7.886719 " clip-rule="nonzero"/></clipPath><clipPath id="587fcde952"><path d="M 0.886719 0.886719 L 360.113281 0.886719 L 360.113281 360.113281 L 0.886719 360.113281 Z M 0.886719 0.886719 " clip-rule="nonzero"/></clipPath><clipPath id="0dbb1a4f12"><path d="M 180.5 0.886719 C 81.304688 0.886719 0.886719 81.304688 0.886719 180.5 C 0.886719 279.695312 81.304688 360.113281 180.5 360.113281 C 279.695312 360.113281 360.113281 279.695312 360.113281 180.5 C 360.113281 81.304688 279.695312 0.886719 180.5 0.886719 Z M 180.5 0.886719 " clip-rule="nonzero"/></clipPath><clipPath id="218c2bc104"><rect x="0" width="361" y="0" height="361"/></clipPath><clipPath id="54549ab20e"><path d="M 52 113 L 284 113 L 284 241 L 52 241 Z M 52 113 " clip-rule="nonzero"/></clipPath><clipPath id="f7237dce27"><path d="M 26.914062 133.347656 L 234.410156 58.742188 L 293.792969 223.890625 L 86.296875 298.496094 Z M 26.914062 133.347656 " clip-rule="nonzero"/></clipPath><clipPath id="57b9a44026"><path d="M 26.914062 133.347656 L 234.410156 58.742188 L 293.792969 223.890625 L 86.296875 298.496094 Z M 26.914062 133.347656 " clip-rule="nonzero"/></clipPath><clipPath id="2ded7496b0"><path d="M 205 179 L 307 179 L 307 307 L 205 307 Z M 205 179 " clip-rule="nonzero"/></clipPath><clipPath id="79765778e8"><path d="M 318.570312 281.214844 L 278.867188 317.8125 L 177.203125 207.515625 L 216.910156 170.917969 Z M 318.570312 281.214844 " clip-rule="nonzero"/></clipPath><clipPath id="db424b84ec"><path d="M 318.570312 281.214844 L 278.867188 317.8125 L 177.203125 207.515625 L 216.910156 170.917969 Z M 318.570312 281.214844 " clip-rule="nonzero"/></clipPath></defs><g clip-path="url(#c4ccef66d9)"><g clip-path="url(#2938740736)"><g transform="matrix(1, 0, 0, 1, 7, 7)"><g clip-path="url(#218c2bc104)"><g clip-path="url(#587fcde952)"><g clip-path="url(#0dbb1a4f12)"><path fill="#293133" d="M 0.886719 0.886719 L 360.113281 0.886719 L 360.113281 360.113281 L 0.886719 360.113281 Z M 0.886719 0.886719 " fill-opacity="1" fill-rule="nonzero"/></g></g></g></g></g></g><g clip-path="url(#54549ab20e)"><g clip-path="url(#f7237dce27)"><g clip-path="url(#57b9a44026)"><path fill="#f8fbfd" d="M 262.492188 216.003906 L 260.097656 217.15625 L 260.054688 225.933594 C 260.050781 226.53125 259.742188 226.925781 259.5625 227.109375 C 259.375 227.292969 258.980469 227.601562 258.363281 227.597656 C 257.765625 227.59375 257.371094 227.285156 257.1875 227.105469 C 257.003906 226.921875 256.699219 226.519531 256.703125 225.914062 L 256.730469 218.355469 L 251.648438 219.355469 C 247.191406 220.234375 243.238281 220.632812 239.183594 220.617188 C 238.203125 220.617188 237.132812 220.558594 236.058594 220.503906 L 231.09375 220.246094 L 231.0625 230.308594 C 231.058594 230.910156 230.746094 231.3125 230.5625 231.496094 C 230.375 231.679688 229.980469 231.988281 229.378906 231.988281 C 228.449219 231.980469 227.699219 231.222656 227.703125 230.296875 L 227.738281 219.824219 L 224.054688 219.316406 C 218.988281 218.625 213.117188 217.652344 206.105469 216.351562 L 201.101562 215.421875 L 201.066406 225.28125 C 201.0625 225.882812 200.753906 226.28125 200.570312 226.464844 C 200.382812 226.648438 199.980469 226.957031 199.375 226.953125 C 198.773438 226.949219 198.378906 226.640625 198.199219 226.460938 C 198.015625 226.273438 197.707031 225.875 197.707031 225.273438 L 197.742188 214.757812 L 190.953125 213.421875 C 166.621094 208.632812 143.636719 204.109375 132.050781 206.972656 C 120.933594 209.714844 109.613281 210.378906 102.078125 210.453125 L 97.886719 210.492188 L 97.859375 219.601562 C 97.855469 220.199219 97.546875 220.597656 97.363281 220.78125 C 97.175781 220.964844 96.777344 221.273438 96.164062 221.269531 C 95.242188 221.265625 94.492188 220.507812 94.492188 219.589844 L 94.546875 210.417969 L 90.589844 210.125 C 87.125 209.867188 83.90625 209.464844 81.027344 208.929688 L 76.019531 207.996094 L 75.996094 215.148438 C 75.992188 216.074219 75.238281 216.824219 74.324219 216.820312 C 73.390625 216.816406 72.636719 216.0625 72.640625 215.136719 L 72.667969 206.589844 L 70.546875 205.359375 C 60.449219 199.484375 60.738281 188.433594 60.988281 178.683594 C 61.019531 177.527344 61.050781 176.417969 61.058594 175.359375 C 61.253906 152.867188 69.472656 134.957031 73.09375 128.132812 C 74.558594 128.984375 76.152344 130.414062 76.5625 132.707031 C 76.601562 132.929688 76.585938 133.617188 76.570312 134.117188 C 76.371094 142.488281 79.253906 151.300781 101.496094 159.046875 C 130.324219 169.082031 146.867188 149.644531 147.558594 148.808594 L 150.019531 145.84375 L 147.304688 143.109375 C 142.851562 138.621094 140.546875 134.726562 140.820312 132.140625 C 141.109375 129.402344 144.640625 127.085938 147.753906 125.042969 C 149.433594 123.945312 151.027344 122.898438 152.316406 121.699219 C 157.027344 122.117188 172.136719 137.398438 183.230469 148.621094 L 187.65625 153.089844 C 198.0625 163.5625 221.726562 174.921875 242.605469 184.941406 C 255.890625 191.316406 272.316406 199.203125 275.144531 202.660156 C 274.734375 205.976562 271.210938 211.8125 262.492188 216.003906 Z M 246.277344 177.289062 C 227.023438 168.042969 203.058594 156.542969 193.683594 147.105469 L 189.269531 142.648438 C 170.699219 123.863281 159.8125 113.234375 152.085938 113.199219 C 149.972656 113.1875 148.097656 113.933594 146.65625 115.363281 C 145.921875 116.09375 144.546875 116.992188 143.097656 117.941406 C 138.871094 120.714844 133.082031 124.507812 132.375 131.257812 C 131.902344 135.769531 133.863281 140.59375 138.359375 145.914062 C 133.382812 150.007812 121.605469 157.054688 104.289062 151.027344 C 84.824219 144.25 84.96875 138.273438 85.0625 134.320312 C 85.085938 133.308594 85.109375 132.265625 84.921875 131.207031 C 83.457031 123.066406 76.132812 119.515625 72.035156 118.699219 L 69.195312 118.136719 L 67.632812 120.574219 C 67.027344 121.515625 52.84375 144 52.566406 175.28125 C 52.554688 176.292969 52.53125 177.359375 52.5 178.460938 C 52.246094 188.21875 51.875 202.707031 64.160156 211.34375 L 64.148438 215.101562 C 64.125 220.695312 68.660156 225.273438 74.277344 225.3125 C 78.898438 225.328125 82.832031 222.238281 84.078125 218 C 84.710938 218.082031 85.355469 218.160156 86.007812 218.230469 L 86.003906 219.5625 C 85.996094 225.171875 90.546875 229.75 96.136719 229.761719 C 98.847656 229.773438 101.410156 228.730469 103.339844 226.808594 C 105.269531 224.894531 106.339844 222.347656 106.351562 219.628906 L 106.351562 218.847656 C 114.046875 218.574219 124.105469 217.679688 134.085938 215.21875 C 143.835938 212.808594 166.902344 217.34375 189.230469 221.738281 L 189.21875 225.246094 C 189.210938 227.960938 190.261719 230.515625 192.171875 232.441406 C 194.085938 234.371094 196.636719 235.4375 199.34375 235.445312 C 202.058594 235.457031 204.617188 234.410156 206.546875 232.492188 C 208.410156 230.648438 209.46875 228.210938 209.554688 225.609375 C 213.054688 226.226562 216.261719 226.757812 219.222656 227.203125 L 219.210938 230.269531 C 219.191406 235.875 223.738281 240.453125 229.339844 240.476562 C 232.054688 240.492188 234.617188 239.4375 236.546875 237.519531 C 238.472656 235.605469 239.542969 233.054688 239.550781 230.339844 L 239.554688 229.109375 C 242.535156 229.105469 245.46875 228.902344 248.535156 228.484375 C 248.980469 230.207031 249.875 231.789062 251.164062 233.085938 C 253.078125 235.019531 255.628906 236.082031 258.339844 236.089844 C 259.546875 236.09375 260.722656 235.890625 261.824219 235.492188 C 263.203125 234.996094 264.472656 234.199219 265.542969 233.132812 C 267.472656 231.21875 268.539062 228.671875 268.546875 225.964844 L 268.5625 222.414062 C 277.796875 217.253906 283.648438 209.472656 283.679688 202.082031 L 283.679688 202.074219 C 283.703125 195.777344 274.5625 190.863281 246.277344 177.289062 " fill-opacity="1" fill-rule="nonzero"/></g></g></g><g clip-path="url(#2ded7496b0)"><g clip-path="url(#79765778e8)"><g clip-path="url(#db424b84ec)"><path fill="#f8fbfd" d="M 303.875 292.914062 L 272.886719 305.726562 C 270.378906 306.761719 267.507812 305.570312 266.46875 303.0625 C 265.433594 300.554688 266.625 297.683594 269.132812 296.648438 L 289.796875 288.101562 C 262.097656 279.875 243.230469 267.328125 230.609375 253.625 C 215.769531 237.53125 209.652344 220.011719 207.289062 206.597656 C 204.917969 193.167969 206.238281 183.773438 206.285156 183.410156 C 206.667969 180.726562 209.15625 178.859375 211.839844 179.242188 C 213.003906 179.40625 214.015625 179.96875 214.757812 180.773438 C 215.722656 181.820312 216.226562 183.277344 216.011719 184.796875 L 216.007812 184.796875 C 216.007812 184.796875 216.007812 184.796875 216.007812 184.832031 C 215.914062 185.527344 214.902344 194.164062 217.167969 206.03125 C 219.445312 217.910156 224.929688 232.964844 237.832031 246.964844 C 249.210938 259.300781 266.425781 270.9375 292.816406 278.75 L 284.582031 258.371094 C 283.570312 255.855469 284.785156 252.992188 287.296875 251.972656 C 289.25 251.1875 291.40625 251.742188 292.753906 253.203125 C 293.140625 253.625 293.460938 254.125 293.691406 254.691406 L 306.550781 286.539062 C 307.5625 289.039062 306.363281 291.882812 303.875 292.914062 Z M 303.875 292.914062 " fill-opacity="1" fill-rule="nonzero"/></g></g></g></svg>