<svg xmlns="http://www.w3.org/2000/svg" xmlns:xlink="http://www.w3.org/1999/xlink" width="500" zoomAndPan="magnify" viewBox="0 0 375 374.999991" height="500" preserveAspectRatio="xMidYMid meet" version="1.0"><defs><clipPath id="a6f3a74ea7"><path d="M 7.886719 7.886719 L 367.113281 7.886719 L 367.113281 367.113281 L 7.886719 367.113281 Z M 7.886719 7.886719 " clip-rule="nonzero"/></clipPath><clipPath id="c81a93591a"><path d="M 187.5 7.886719 C 88.304688 7.886719 7.886719 88.304688 7.886719 187.5 C 7.886719 286.695312 88.304688 367.113281 187.5 367.113281 C 286.695312 367.113281 367.113281 286.695312 367.113281 187.5 C 367.113281 88.304688 286.695312 7.886719 187.5 7.886719 Z M 187.5 7.886719 " clip-rule="nonzero"/></clipPath><clipPath id="2eb69ef840"><path d="M 0.886719 0.886719 L 360.113281 0.886719 L 360.113281 360.113281 L 0.886719 360.113281 Z M 0.886719 0.886719 " clip-rule="nonzero"/></clipPath><clipPath id="6532c9f92f"><path d="M 180.5 0.886719 C 81.304688 0.886719 0.886719 81.304688 0.886719 180.5 C 0.886719 279.695312 81.304688 360.113281 180.5 360.113281 C 279.695312 360.113281 360.113281 279.695312 360.113281 180.5 C 360.113281 81.304688 279.695312 0.886719 180.5 0.886719 Z M 180.5 0.886719 " clip-rule="nonzero"/></clipPath><clipPath id="c109afe0d9"><rect x="0" width="361" y="0" height="361"/></clipPath><clipPath id="23e9f27b44"><path d="M 91.859375 53.847656 L 289.109375 53.847656 L 289.109375 326 L 91.859375 326 Z M 91.859375 53.847656 " clip-rule="nonzero"/></clipPath></defs><g clip-path="url(#a6f3a74ea7)"><g clip-path="url(#c81a93591a)"><g transform="matrix(1, 0, 0, 1, 7, 7)"><g clip-path="url(#c109afe0d9)"><g clip-path="url(#2eb69ef840)"><g clip-path="url(#6532c9f92f)"><path fill="#293133" d="M 0.886719 0.886719 L 360.113281 0.886719 L 360.113281 360.113281 L 0.886719 360.113281 Z M 0.886719 0.886719 " fill-opacity="1" fill-rule="nonzero"/></g></g></g></g></g></g><g clip-path="url(#23e9f27b44)"><path fill="#f8fbfd" d="M 220.382812 237.976562 C 220.808594 237.710938 221.3125 237.554688 221.855469 237.554688 L 245.707031 237.554688 L 245.707031 218.566406 C 245.707031 217.035156 246.949219 215.792969 248.480469 215.792969 C 250.015625 215.792969 251.253906 217.035156 251.253906 218.566406 L 251.253906 237.554688 L 283.773438 237.554688 L 283.734375 221.898438 C 283.6875 211.628906 281.226562 202.105469 276.613281 193.785156 C 272 185.460938 265.21875 178.328125 256.527344 172.84375 L 231.78125 157.226562 C 227.042969 161.34375 221.070312 164.738281 214.261719 167.144531 C 207 169.710938 198.777344 171.160156 190.078125 171.160156 C 181.550781 171.160156 173.46875 169.761719 166.292969 167.277344 C 159.5625 164.949219 153.640625 161.664062 148.902344 157.683594 L 138.984375 163.941406 Z M 289.300781 239.519531 C 289.378906 239.773438 289.421875 240.046875 289.421875 240.328125 C 289.421875 240.605469 289.382812 240.875 289.304688 241.128906 L 289.375 271.101562 L 289.386719 271.101562 L 289.386719 271.144531 C 289.386719 276.378906 287.292969 281.09375 283.882812 284.511719 C 280.511719 287.890625 275.855469 289.988281 270.671875 290.039062 C 270.617188 290.042969 270.566406 290.046875 270.511719 290.046875 L 270.511719 290.054688 L 250.699219 290.054688 L 250.699219 298.757812 C 250.699219 301.746094 249.484375 304.457031 247.519531 306.421875 C 245.558594 308.382812 242.84375 309.601562 239.859375 309.601562 L 137.222656 309.601562 C 136.078125 313.160156 134.097656 316.347656 131.515625 318.929688 C 127.308594 323.132812 121.503906 325.742188 115.109375 325.742188 L 115.09375 325.742188 C 111.914062 325.742188 108.933594 325.164062 106.167969 324.015625 C 103.417969 322.875 100.910156 321.167969 98.652344 318.90625 C 96.40625 316.652344 94.710938 314.136719 93.574219 311.375 C 92.441406 308.621094 91.875 305.640625 91.886719 302.457031 L 92.148438 221.875 C 92.199219 210.65625 94.898438 200.226562 99.960938 191.097656 C 102.304688 186.875 105.152344 182.933594 108.472656 179.324219 C 108.5 179.289062 108.53125 179.253906 108.566406 179.222656 C 112.402344 175.070312 116.875 171.355469 121.933594 168.164062 L 132.839844 161.28125 C 132.917969 161.222656 133 161.171875 133.085938 161.125 L 147.609375 151.957031 C 147.675781 151.910156 147.742188 151.871094 147.808594 151.832031 L 159.367188 144.535156 C 157.683594 143.230469 156.082031 141.820312 154.578125 140.316406 C 145.421875 131.160156 139.757812 118.507812 139.757812 104.535156 C 139.757812 90.5625 145.421875 77.914062 154.578125 68.757812 C 163.734375 59.597656 176.386719 53.933594 190.359375 53.933594 C 204.332031 53.933594 216.980469 59.597656 226.136719 68.753906 C 235.296875 77.914062 240.960938 90.5625 240.960938 104.535156 C 240.960938 118.507812 235.296875 131.160156 226.136719 140.316406 C 224.726562 141.726562 223.230469 143.058594 221.660156 144.296875 L 232.886719 151.382812 C 232.929688 151.40625 232.96875 151.433594 233.011719 151.460938 L 259.476562 168.164062 C 268.964844 174.152344 276.382812 181.964844 281.445312 191.097656 C 286.507812 200.226562 289.207031 210.65625 289.261719 221.875 Z M 283.785156 243.101562 L 226.019531 243.101562 L 271.507812 284.476562 C 274.816406 284.230469 277.773438 282.804688 279.960938 280.609375 C 282.363281 278.203125 283.839844 274.863281 283.839844 271.144531 L 283.839844 271.101562 L 283.851562 271.101562 Z M 263.308594 284.507812 L 214.46875 284.507812 L 114.402344 181.136719 C 117.5 178.070312 121 175.292969 124.878906 172.84375 L 134.128906 167.007812 Z M 206.769531 284.507812 L 166.941406 243.363281 C 166.832031 243.398438 166.714844 243.425781 166.597656 243.449219 C 159.273438 244.785156 154.585938 249.878906 152.527344 256.03125 C 151.484375 259.140625 151.109375 262.53125 151.390625 265.871094 C 151.667969 269.179688 152.601562 272.40625 154.1875 275.226562 C 157.210938 280.609375 162.707031 284.507812 170.664062 284.507812 Z M 162.507812 238.78125 C 154.707031 241.261719 149.640625 247.238281 147.28125 254.277344 C 145.996094 258.125 145.523438 262.277344 145.863281 266.324219 C 146.207031 270.402344 147.375 274.410156 149.355469 277.933594 C 153.304688 284.964844 160.421875 290.054688 170.664062 290.054688 L 245.152344 290.054688 L 245.152344 298.757812 C 245.152344 300.214844 244.558594 301.539062 243.597656 302.5 C 242.636719 303.460938 241.3125 304.054688 239.859375 304.054688 L 138.277344 304.054688 C 138.308594 303.550781 138.328125 303.039062 138.328125 302.523438 L 138.328125 240.988281 C 138.328125 239.457031 137.085938 238.214844 135.554688 238.214844 C 134.023438 238.214844 132.78125 239.457031 132.78125 240.988281 L 132.78125 302.523438 C 132.78125 307.386719 130.796875 311.804688 127.59375 315.007812 C 124.390625 318.210938 119.972656 320.195312 115.109375 320.195312 L 115.09375 320.195312 C 112.632812 320.195312 110.363281 319.761719 108.292969 318.902344 C 106.210938 318.039062 104.300781 316.738281 102.574219 315.007812 C 100.839844 313.265625 99.542969 311.351562 98.6875 309.273438 C 97.832031 307.1875 97.40625 304.914062 97.414062 302.457031 L 97.675781 221.898438 C 97.722656 211.628906 100.179688 202.101562 104.792969 193.785156 C 106.46875 190.765625 108.425781 187.90625 110.65625 185.222656 Z M 216.734375 147.726562 L 226.863281 154.121094 C 222.867188 157.304688 217.96875 159.964844 212.421875 161.921875 C 205.746094 164.28125 198.148438 165.613281 190.078125 165.613281 C 182.132812 165.613281 174.664062 164.332031 168.089844 162.054688 C 162.660156 160.175781 157.832031 157.625 153.847656 154.558594 L 164.335938 147.941406 C 171.9375 152.511719 180.839844 155.136719 190.359375 155.136719 C 200.023438 155.136719 209.054688 152.425781 216.734375 147.726562 Z M 222.21875 72.679688 C 214.0625 64.523438 202.800781 59.480469 190.359375 59.480469 C 177.917969 59.480469 166.652344 64.523438 158.5 72.679688 C 150.347656 80.832031 145.304688 92.09375 145.304688 104.535156 C 145.304688 116.976562 150.347656 128.242188 158.5 136.394531 C 166.652344 144.546875 177.917969 149.589844 190.359375 149.589844 C 202.800781 149.589844 214.0625 144.546875 222.21875 136.394531 C 230.371094 128.242188 235.414062 116.976562 235.414062 104.535156 C 235.414062 92.09375 230.371094 80.832031 222.21875 72.679688 Z M 222.21875 72.679688 " fill-opacity="1" fill-rule="evenodd"/></g></svg>