<svg xmlns="http://www.w3.org/2000/svg" xmlns:xlink="http://www.w3.org/1999/xlink" width="500" zoomAndPan="magnify" viewBox="0 0 375 374.999991" height="500" preserveAspectRatio="xMidYMid meet" version="1.0"><defs><clipPath id="04558efa05"><path d="M 7.886719 7.886719 L 367.113281 7.886719 L 367.113281 367.113281 L 7.886719 367.113281 Z M 7.886719 7.886719 " clip-rule="nonzero"/></clipPath><clipPath id="f0b3a12f8a"><path d="M 187.5 7.886719 C 88.304688 7.886719 7.886719 88.304688 7.886719 187.5 C 7.886719 286.695312 88.304688 367.113281 187.5 367.113281 C 286.695312 367.113281 367.113281 286.695312 367.113281 187.5 C 367.113281 88.304688 286.695312 7.886719 187.5 7.886719 Z M 187.5 7.886719 " clip-rule="nonzero"/></clipPath><clipPath id="79a67ed940"><path d="M 0.886719 0.886719 L 360.113281 0.886719 L 360.113281 360.113281 L 0.886719 360.113281 Z M 0.886719 0.886719 " clip-rule="nonzero"/></clipPath><clipPath id="bb591ac67f"><path d="M 180.5 0.886719 C 81.304688 0.886719 0.886719 81.304688 0.886719 180.5 C 0.886719 279.695312 81.304688 360.113281 180.5 360.113281 C 279.695312 360.113281 360.113281 279.695312 360.113281 180.5 C 360.113281 81.304688 279.695312 0.886719 180.5 0.886719 Z M 180.5 0.886719 " clip-rule="nonzero"/></clipPath><clipPath id="2f51c87ed4"><rect x="0" width="361" y="0" height="361"/></clipPath><clipPath id="2574324ed8"><path d="M 106 82.71875 L 313.976562 82.71875 L 313.976562 199 L 106 199 Z M 106 82.71875 " clip-rule="nonzero"/></clipPath><clipPath id="4135170891"><path d="M 65 265 L 110 265 L 110 303.96875 L 65 303.96875 Z M 65 265 " clip-rule="nonzero"/></clipPath></defs><g clip-path="url(#04558efa05)"><g clip-path="url(#f0b3a12f8a)"><g transform="matrix(1, 0, 0, 1, 7, 7)"><g clip-path="url(#2f51c87ed4)"><g clip-path="url(#79a67ed940)"><g clip-path="url(#bb591ac67f)"><path fill="#293133" d="M 0.886719 0.886719 L 360.113281 0.886719 L 360.113281 360.113281 L 0.886719 360.113281 Z M 0.886719 0.886719 " fill-opacity="1" fill-rule="nonzero"/></g></g></g></g></g></g><path fill="#f8fbfd" d="M 130.1875 159.0625 L 138.527344 167.402344 L 130.1875 175.738281 L 123.933594 169.484375 C 124.0625 169.941406 124.171875 170.40625 124.269531 170.875 L 129.660156 176.269531 L 122.453125 183.476562 C 121.84375 184.621094 121.125 185.695312 120.304688 186.679688 L 121.320312 185.664062 L 125.410156 189.753906 L 126.46875 189.753906 L 121.847656 185.132812 L 130.1875 176.796875 L 138.527344 185.132812 L 133.910156 189.753906 L 134.964844 189.753906 L 139.054688 185.664062 L 143.144531 189.753906 L 144.199219 189.753906 L 139.582031 185.132812 L 147.921875 176.796875 L 156.261719 185.132812 L 151.640625 189.753906 L 152.699219 189.753906 L 156.789062 185.664062 L 160.878906 189.753906 L 161.933594 189.753906 L 157.316406 185.132812 L 165.65625 176.796875 L 173.992188 185.132812 L 169.375 189.753906 L 170.429688 189.753906 L 174.519531 185.664062 L 178.609375 189.753906 L 179.667969 189.753906 L 175.050781 185.132812 L 181.941406 178.242188 L 181.941406 177.460938 C 181.941406 177.363281 181.949219 177.269531 181.953125 177.175781 L 174.523438 184.605469 L 166.183594 176.269531 L 174.523438 167.929688 L 182.195312 175.605469 C 182.269531 175.335938 182.359375 175.074219 182.464844 174.816406 L 175.050781 167.402344 L 177.722656 164.730469 C 177.511719 164.59375 177.3125 164.4375 177.121094 164.273438 L 174.523438 166.875 L 166.183594 158.535156 L 174.523438 150.195312 L 179.300781 154.976562 C 179.59375 154.898438 179.898438 154.851562 180.207031 154.824219 L 175.050781 149.667969 L 183.386719 141.332031 L 190.121094 148.0625 C 190.203125 147.792969 190.285156 147.523438 190.375 147.261719 L 183.917969 140.800781 L 192.253906 132.464844 L 198.089844 138.296875 C 198.347656 138.1875 198.601562 138.089844 198.847656 138 L 192.785156 131.9375 L 199.683594 125.035156 C 200.019531 124.109375 200.472656 123.242188 201.03125 122.449219 L 192.785156 114.203125 L 201.121094 105.863281 L 209.460938 114.203125 L 204.195312 119.464844 C 204.839844 119.0625 205.527344 118.726562 206.253906 118.464844 L 209.988281 114.726562 L 213.726562 118.464844 C 214.449219 118.726562 215.136719 119.0625 215.78125 119.464844 L 210.515625 114.199219 L 218.855469 105.863281 L 227.195312 114.199219 L 218.945312 122.449219 C 219.503906 123.238281 219.957031 124.109375 220.296875 125.035156 L 227.195312 131.933594 L 221.128906 138 C 221.375 138.085938 221.628906 138.1875 221.886719 138.296875 L 227.722656 132.460938 L 236.0625 140.800781 L 229.601562 147.261719 C 229.691406 147.523438 229.773438 147.789062 229.855469 148.0625 L 236.589844 141.328125 L 244.925781 149.667969 L 239.769531 154.824219 C 240.082031 154.847656 240.382812 154.898438 240.675781 154.976562 L 245.453125 150.195312 L 253.792969 158.535156 L 245.453125 166.875 L 242.855469 164.273438 C 242.664062 164.4375 242.464844 164.589844 242.253906 164.726562 L 244.925781 167.402344 L 237.511719 174.816406 C 237.617188 175.070312 237.707031 175.335938 237.78125 175.601562 L 245.453125 167.929688 L 253.792969 176.265625 L 245.453125 184.605469 L 238.023438 177.175781 C 238.027344 177.269531 238.035156 177.363281 238.035156 177.457031 L 238.035156 178.242188 L 244.925781 185.132812 L 240.308594 189.75 L 241.363281 189.75 L 245.453125 185.660156 L 249.542969 189.75 L 250.601562 189.75 L 245.980469 185.132812 L 254.320312 176.796875 L 262.660156 185.132812 L 258.042969 189.75 L 259.097656 189.75 L 263.1875 185.660156 L 267.277344 189.75 L 268.332031 189.75 L 263.714844 185.132812 L 272.054688 176.796875 L 280.390625 185.132812 L 275.773438 189.75 L 276.832031 189.75 L 280.921875 185.660156 L 285.011719 189.75 L 286.066406 189.75 L 281.449219 185.132812 L 289.789062 176.796875 L 298.125 185.132812 L 293.507812 189.75 L 294.566406 189.75 L 298.65625 185.660156 L 302.746094 189.75 L 303.804688 189.75 L 299.183594 185.132812 L 304.980469 179.339844 L 304.980469 178.285156 L 298.65625 184.605469 L 290.320312 176.265625 L 298.65625 167.929688 L 304.980469 174.25 L 304.980469 173.195312 L 299.183594 167.402344 L 304.980469 161.605469 L 304.980469 160.550781 L 298.65625 166.871094 L 290.320312 158.535156 L 298.65625 150.195312 L 304.980469 156.515625 L 304.980469 155.460938 L 299.183594 149.667969 L 304.980469 143.875 L 304.980469 142.816406 L 298.65625 149.140625 L 290.320312 140.800781 L 298.65625 132.460938 L 304.980469 138.785156 L 304.980469 137.726562 L 299.183594 131.933594 L 304.980469 126.140625 L 304.980469 125.085938 L 298.65625 131.40625 L 290.320312 123.066406 L 298.65625 114.726562 L 304.980469 121.050781 L 304.980469 119.992188 L 299.183594 114.199219 L 304.980469 108.40625 L 304.980469 107.351562 L 298.65625 113.671875 L 290.320312 105.332031 L 298.65625 96.996094 L 304.980469 103.316406 L 304.980469 102.261719 L 299.183594 96.464844 L 304.347656 91.304688 L 303.292969 91.304688 L 298.65625 95.9375 L 294.023438 91.304688 L 292.964844 91.304688 L 298.128906 96.464844 L 289.789062 104.804688 L 281.453125 96.464844 L 286.617188 91.304688 L 285.558594 91.304688 L 280.925781 95.9375 L 276.289062 91.304688 L 275.234375 91.304688 L 280.394531 96.464844 L 272.058594 104.804688 L 263.71875 96.464844 L 268.882812 91.304688 L 267.828125 91.304688 L 263.191406 95.9375 L 258.554688 91.304688 L 257.5 91.304688 L 262.664062 96.464844 L 254.324219 104.804688 L 245.984375 96.464844 L 251.148438 91.304688 L 250.09375 91.304688 L 245.457031 95.9375 L 240.820312 91.304688 L 239.765625 91.304688 L 244.929688 96.464844 L 236.589844 104.804688 L 228.25 96.464844 L 233.414062 91.304688 L 232.359375 91.304688 L 227.722656 95.9375 L 223.085938 91.304688 L 222.03125 91.304688 L 227.195312 96.464844 L 218.855469 104.804688 L 210.515625 96.464844 L 215.679688 91.304688 L 214.625 91.304688 L 209.988281 95.9375 L 205.355469 91.304688 L 204.300781 91.304688 L 209.460938 96.464844 L 201.125 104.804688 L 192.785156 96.464844 L 197.949219 91.304688 L 196.890625 91.304688 L 192.257812 95.9375 L 187.621094 91.304688 L 186.5625 91.304688 L 191.726562 96.464844 L 183.390625 104.804688 L 175.050781 96.464844 L 180.214844 91.304688 L 179.15625 91.304688 L 174.523438 95.9375 L 169.886719 91.304688 L 168.832031 91.304688 L 173.996094 96.464844 L 165.65625 104.804688 L 157.316406 96.464844 L 162.480469 91.304688 L 161.425781 91.304688 L 156.789062 95.9375 L 152.152344 91.304688 L 151.097656 91.304688 L 156.261719 96.464844 L 147.921875 104.804688 L 139.582031 96.464844 L 144.746094 91.304688 L 143.691406 91.304688 L 139.054688 95.9375 L 134.421875 91.304688 L 133.363281 91.304688 L 138.527344 96.464844 L 130.1875 104.804688 L 121.847656 96.464844 L 127.011719 91.304688 L 125.957031 91.304688 L 121.320312 95.9375 L 116.6875 91.304688 L 115.628906 91.304688 L 120.792969 96.464844 L 115 102.261719 L 115 103.316406 L 121.320312 96.996094 L 129.660156 105.332031 L 121.320312 113.671875 L 115 107.351562 L 115 108.40625 L 120.792969 114.199219 L 115 119.996094 L 115 121.050781 L 121.320312 114.726562 L 129.660156 123.066406 L 121.320312 131.40625 L 115 125.085938 L 115 126.140625 L 120.792969 131.933594 L 115 137.726562 L 115 138.785156 L 121.320312 132.460938 L 129.660156 140.800781 L 121.320312 149.140625 L 115 142.816406 L 115 143.875 L 120.792969 149.667969 L 115 155.460938 L 115 156.515625 L 121.320312 150.195312 L 129.660156 158.535156 L 122.421875 165.769531 C 122.546875 166.003906 122.664062 166.234375 122.78125 166.472656 Z M 219.382812 123.066406 L 227.722656 114.726562 L 236.0625 123.066406 L 227.722656 131.40625 Z M 228.25 131.933594 L 236.589844 123.59375 L 244.929688 131.933594 L 236.589844 140.273438 Z M 271.53125 158.535156 L 263.191406 166.875 L 254.851562 158.535156 L 263.191406 150.195312 Z M 254.851562 140.800781 L 263.191406 132.460938 L 271.527344 140.800781 L 263.191406 149.140625 Z M 263.71875 149.667969 L 272.058594 141.328125 L 280.394531 149.667969 L 272.058594 158.007812 Z M 280.925781 150.195312 L 289.261719 158.535156 L 280.925781 166.875 L 272.585938 158.535156 Z M 272.585938 140.800781 L 280.925781 132.460938 L 289.261719 140.800781 L 280.925781 149.140625 Z M 272.585938 123.066406 L 280.925781 114.726562 L 289.261719 123.066406 L 280.925781 131.40625 Z M 280.394531 131.933594 L 272.058594 140.273438 L 263.71875 131.933594 L 272.058594 123.59375 Z M 263.191406 131.40625 L 254.851562 123.066406 L 263.191406 114.730469 L 271.53125 123.066406 Z M 262.664062 131.933594 L 254.324219 140.273438 L 245.984375 131.933594 L 254.324219 123.59375 Z M 245.457031 131.40625 L 237.117188 123.066406 L 245.457031 114.730469 L 253.796875 123.066406 Z M 237.117188 140.800781 L 245.457031 132.460938 L 253.796875 140.800781 L 245.457031 149.140625 Z M 245.984375 149.667969 L 254.324219 141.328125 L 262.664062 149.667969 L 254.324219 158.007812 Z M 254.324219 175.742188 L 245.984375 167.402344 L 254.324219 159.0625 L 262.664062 167.402344 Z M 263.191406 184.605469 L 254.851562 176.269531 L 263.191406 167.929688 L 271.53125 176.269531 Z M 263.71875 167.402344 L 272.058594 159.0625 L 280.394531 167.402344 L 272.058594 175.738281 Z M 280.925781 184.605469 L 272.585938 176.269531 L 280.925781 167.929688 L 289.261719 176.269531 Z M 298.128906 167.402344 L 289.792969 175.738281 L 281.453125 167.402344 L 289.792969 159.0625 Z M 298.128906 149.667969 L 289.792969 158.007812 L 281.453125 149.667969 L 289.792969 141.328125 Z M 298.128906 131.933594 L 289.792969 140.273438 L 281.453125 131.933594 L 289.792969 123.59375 Z M 298.128906 114.199219 L 289.792969 122.539062 L 281.453125 114.199219 L 289.792969 105.863281 Z M 280.925781 96.996094 L 289.261719 105.332031 L 280.925781 113.671875 L 272.585938 105.332031 Z M 280.394531 114.199219 L 272.058594 122.539062 L 263.71875 114.199219 L 272.058594 105.863281 Z M 263.191406 96.996094 L 271.53125 105.335938 L 263.191406 113.671875 L 254.851562 105.335938 Z M 262.664062 114.199219 L 254.324219 122.539062 L 245.984375 114.199219 L 254.324219 105.863281 Z M 245.457031 96.996094 L 253.796875 105.332031 L 245.457031 113.671875 L 237.117188 105.332031 Z M 244.929688 114.199219 L 236.589844 122.539062 L 228.25 114.199219 L 236.589844 105.863281 Z M 227.722656 96.996094 L 236.0625 105.335938 L 227.722656 113.671875 L 219.382812 105.335938 Z M 209.988281 96.996094 L 218.328125 105.335938 L 209.988281 113.671875 L 201.652344 105.335938 Z M 130.714844 158.535156 L 139.054688 150.195312 L 147.394531 158.535156 L 139.054688 166.875 Z M 173.996094 131.933594 L 165.65625 140.273438 L 157.316406 131.933594 L 165.65625 123.59375 Z M 166.183594 123.066406 L 174.523438 114.726562 L 182.863281 123.066406 L 174.523438 131.40625 Z M 156.789062 150.195312 L 165.128906 158.535156 L 156.789062 166.875 L 148.449219 158.535156 Z M 147.921875 158.007812 L 139.582031 149.667969 L 147.921875 141.328125 L 156.261719 149.667969 Z M 148.449219 140.800781 L 156.789062 132.460938 L 165.128906 140.800781 L 156.789062 149.140625 Z M 156.789062 131.40625 L 148.449219 123.066406 L 156.789062 114.730469 L 165.128906 123.066406 Z M 156.261719 131.933594 L 147.921875 140.273438 L 139.582031 131.933594 L 147.921875 123.59375 Z M 139.054688 131.40625 L 130.714844 123.066406 L 139.054688 114.726562 L 147.394531 123.066406 Z M 147.394531 140.800781 L 139.054688 149.140625 L 130.714844 140.800781 L 139.054688 132.460938 Z M 139.054688 184.605469 L 130.714844 176.269531 L 139.054688 167.929688 L 147.394531 176.269531 Z M 139.582031 167.402344 L 147.921875 159.0625 L 156.261719 167.402344 L 147.921875 175.738281 Z M 156.789062 184.605469 L 148.449219 176.269531 L 156.789062 167.929688 L 165.128906 176.269531 Z M 173.996094 167.402344 L 165.65625 175.738281 L 157.316406 167.402344 L 165.65625 159.0625 Z M 165.65625 158.007812 L 157.316406 149.667969 L 165.65625 141.328125 L 173.996094 149.667969 Z M 174.523438 149.140625 L 166.183594 140.800781 L 174.523438 132.460938 L 182.859375 140.800781 Z M 183.390625 140.273438 L 175.050781 131.933594 L 183.390625 123.59375 L 191.726562 131.933594 Z M 200.59375 123.066406 L 192.257812 131.40625 L 183.917969 123.066406 L 192.257812 114.726562 Z M 192.257812 96.996094 L 200.59375 105.332031 L 192.257812 113.671875 L 183.917969 105.332031 Z M 191.726562 114.199219 L 183.390625 122.539062 L 175.050781 114.199219 L 183.390625 105.863281 Z M 174.523438 96.996094 L 182.859375 105.332031 L 174.523438 113.671875 L 166.183594 105.332031 Z M 173.996094 114.199219 L 165.65625 122.539062 L 157.316406 114.199219 L 165.65625 105.863281 Z M 156.789062 96.996094 L 165.128906 105.332031 L 156.789062 113.671875 L 148.449219 105.335938 Z M 156.261719 114.199219 L 147.921875 122.539062 L 139.582031 114.199219 L 147.921875 105.863281 Z M 139.054688 96.996094 L 147.394531 105.332031 L 139.054688 113.671875 L 130.714844 105.332031 Z M 121.847656 114.199219 L 130.1875 105.863281 L 138.527344 114.199219 L 130.1875 122.539062 Z M 121.847656 131.933594 L 130.1875 123.59375 L 138.527344 131.933594 L 130.1875 140.273438 Z M 121.847656 149.667969 L 130.1875 141.328125 L 138.527344 149.667969 L 130.1875 158.007812 Z M 121.847656 149.667969 " fill-opacity="1" fill-rule="nonzero"/><path fill="#f8fbfd" d="M 189.742188 169.386719 L 191.679688 168.503906 L 192.257812 167.929688 L 192.472656 168.144531 L 193.195312 167.8125 L 192.785156 167.402344 L 197.261719 162.921875 L 197.261719 161.867188 L 192.257812 166.875 L 189.753906 164.371094 C 189.4375 164.4375 189.140625 164.496094 188.875 164.546875 L 191.730469 167.402344 Z M 189.742188 169.386719 " fill-opacity="1" fill-rule="nonzero"/><path fill="#f8fbfd" d="M 209.988281 184.605469 L 203.808594 178.425781 L 203.085938 178.757812 L 209.460938 185.132812 L 204.84375 189.753906 L 205.898438 189.753906 L 209.988281 185.664062 L 214.078125 189.753906 L 215.136719 189.753906 L 210.515625 185.132812 L 216.894531 178.757812 L 216.171875 178.425781 Z M 209.988281 184.605469 " fill-opacity="1" fill-rule="nonzero"/><path fill="#f8fbfd" d="M 231.105469 164.546875 C 230.839844 164.496094 230.542969 164.4375 230.226562 164.371094 L 227.722656 166.875 L 222.714844 161.867188 L 222.714844 162.921875 L 227.195312 167.402344 L 226.78125 167.8125 L 227.507812 168.144531 L 227.722656 167.929688 L 228.296875 168.503906 L 230.234375 169.386719 L 228.25 167.402344 Z M 231.105469 164.546875 " fill-opacity="1" fill-rule="nonzero"/><path fill="#f8fbfd" d="M 117.230469 189.753906 L 117.820312 189.164062 C 117.574219 189.367188 117.328125 189.5625 117.074219 189.753906 Z M 117.230469 189.753906 " fill-opacity="1" fill-rule="nonzero"/><g clip-path="url(#2574324ed8)"><path fill="#f8fbfd" d="M 113.285156 157.347656 L 113.285156 89.585938 L 306.695312 89.585938 L 306.695312 198.882812 L 313.5625 198.882812 L 313.5625 82.71875 L 106.417969 82.71875 L 106.417969 155.828125 C 106.917969 155.84375 107.417969 155.871094 107.917969 155.929688 C 109.792969 156.140625 111.597656 156.621094 113.285156 157.347656 Z M 113.285156 157.347656 " fill-opacity="1" fill-rule="nonzero"/></g><path fill="#f8fbfd" d="M 168 264.710938 C 168 265.578125 167.917969 266.4375 167.746094 267.289062 C 167.578125 268.140625 167.328125 268.96875 166.996094 269.769531 C 166.664062 270.570312 166.253906 271.332031 165.773438 272.054688 C 165.292969 272.777344 164.742188 273.445312 164.128906 274.058594 C 163.515625 274.671875 162.847656 275.21875 162.125 275.703125 C 161.40625 276.183594 160.644531 276.589844 159.839844 276.921875 C 159.039062 277.253906 158.214844 277.503906 157.363281 277.675781 C 156.511719 277.84375 155.652344 277.929688 154.78125 277.929688 C 153.914062 277.929688 153.054688 277.84375 152.203125 277.675781 C 151.351562 277.503906 150.527344 277.253906 149.726562 276.921875 C 148.921875 276.589844 148.160156 276.183594 147.441406 275.703125 C 146.71875 275.21875 146.050781 274.671875 145.4375 274.058594 C 144.824219 273.445312 144.273438 272.777344 143.792969 272.054688 C 143.308594 271.332031 142.902344 270.570312 142.570312 269.769531 C 142.238281 268.96875 141.988281 268.140625 141.820312 267.289062 C 141.648438 266.4375 141.566406 265.578125 141.566406 264.710938 C 141.566406 263.84375 141.648438 262.984375 141.820312 262.132812 C 141.988281 261.28125 142.238281 260.453125 142.570312 259.652344 C 142.902344 258.851562 143.308594 258.089844 143.792969 257.367188 C 144.273438 256.644531 144.824219 255.976562 145.4375 255.363281 C 146.050781 254.75 146.71875 254.203125 147.441406 253.71875 C 148.160156 253.238281 148.921875 252.832031 149.726562 252.5 C 150.527344 252.167969 151.351562 251.917969 152.203125 251.746094 C 153.054688 251.578125 153.914062 251.492188 154.78125 251.492188 C 155.652344 251.492188 156.511719 251.578125 157.363281 251.746094 C 158.214844 251.917969 159.039062 252.167969 159.839844 252.5 C 160.644531 252.832031 161.40625 253.238281 162.125 253.71875 C 162.847656 254.203125 163.515625 254.75 164.128906 255.363281 C 164.742188 255.976562 165.292969 256.644531 165.773438 257.367188 C 166.253906 258.089844 166.664062 258.851562 166.996094 259.652344 C 167.328125 260.453125 167.578125 261.28125 167.746094 262.132812 C 167.917969 262.984375 168 263.84375 168 264.710938 Z M 168 264.710938 " fill-opacity="1" fill-rule="nonzero"/><path fill="#f8fbfd" d="M 107.46875 159.867188 C 108.441406 159.976562 109.390625 160.179688 110.320312 160.476562 C 111.25 160.773438 112.144531 161.160156 113 161.628906 C 113.851562 162.101562 114.652344 162.652344 115.398438 163.285156 C 116.144531 163.914062 116.824219 164.609375 117.433594 165.375 C 118.039062 166.136719 118.570312 166.953125 119.015625 167.820312 C 119.464844 168.6875 119.824219 169.589844 120.09375 170.527344 C 120.367188 171.464844 120.542969 172.421875 120.625 173.394531 C 120.707031 174.367188 120.691406 175.339844 120.582031 176.308594 C 120.472656 177.28125 120.269531 178.230469 119.972656 179.160156 C 119.679688 180.089844 119.292969 180.984375 118.820312 181.839844 C 118.347656 182.691406 117.796875 183.492188 117.167969 184.238281 C 116.539062 184.984375 115.839844 185.664062 115.078125 186.269531 C 114.316406 186.878906 113.5 187.410156 112.632812 187.855469 C 111.765625 188.304688 110.863281 188.664062 109.921875 188.933594 C 108.984375 189.207031 108.03125 189.382812 107.058594 189.464844 C 106.085938 189.546875 105.113281 189.53125 104.140625 189.421875 C 103.171875 189.3125 102.222656 189.109375 101.292969 188.8125 C 100.359375 188.519531 99.46875 188.132812 98.613281 187.660156 C 97.757812 187.1875 96.957031 186.636719 96.214844 186.007812 C 95.46875 185.378906 94.789062 184.679688 94.179688 183.917969 C 93.570312 183.15625 93.042969 182.339844 92.59375 181.472656 C 92.148438 180.605469 91.789062 179.703125 91.515625 178.761719 C 91.246094 177.824219 91.070312 176.871094 90.988281 175.898438 C 90.90625 174.921875 90.921875 173.953125 91.027344 172.980469 C 91.136719 172.011719 91.339844 171.0625 91.636719 170.132812 C 91.933594 169.199219 92.320312 168.308594 92.789062 167.453125 C 93.261719 166.597656 93.8125 165.796875 94.445312 165.050781 C 95.074219 164.304688 95.769531 163.628906 96.535156 163.019531 C 97.296875 162.410156 98.113281 161.882812 98.980469 161.433594 C 99.847656 160.988281 100.75 160.628906 101.6875 160.355469 C 102.625 160.085938 103.582031 159.910156 104.554688 159.828125 C 105.527344 159.746094 106.5 159.757812 107.46875 159.867188 Z M 107.46875 159.867188 " fill-opacity="1" fill-rule="nonzero"/><path fill="#f8fbfd" d="M 125.261719 246.164062 L 112.777344 258.550781 L 115.820312 259.984375 L 123.769531 285.378906 C 124.875 288.914062 128.132812 291.175781 131.652344 291.175781 C 132.46875 291.175781 133.300781 291.054688 134.121094 290.796875 C 138.476562 289.433594 140.902344 284.796875 139.539062 280.445312 L 130.503906 251.585938 C 129.8125 249.378906 128.230469 247.558594 126.136719 246.574219 Z M 125.261719 246.164062 " fill-opacity="1" fill-rule="nonzero"/><path fill="#f8fbfd" d="M 105.566406 263.316406 L 98.589844 251.882812 L 110.230469 257.355469 L 122.714844 244.96875 L 108.15625 238.125 L 116.261719 207.445312 C 127.113281 214.253906 135.082031 230.441406 137.488281 236.933594 C 138.273438 239.070312 140.296875 240.394531 142.449219 240.394531 C 143.058594 240.394531 143.675781 240.289062 144.277344 240.066406 C 147.015625 239.058594 148.421875 236.019531 147.410156 233.277344 C 146.9375 231.996094 135.738281 202.171875 115.050781 195.210938 C 114.804688 195.105469 114.550781 195.007812 114.285156 194.9375 L 89.597656 188.414062 C 89.414062 188.367188 89.234375 188.332031 89.050781 188.304688 C 83.601562 187.121094 77.316406 190.09375 73.121094 195.953125 C 70.703125 199.332031 64.511719 210.375 72.085938 226.460938 L 78.765625 201.171875 C 78.765625 201.171875 79.558594 201.316406 80.839844 201.5625 L 72.675781 232.460938 L 72.347656 233.710938 C 71.273438 236.113281 71.359375 238.980469 72.832031 241.394531 L 86.441406 263.695312 Z M 105.566406 263.316406 " fill-opacity="1" fill-rule="nonzero"/><g clip-path="url(#4135170891)"><path fill="#f8fbfd" d="M 67.980469 300.847656 C 69.613281 302.683594 71.878906 303.621094 74.160156 303.621094 C 76.109375 303.621094 78.070312 302.933594 79.644531 301.535156 L 106.410156 277.742188 C 109.398438 275.085938 110.054688 270.671875 107.972656 267.261719 L 107.160156 265.925781 L 88.035156 266.308594 L 90.273438 269.976562 L 68.667969 289.183594 C 65.257812 292.214844 64.949219 297.4375 67.980469 300.847656 Z M 67.980469 300.847656 " fill-opacity="1" fill-rule="nonzero"/></g><path fill="#f8fbfd" d="M 218.65625 128.769531 C 218.65625 129.339844 218.597656 129.902344 218.488281 130.460938 C 218.378906 131.019531 218.210938 131.5625 217.996094 132.085938 C 217.777344 132.613281 217.511719 133.109375 217.195312 133.585938 C 216.878906 134.058594 216.519531 134.496094 216.117188 134.898438 C 215.714844 135.300781 215.277344 135.660156 214.804688 135.976562 C 214.332031 136.289062 213.832031 136.558594 213.304688 136.777344 C 212.78125 136.992188 212.238281 137.15625 211.679688 137.269531 C 211.121094 137.378906 210.558594 137.433594 209.988281 137.433594 C 209.421875 137.433594 208.859375 137.378906 208.300781 137.269531 C 207.742188 137.15625 207.199219 136.992188 206.675781 136.777344 C 206.148438 136.558594 205.648438 136.289062 205.175781 135.976562 C 204.703125 135.660156 204.265625 135.300781 203.863281 134.898438 C 203.460938 134.496094 203.101562 134.058594 202.785156 133.585938 C 202.46875 133.109375 202.203125 132.613281 201.984375 132.085938 C 201.765625 131.5625 201.601562 131.019531 201.492188 130.460938 C 201.382812 129.902344 201.324219 129.339844 201.324219 128.769531 C 201.324219 128.203125 201.382812 127.636719 201.492188 127.082031 C 201.601562 126.523438 201.765625 125.980469 201.984375 125.453125 C 202.203125 124.929688 202.46875 124.429688 202.785156 123.957031 C 203.101562 123.484375 203.460938 123.046875 203.863281 122.644531 C 204.265625 122.242188 204.703125 121.882812 205.175781 121.566406 C 205.648438 121.25 206.148438 120.984375 206.675781 120.765625 C 207.199219 120.546875 207.742188 120.382812 208.300781 120.273438 C 208.859375 120.160156 209.421875 120.105469 209.988281 120.105469 C 210.558594 120.105469 211.121094 120.160156 211.679688 120.273438 C 212.238281 120.382812 212.78125 120.546875 213.304688 120.765625 C 213.832031 120.984375 214.332031 121.25 214.804688 121.566406 C 215.277344 121.882812 215.714844 122.242188 216.117188 122.644531 C 216.519531 123.046875 216.878906 123.484375 217.195312 123.957031 C 217.511719 124.429688 217.777344 124.929688 217.996094 125.453125 C 218.210938 125.980469 218.378906 126.523438 218.488281 127.082031 C 218.597656 127.636719 218.65625 128.203125 218.65625 128.769531 Z M 218.65625 128.769531 " fill-opacity="1" fill-rule="nonzero"/><path fill="#f8fbfd" d="M 235.726562 177.460938 C 235.726562 175.609375 234.648438 173.933594 232.964844 173.167969 L 220.40625 167.449219 L 220.40625 147.652344 C 221.507812 149.171875 222.429688 151.789062 222.558594 156.050781 C 222.679688 160.097656 227.644531 161.546875 231.960938 162.355469 C 235.515625 163.023438 238.996094 163.261719 239.140625 163.269531 C 239.210938 163.273438 239.28125 163.277344 239.347656 163.277344 C 240.957031 163.277344 242.3125 162.027344 242.417969 160.398438 C 242.53125 158.699219 241.246094 157.234375 239.546875 157.121094 C 235.105469 156.828125 230.265625 155.886719 228.683594 155.050781 C 228.378906 149.203125 226.738281 144.898438 223.800781 142.246094 C 221.460938 140.125 218.980469 139.714844 217.777344 139.652344 C 217.660156 139.636719 217.546875 139.628906 217.429688 139.628906 L 202.550781 139.628906 C 202.433594 139.628906 202.320312 139.636719 202.207031 139.648438 C 201.007812 139.714844 198.523438 140.121094 196.175781 142.246094 C 193.238281 144.898438 191.601562 149.203125 191.296875 155.050781 C 189.714844 155.882812 184.875 156.824219 180.429688 157.121094 C 178.734375 157.234375 177.449219 158.699219 177.558594 160.398438 C 177.667969 162.027344 179.019531 163.277344 180.628906 163.277344 C 180.699219 163.277344 180.765625 163.273438 180.835938 163.269531 C 180.984375 163.257812 184.464844 163.023438 188.019531 162.355469 C 192.332031 161.542969 197.296875 160.09375 197.421875 156.050781 C 197.550781 151.785156 198.46875 149.171875 199.574219 147.648438 L 199.574219 167.449219 L 187.015625 173.164062 C 185.332031 173.929688 184.25 175.609375 184.25 177.460938 L 184.25 195.109375 C 184.25 197.714844 186.363281 199.828125 188.96875 199.828125 C 191.574219 199.828125 193.6875 197.714844 193.6875 195.109375 L 193.6875 180.496094 L 208.125 173.921875 C 208.894531 173.570312 209.523438 173.035156 209.988281 172.394531 C 210.453125 173.035156 211.082031 173.570312 211.851562 173.921875 L 226.292969 180.496094 L 226.292969 195.109375 C 226.292969 197.714844 228.402344 199.828125 231.007812 199.828125 C 233.613281 199.828125 235.726562 197.714844 235.726562 195.109375 Z M 235.726562 177.460938 " fill-opacity="1" fill-rule="nonzero"/></svg>