<svg xmlns="http://www.w3.org/2000/svg" xmlns:xlink="http://www.w3.org/1999/xlink" width="500" zoomAndPan="magnify" viewBox="0 0 375 374.999991" height="500" preserveAspectRatio="xMidYMid meet" version="1.0"><defs><clipPath id="5d5728e296"><path d="M 8.214844 8.214844 L 367.4375 8.214844 L 367.4375 367.4375 L 8.214844 367.4375 Z M 8.214844 8.214844 " clip-rule="nonzero"/></clipPath><clipPath id="9e36b37f70"><path d="M 187.828125 8.214844 C 88.632812 8.214844 8.214844 88.632812 8.214844 187.828125 C 8.214844 287.023438 88.632812 367.4375 187.828125 367.4375 C 287.023438 367.4375 367.4375 287.023438 367.4375 187.828125 C 367.4375 88.632812 287.023438 8.214844 187.828125 8.214844 Z M 187.828125 8.214844 " clip-rule="nonzero"/></clipPath><clipPath id="e40a291b09"><path d="M 0.214844 0.214844 L 359.4375 0.214844 L 359.4375 359.4375 L 0.214844 359.4375 Z M 0.214844 0.214844 " clip-rule="nonzero"/></clipPath><clipPath id="a7bfe863ed"><path d="M 179.828125 0.214844 C 80.632812 0.214844 0.214844 80.632812 0.214844 179.828125 C 0.214844 279.023438 80.632812 359.4375 179.828125 359.4375 C 279.023438 359.4375 359.4375 279.023438 359.4375 179.828125 C 359.4375 80.632812 279.023438 0.214844 179.828125 0.214844 Z M 179.828125 0.214844 " clip-rule="nonzero"/></clipPath><clipPath id="58e4436855"><rect x="0" width="360" y="0" height="360"/></clipPath><clipPath id="2d8e066631"><path d="M 64 141 L 203 141 L 203 280.363281 L 64 280.363281 Z M 64 141 " clip-rule="nonzero"/></clipPath><clipPath id="7252c464d7"><path d="M 246 80.863281 L 321 80.863281 L 321 149 L 246 149 Z M 246 80.863281 " clip-rule="nonzero"/></clipPath></defs><g clip-path="url(#5d5728e296)"><g clip-path="url(#9e36b37f70)"><g transform="matrix(1, 0, 0, 1, 8, 8)"><g clip-path="url(#58e4436855)"><g clip-path="url(#e40a291b09)"><g clip-path="url(#a7bfe863ed)"><path fill="#293133" d="M 0.214844 0.214844 L 359.4375 0.214844 L 359.4375 359.4375 L 0.214844 359.4375 Z M 0.214844 0.214844 " fill-opacity="1" fill-rule="nonzero"/></g></g></g></g></g></g><path fill="#ffffff" d="M 166.75 143.21875 C 171.863281 145.722656 176.621094 148.746094 180.984375 152.253906 L 189.339844 135.171875 L 161.214844 121.410156 L 153.054688 138.085938 C 157.75 139.347656 162.339844 141.0625 166.746094 143.21875 Z M 166.75 143.21875 " fill-opacity="1" fill-rule="nonzero"/><g clip-path="url(#2d8e066631)"><path fill="#ffffff" d="M 202.84375 211.253906 C 202.84375 212.390625 202.816406 213.527344 202.757812 214.660156 C 202.703125 215.792969 202.621094 216.925781 202.507812 218.054688 C 202.398438 219.1875 202.257812 220.3125 202.089844 221.4375 C 201.925781 222.558594 201.730469 223.679688 201.507812 224.792969 C 201.289062 225.90625 201.039062 227.011719 200.761719 228.113281 C 200.488281 229.214844 200.183594 230.3125 199.855469 231.398438 C 199.523438 232.484375 199.167969 233.5625 198.785156 234.632812 C 198.402344 235.699219 197.996094 236.757812 197.5625 237.808594 C 197.125 238.859375 196.667969 239.894531 196.179688 240.921875 C 195.695312 241.949219 195.183594 242.960938 194.648438 243.964844 C 194.113281 244.964844 193.554688 245.953125 192.96875 246.925781 C 192.386719 247.902344 191.78125 248.859375 191.148438 249.804688 C 190.519531 250.75 189.863281 251.675781 189.1875 252.589844 C 188.511719 253.5 187.8125 254.394531 187.09375 255.273438 C 186.371094 256.152344 185.628906 257.011719 184.867188 257.851562 C 184.105469 258.695312 183.324219 259.515625 182.519531 260.320312 C 181.714844 261.121094 180.894531 261.90625 180.054688 262.667969 C 179.210938 263.429688 178.351562 264.171875 177.472656 264.890625 C 176.597656 265.613281 175.703125 266.3125 174.789062 266.988281 C 173.878906 267.664062 172.949219 268.316406 172.003906 268.949219 C 171.058594 269.578125 170.101562 270.1875 169.128906 270.769531 C 168.152344 271.355469 167.164062 271.914062 166.164062 272.449219 C 165.164062 272.984375 164.148438 273.496094 163.121094 273.980469 C 162.09375 274.464844 161.058594 274.925781 160.007812 275.359375 C 158.960938 275.796875 157.898438 276.203125 156.832031 276.585938 C 155.761719 276.96875 154.683594 277.324219 153.597656 277.65625 C 152.511719 277.984375 151.417969 278.289062 150.316406 278.5625 C 149.214844 278.839844 148.105469 279.085938 146.992188 279.308594 C 145.878906 279.53125 144.757812 279.726562 143.636719 279.890625 C 142.511719 280.058594 141.386719 280.195312 140.257812 280.308594 C 139.125 280.417969 137.992188 280.503906 136.859375 280.558594 C 135.726562 280.613281 134.589844 280.640625 133.457031 280.640625 C 132.320312 280.640625 131.183594 280.613281 130.050781 280.558594 C 128.917969 280.503906 127.785156 280.417969 126.652344 280.308594 C 125.523438 280.195312 124.398438 280.058594 123.273438 279.890625 C 122.152344 279.726562 121.03125 279.53125 119.917969 279.308594 C 118.804688 279.085938 117.695312 278.839844 116.59375 278.5625 C 115.492188 278.289062 114.398438 277.984375 113.3125 277.65625 C 112.226562 277.324219 111.148438 276.96875 110.078125 276.585938 C 109.011719 276.203125 107.949219 275.796875 106.902344 275.359375 C 105.851562 274.925781 104.816406 274.464844 103.789062 273.980469 C 102.761719 273.496094 101.746094 272.984375 100.746094 272.449219 C 99.746094 271.914062 98.757812 271.355469 97.78125 270.769531 C 96.808594 270.1875 95.851562 269.578125 94.90625 268.949219 C 93.960938 268.316406 93.035156 267.664062 92.121094 266.988281 C 91.210938 266.3125 90.3125 265.613281 89.4375 264.890625 C 88.558594 264.171875 87.699219 263.429688 86.859375 262.667969 C 86.015625 261.90625 85.195312 261.121094 84.390625 260.320312 C 83.589844 259.515625 82.804688 258.695312 82.042969 257.851562 C 81.28125 257.011719 80.539062 256.152344 79.816406 255.273438 C 79.097656 254.394531 78.398438 253.5 77.722656 252.589844 C 77.046875 251.675781 76.394531 250.75 75.761719 249.804688 C 75.128906 248.859375 74.523438 247.902344 73.941406 246.925781 C 73.355469 245.953125 72.796875 244.964844 72.261719 243.964844 C 71.726562 242.960938 71.214844 241.949219 70.730469 240.921875 C 70.246094 239.894531 69.785156 238.859375 69.351562 237.808594 C 68.914062 236.757812 68.507812 235.699219 68.125 234.632812 C 67.742188 233.5625 67.386719 232.484375 67.054688 231.398438 C 66.726562 230.3125 66.421875 229.214844 66.148438 228.113281 C 65.871094 227.011719 65.621094 225.90625 65.402344 224.792969 C 65.179688 223.679688 64.984375 222.558594 64.820312 221.4375 C 64.652344 220.3125 64.511719 219.1875 64.402344 218.054688 C 64.289062 216.925781 64.207031 215.792969 64.152344 214.660156 C 64.097656 213.527344 64.066406 212.390625 64.066406 211.253906 C 64.066406 210.121094 64.097656 208.984375 64.152344 207.851562 C 64.207031 206.714844 64.289062 205.585938 64.402344 204.453125 C 64.511719 203.324219 64.652344 202.199219 64.820312 201.074219 C 64.984375 199.949219 65.179688 198.832031 65.402344 197.71875 C 65.621094 196.605469 65.871094 195.496094 66.148438 194.394531 C 66.421875 193.292969 66.726562 192.199219 67.054688 191.113281 C 67.386719 190.027344 67.742188 188.949219 68.125 187.878906 C 68.507812 186.808594 68.914062 185.75 69.351562 184.703125 C 69.785156 183.652344 70.246094 182.613281 70.730469 181.589844 C 71.214844 180.5625 71.726562 179.546875 72.261719 178.546875 C 72.796875 177.542969 73.355469 176.558594 73.941406 175.582031 C 74.523438 174.609375 75.128906 173.648438 75.761719 172.707031 C 76.394531 171.761719 77.046875 170.832031 77.722656 169.921875 C 78.398438 169.007812 79.097656 168.113281 79.816406 167.238281 C 80.539062 166.359375 81.28125 165.5 82.042969 164.65625 C 82.804688 163.816406 83.589844 162.992188 84.390625 162.191406 C 85.195312 161.386719 86.015625 160.605469 86.859375 159.84375 C 87.699219 159.078125 88.558594 158.339844 89.4375 157.617188 C 90.3125 156.898438 91.210938 156.199219 92.121094 155.523438 C 93.035156 154.847656 93.960938 154.191406 94.90625 153.5625 C 95.851562 152.929688 96.808594 152.324219 97.78125 151.738281 C 98.757812 151.15625 99.746094 150.597656 100.746094 150.0625 C 101.746094 149.527344 102.761719 149.015625 103.789062 148.53125 C 104.816406 148.042969 105.851562 147.585938 106.902344 147.148438 C 107.949219 146.714844 109.011719 146.304688 110.078125 145.925781 C 111.148438 145.542969 112.226562 145.183594 113.3125 144.855469 C 114.398438 144.527344 115.492188 144.222656 116.59375 143.949219 C 117.695312 143.671875 118.804688 143.421875 119.917969 143.199219 C 121.03125 142.980469 122.152344 142.785156 123.273438 142.617188 C 124.398438 142.453125 125.523438 142.3125 126.652344 142.203125 C 127.785156 142.089844 128.917969 142.007812 130.050781 141.953125 C 131.183594 141.894531 132.320312 141.867188 133.457031 141.867188 C 134.589844 141.867188 135.726562 141.894531 136.859375 141.953125 C 137.992188 142.007812 139.125 142.089844 140.257812 142.203125 C 141.386719 142.3125 142.511719 142.453125 143.636719 142.617188 C 144.757812 142.785156 145.878906 142.980469 146.992188 143.199219 C 148.105469 143.421875 149.214844 143.671875 150.316406 143.949219 C 151.417969 144.222656 152.511719 144.527344 153.597656 144.855469 C 154.683594 145.183594 155.761719 145.542969 156.832031 145.925781 C 157.898438 146.304688 158.960938 146.714844 160.007812 147.148438 C 161.058594 147.585938 162.09375 148.042969 163.121094 148.53125 C 164.148438 149.015625 165.164062 149.527344 166.164062 150.0625 C 167.164062 150.597656 168.152344 151.15625 169.128906 151.738281 C 170.101562 152.324219 171.058594 152.929688 172.003906 153.5625 C 172.949219 154.191406 173.878906 154.847656 174.789062 155.523438 C 175.703125 156.199219 176.597656 156.898438 177.472656 157.617188 C 178.351562 158.339844 179.210938 159.078125 180.054688 159.84375 C 180.894531 160.605469 181.714844 161.386719 182.519531 162.191406 C 183.324219 162.992188 184.105469 163.816406 184.867188 164.65625 C 185.628906 165.5 186.371094 166.359375 187.09375 167.238281 C 187.8125 168.113281 188.511719 169.007812 189.1875 169.921875 C 189.863281 170.832031 190.519531 171.761719 191.148438 172.707031 C 191.78125 173.648438 192.386719 174.609375 192.96875 175.582031 C 193.554688 176.558594 194.113281 177.542969 194.648438 178.546875 C 195.183594 179.546875 195.695312 180.5625 196.179688 181.589844 C 196.667969 182.613281 197.125 183.652344 197.5625 184.703125 C 197.996094 185.75 198.402344 186.808594 198.785156 187.878906 C 199.167969 188.949219 199.523438 190.027344 199.855469 191.113281 C 200.183594 192.199219 200.488281 193.292969 200.761719 194.394531 C 201.039062 195.496094 201.289062 196.605469 201.507812 197.71875 C 201.730469 198.832031 201.925781 199.949219 202.089844 201.074219 C 202.257812 202.199219 202.398438 203.324219 202.507812 204.453125 C 202.621094 205.585938 202.703125 206.714844 202.757812 207.851562 C 202.816406 208.984375 202.84375 210.121094 202.84375 211.253906 Z M 202.84375 211.253906 " fill-opacity="1" fill-rule="nonzero"/></g><path fill="#ffffff" d="M 253.433594 140.796875 C 248.402344 141.222656 243.621094 140.261719 239.726562 137.960938 C 233.730469 134.417969 232.296875 127.589844 230.90625 120.992188 C 229.308594 113.378906 227.796875 106.1875 219.914062 103.136719 C 207.71875 98.410156 190.785156 101.976562 179.847656 126.15625 L 175.476562 124.179688 C 181.050781 111.855469 188.476562 103.496094 197.550781 99.328125 C 205.171875 95.832031 213.726562 95.589844 221.644531 98.660156 C 231.953125 102.652344 233.894531 111.867188 235.601562 120 C 236.882812 126.09375 237.988281 131.355469 242.167969 133.824219 C 246.59375 136.441406 252.613281 136.816406 258.683594 134.855469 C 264.792969 132.882812 270.105469 128.855469 273.257812 123.8125 L 277.328125 126.355469 C 273.585938 132.34375 267.324219 137.105469 260.15625 139.421875 C 257.90625 140.148438 255.644531 140.605469 253.433594 140.792969 Z M 253.433594 140.796875 " fill-opacity="1" fill-rule="nonzero"/><g clip-path="url(#7252c464d7)"><path fill="#ffffff" d="M 259.554688 120.554688 L 246.125 100.230469 L 263.691406 108.464844 L 271.398438 80.863281 L 281.234375 107.332031 L 307.851562 96.835938 L 293.65625 119.617188 L 320.851562 127.070312 L 294.847656 134.339844 L 306.152344 148.800781 L 282.671875 136.914062 L 289.972656 136.296875 L 289.121094 131.863281 L 304.550781 127.828125 L 287.769531 121.484375 L 293.882812 108.6875 L 279.007812 111.878906 L 272.578125 97.570312 L 266.65625 115.148438 L 259.375 113.1875 Z M 259.554688 120.554688 " fill-opacity="1" fill-rule="nonzero"/></g></svg>