<svg xmlns="http://www.w3.org/2000/svg" xmlns:xlink="http://www.w3.org/1999/xlink" width="500" zoomAndPan="magnify" viewBox="0 0 375 374.999991" height="500" preserveAspectRatio="xMidYMid meet" version="1.0"><defs><clipPath id="fb6d5bf5cf"><path d="M 7.886719 7.886719 L 367.113281 7.886719 L 367.113281 367.113281 L 7.886719 367.113281 Z M 7.886719 7.886719 " clip-rule="nonzero"/></clipPath><clipPath id="14e1c5bfce"><path d="M 187.5 7.886719 C 88.304688 7.886719 7.886719 88.304688 7.886719 187.5 C 7.886719 286.695312 88.304688 367.113281 187.5 367.113281 C 286.695312 367.113281 367.113281 286.695312 367.113281 187.5 C 367.113281 88.304688 286.695312 7.886719 187.5 7.886719 Z M 187.5 7.886719 " clip-rule="nonzero"/></clipPath><clipPath id="48c612696d"><path d="M 0.886719 0.886719 L 360.113281 0.886719 L 360.113281 360.113281 L 0.886719 360.113281 Z M 0.886719 0.886719 " clip-rule="nonzero"/></clipPath><clipPath id="265d93545a"><path d="M 180.5 0.886719 C 81.304688 0.886719 0.886719 81.304688 0.886719 180.5 C 0.886719 279.695312 81.304688 360.113281 180.5 360.113281 C 279.695312 360.113281 360.113281 279.695312 360.113281 180.5 C 360.113281 81.304688 279.695312 0.886719 180.5 0.886719 Z M 180.5 0.886719 " clip-rule="nonzero"/></clipPath><clipPath id="6a64915ece"><rect x="0" width="361" y="0" height="361"/></clipPath><clipPath id="9a459d5402"><path d="M 109.140625 44.207031 L 271.140625 44.207031 L 271.140625 330.308594 L 109.140625 330.308594 Z M 109.140625 44.207031 " clip-rule="nonzero"/></clipPath></defs><g clip-path="url(#fb6d5bf5cf)"><g clip-path="url(#14e1c5bfce)"><g transform="matrix(1, 0, 0, 1, 7, 7)"><g clip-path="url(#6a64915ece)"><g clip-path="url(#48c612696d)"><g clip-path="url(#265d93545a)"><path fill="#293133" d="M 0.886719 0.886719 L 360.113281 0.886719 L 360.113281 360.113281 L 0.886719 360.113281 Z M 0.886719 0.886719 " fill-opacity="1" fill-rule="nonzero"/></g></g></g></g></g></g><g clip-path="url(#9a459d5402)"><path fill="#f8fbfd" d="M 113.90625 330.308594 C 113.054688 330.308594 112.195312 330.078125 111.421875 329.605469 C 109.414062 328.375 108.605469 325.859375 109.515625 323.6875 L 162.945312 196.792969 L 113.910156 196.792969 C 112.257812 196.792969 110.726562 195.933594 109.851562 194.527344 C 108.988281 193.121094 108.90625 191.367188 109.644531 189.894531 L 181.167969 46.84375 C 181.980469 45.226562 183.632812 44.207031 185.4375 44.207031 L 261.730469 44.207031 C 263.464844 44.207031 265.070312 45.148438 265.910156 46.675781 C 266.746094 48.195312 266.691406 50.054688 265.761719 51.523438 L 209.996094 139.574219 L 266.5 139.574219 C 268.355469 139.574219 270.035156 140.648438 270.820312 142.328125 C 271.601562 144.011719 271.34375 145.996094 270.148438 147.417969 L 117.5625 328.617188 C 116.625 329.71875 115.273438 330.308594 113.90625 330.308594 " fill-opacity="1" fill-rule="nonzero"/></g></svg>