<svg xmlns="http://www.w3.org/2000/svg" xmlns:xlink="http://www.w3.org/1999/xlink" width="500" zoomAndPan="magnify" viewBox="0 0 375 374.999991" height="500" preserveAspectRatio="xMidYMid meet" version="1.0"><defs><clipPath id="1a5b4113af"><path d="M 8.214844 8.214844 L 367.4375 8.214844 L 367.4375 367.4375 L 8.214844 367.4375 Z M 8.214844 8.214844 " clip-rule="nonzero"/></clipPath><clipPath id="7671816714"><path d="M 187.828125 8.214844 C 88.632812 8.214844 8.214844 88.632812 8.214844 187.828125 C 8.214844 287.023438 88.632812 367.4375 187.828125 367.4375 C 287.023438 367.4375 367.4375 287.023438 367.4375 187.828125 C 367.4375 88.632812 287.023438 8.214844 187.828125 8.214844 Z M 187.828125 8.214844 " clip-rule="nonzero"/></clipPath><clipPath id="04ddb39679"><path d="M 0.214844 0.214844 L 359.4375 0.214844 L 359.4375 359.4375 L 0.214844 359.4375 Z M 0.214844 0.214844 " clip-rule="nonzero"/></clipPath><clipPath id="ff4bfea68c"><path d="M 179.828125 0.214844 C 80.632812 0.214844 0.214844 80.632812 0.214844 179.828125 C 0.214844 279.023438 80.632812 359.4375 179.828125 359.4375 C 279.023438 359.4375 359.4375 279.023438 359.4375 179.828125 C 359.4375 80.632812 279.023438 0.214844 179.828125 0.214844 Z M 179.828125 0.214844 " clip-rule="nonzero"/></clipPath><clipPath id="02e08c0714"><rect x="0" width="360" y="0" height="360"/></clipPath><clipPath id="165b03e820"><path d="M 83 133 L 241 133 L 241 293.351562 L 83 293.351562 Z M 83 133 " clip-rule="nonzero"/></clipPath><clipPath id="6cd60e2702"><path d="M 202 75.101562 L 298 75.101562 L 298 173 L 202 173 Z M 202 75.101562 " clip-rule="nonzero"/></clipPath><clipPath id="93b694006a"><path d="M 77.613281 111 L 133 111 L 133 167 L 77.613281 167 Z M 77.613281 111 " clip-rule="nonzero"/></clipPath></defs><g clip-path="url(#1a5b4113af)"><g clip-path="url(#7671816714)"><g transform="matrix(1, 0, 0, 1, 8, 8)"><g clip-path="url(#02e08c0714)"><g clip-path="url(#04ddb39679)"><g clip-path="url(#ff4bfea68c)"><path fill="#293133" d="M 0.214844 0.214844 L 359.4375 0.214844 L 359.4375 359.4375 L 0.214844 359.4375 Z M 0.214844 0.214844 " fill-opacity="1" fill-rule="nonzero"/></g></g></g></g></g></g><g clip-path="url(#165b03e820)"><path fill="#ffffff" d="M 95.816406 293.589844 C 94.125 293.59375 92.503906 293.269531 90.945312 292.613281 C 89.386719 291.957031 88.019531 291.023438 86.839844 289.8125 C 86.257812 289.214844 85.738281 288.566406 85.28125 287.867188 C 84.824219 287.164062 84.4375 286.429688 84.121094 285.652344 C 83.808594 284.878906 83.570312 284.082031 83.410156 283.261719 C 83.25 282.441406 83.167969 281.613281 83.167969 280.777344 C 83.167969 279.941406 83.25 279.113281 83.410156 278.292969 C 83.570312 277.46875 83.808594 276.671875 84.121094 275.898438 C 84.4375 275.125 84.824219 274.386719 85.28125 273.6875 C 85.738281 272.988281 86.257812 272.335938 86.839844 271.738281 L 221.375 134.839844 C 221.710938 134.496094 222.101562 134.230469 222.542969 134.042969 C 222.984375 133.855469 223.449219 133.761719 223.925781 133.757812 C 224.40625 133.753906 224.871094 133.839844 225.316406 134.019531 C 225.761719 134.199219 226.15625 134.457031 226.496094 134.792969 C 226.839844 135.128906 227.105469 135.519531 227.292969 135.960938 C 227.480469 136.402344 227.578125 136.863281 227.582031 137.34375 C 227.589844 137.824219 227.5 138.289062 227.320312 138.734375 C 227.140625 139.179688 226.882812 139.574219 226.546875 139.917969 L 92.003906 276.816406 C 91.75 277.078125 91.519531 277.363281 91.320312 277.671875 C 91.121094 277.976562 90.953125 278.300781 90.8125 278.640625 C 90.675781 278.980469 90.570312 279.328125 90.503906 279.6875 C 90.433594 280.046875 90.398438 280.410156 90.398438 280.777344 C 90.398438 281.144531 90.433594 281.507812 90.503906 281.867188 C 90.570312 282.226562 90.675781 282.574219 90.8125 282.914062 C 90.953125 283.253906 91.121094 283.578125 91.320312 283.886719 C 91.519531 284.191406 91.75 284.476562 92.003906 284.738281 C 92.25 284.992188 92.519531 285.222656 92.8125 285.421875 C 93.105469 285.621094 93.417969 285.789062 93.742188 285.929688 C 94.070312 286.066406 94.40625 286.171875 94.753906 286.242188 C 95.101562 286.3125 95.453125 286.347656 95.808594 286.347656 C 96.164062 286.347656 96.515625 286.3125 96.863281 286.242188 C 97.210938 286.171875 97.546875 286.066406 97.875 285.929688 C 98.203125 285.789062 98.511719 285.621094 98.804688 285.421875 C 99.097656 285.222656 99.367188 284.992188 99.613281 284.738281 L 234.15625 147.84375 C 234.492188 147.5 234.878906 147.234375 235.324219 147.046875 C 235.765625 146.859375 236.226562 146.761719 236.707031 146.757812 C 237.1875 146.75 237.652344 146.839844 238.097656 147.019531 C 238.542969 147.199219 238.9375 147.457031 239.28125 147.792969 C 239.621094 148.128906 239.886719 148.519531 240.078125 148.960938 C 240.265625 149.402344 240.359375 149.863281 240.367188 150.34375 C 240.371094 150.824219 240.28125 151.289062 240.101562 151.734375 C 239.921875 152.179688 239.664062 152.574219 239.328125 152.917969 L 104.78125 289.816406 C 103.605469 291.027344 102.238281 291.957031 100.679688 292.613281 C 99.125 293.265625 97.503906 293.59375 95.816406 293.589844 Z M 95.816406 293.589844 " fill-opacity="1" fill-rule="nonzero"/></g><g clip-path="url(#6cd60e2702)"><path fill="#ffffff" d="M 245.535156 172.039062 C 244.667969 172.039062 243.824219 171.902344 243.003906 171.632812 C 242.179688 171.359375 241.421875 170.964844 240.726562 170.449219 C 240.03125 169.929688 239.433594 169.320312 238.9375 168.609375 C 238.4375 167.902344 238.066406 167.132812 237.816406 166.300781 L 230.9375 143.78125 C 230.855469 143.496094 230.671875 143.304688 230.390625 143.207031 L 208.253906 136.207031 C 207.539062 135.976562 206.867188 135.648438 206.238281 135.230469 C 205.609375 134.8125 205.050781 134.316406 204.5625 133.742188 C 204.074219 133.171875 203.671875 132.542969 203.355469 131.855469 C 203.039062 131.171875 202.824219 130.457031 202.707031 129.710938 C 202.589844 128.96875 202.574219 128.21875 202.664062 127.472656 C 202.753906 126.722656 202.945312 126 203.234375 125.304688 C 203.523438 124.609375 203.902344 123.964844 204.371094 123.375 C 204.839844 122.78125 205.378906 122.265625 205.988281 121.824219 L 224.910156 108.207031 C 225.164062 108.019531 225.285156 107.769531 225.277344 107.453125 L 224.980469 83.871094 C 224.96875 83.109375 225.058594 82.359375 225.257812 81.621094 C 225.457031 80.886719 225.753906 80.191406 226.148438 79.539062 C 226.542969 78.886719 227.019531 78.304688 227.582031 77.785156 C 228.140625 77.269531 228.761719 76.839844 229.441406 76.5 C 230.109375 76.160156 230.8125 75.917969 231.550781 75.777344 C 232.285156 75.636719 233.027344 75.597656 233.773438 75.667969 C 234.519531 75.738281 235.242188 75.90625 235.941406 76.179688 C 236.636719 76.453125 237.285156 76.816406 237.878906 77.273438 L 256.453125 91.378906 C 256.667969 91.546875 256.902344 91.585938 257.15625 91.496094 L 279.121094 83.917969 C 279.828125 83.671875 280.550781 83.53125 281.296875 83.492188 C 282.042969 83.449219 282.78125 83.515625 283.507812 83.679688 C 284.234375 83.847656 284.925781 84.113281 285.578125 84.476562 C 286.230469 84.835938 286.820312 85.28125 287.347656 85.808594 C 287.894531 86.34375 288.351562 86.945312 288.730469 87.609375 C 289.105469 88.277344 289.378906 88.980469 289.554688 89.722656 C 289.734375 90.46875 289.804688 91.21875 289.765625 91.984375 C 289.730469 92.746094 289.589844 93.488281 289.34375 94.210938 L 281.90625 116.546875 C 281.800781 116.855469 281.84375 117.140625 282.035156 117.40625 L 295.894531 136.308594 C 296.347656 136.921875 296.707031 137.585938 296.972656 138.296875 C 297.238281 139.011719 297.402344 139.75 297.460938 140.507812 C 297.519531 141.265625 297.472656 142.019531 297.320312 142.765625 C 297.167969 143.511719 296.917969 144.222656 296.566406 144.898438 C 296.230469 145.558594 295.8125 146.160156 295.3125 146.707031 C 294.8125 147.25 294.246094 147.714844 293.613281 148.101562 C 292.984375 148.488281 292.3125 148.78125 291.601562 148.980469 C 290.886719 149.183594 290.164062 149.28125 289.421875 149.28125 L 289.316406 149.28125 L 266.144531 148.980469 C 265.859375 148.980469 265.644531 149.097656 265.488281 149.332031 L 252.105469 168.574219 C 251.363281 169.65625 250.410156 170.503906 249.25 171.117188 C 248.085938 171.730469 246.847656 172.039062 245.535156 172.039062 Z M 233.054688 82.867188 C 232.929688 82.871094 232.8125 82.898438 232.703125 82.957031 C 232.546875 83.03125 232.425781 83.144531 232.335938 83.296875 C 232.25 83.445312 232.214844 83.605469 232.226562 83.777344 L 232.523438 107.359375 C 232.539062 108.6875 232.25 109.945312 231.652344 111.132812 C 231.058594 112.320312 230.21875 113.304688 229.144531 114.082031 L 210.222656 127.707031 C 209.910156 127.929688 209.789062 128.230469 209.867188 128.605469 C 209.902344 128.96875 210.09375 129.203125 210.441406 129.308594 L 232.566406 136.304688 C 233.191406 136.503906 233.785156 136.773438 234.347656 137.117188 C 234.90625 137.460938 235.417969 137.867188 235.878906 138.335938 C 236.339844 138.800781 236.738281 139.320312 237.074219 139.882812 C 237.410156 140.449219 237.671875 141.046875 237.859375 141.675781 L 244.742188 164.175781 C 244.777344 164.335938 244.855469 164.46875 244.976562 164.578125 C 245.09375 164.691406 245.234375 164.753906 245.398438 164.777344 C 245.730469 164.835938 245.984375 164.722656 246.160156 164.433594 L 259.539062 145.179688 C 260.289062 144.097656 261.246094 143.25 262.410156 142.636719 C 263.574219 142.027344 264.816406 141.71875 266.132812 141.71875 L 266.238281 141.71875 L 289.414062 142.019531 C 289.753906 142.035156 289.996094 141.882812 290.128906 141.566406 C 290.320312 141.21875 290.296875 140.886719 290.054688 140.574219 L 276.195312 121.683594 C 275.414062 120.613281 274.917969 119.421875 274.714844 118.113281 C 274.507812 116.800781 274.617188 115.519531 275.03125 114.257812 L 282.484375 91.914062 C 282.625 91.546875 282.550781 91.222656 282.265625 90.953125 C 282.050781 90.710938 281.789062 90.644531 281.488281 90.761719 L 259.539062 98.335938 C 258.917969 98.550781 258.28125 98.6875 257.625 98.742188 C 256.96875 98.800781 256.316406 98.777344 255.667969 98.671875 C 255.019531 98.566406 254.390625 98.386719 253.785156 98.125 C 253.179688 97.867188 252.617188 97.539062 252.09375 97.140625 L 233.519531 83.035156 C 233.382812 82.921875 233.226562 82.867188 233.054688 82.867188 Z M 285.910156 93.050781 Z M 285.910156 93.050781 " fill-opacity="1" fill-rule="nonzero"/></g><g clip-path="url(#93b694006a)"><path fill="#ffffff" d="M 105 166.953125 C 104.332031 166.953125 103.714844 166.78125 103.140625 166.4375 C 102.570312 166.097656 102.125 165.632812 101.8125 165.046875 L 93.921875 150.363281 L 79.503906 142.347656 C 78.929688 142.027344 78.476562 141.585938 78.140625 141.019531 C 77.808594 140.453125 77.640625 139.839844 77.640625 139.183594 C 77.640625 138.527344 77.808594 137.914062 78.140625 137.347656 C 78.476562 136.78125 78.929688 136.339844 79.503906 136.019531 L 93.921875 128 L 101.8125 113.320312 C 102.125 112.734375 102.570312 112.269531 103.140625 111.925781 C 103.714844 111.585938 104.332031 111.414062 105 111.414062 C 105.667969 111.414062 106.285156 111.585938 106.855469 111.925781 C 107.429688 112.269531 107.875 112.734375 108.1875 113.320312 L 116.078125 128 L 130.496094 136.019531 C 131.070312 136.339844 131.523438 136.78125 131.855469 137.347656 C 132.191406 137.914062 132.355469 138.527344 132.355469 139.183594 C 132.355469 139.839844 132.191406 140.453125 131.855469 141.019531 C 131.523438 141.585938 131.070312 142.027344 130.496094 142.347656 L 116.078125 150.363281 L 108.1875 165.046875 C 107.875 165.632812 107.429688 166.097656 106.855469 166.4375 C 106.285156 166.78125 105.667969 166.953125 105 166.953125 Z M 88.707031 139.179688 L 98.363281 144.554688 C 98.980469 144.898438 99.457031 145.378906 99.792969 146.003906 L 104.996094 155.683594 L 110.199219 146.003906 C 110.53125 145.378906 111.007812 144.898438 111.625 144.554688 L 121.285156 139.179688 L 111.625 133.800781 C 111.007812 133.457031 110.53125 132.976562 110.199219 132.355469 L 104.996094 122.671875 L 99.796875 132.363281 C 99.464844 132.988281 98.988281 133.46875 98.367188 133.8125 Z M 88.707031 139.179688 " fill-opacity="1" fill-rule="nonzero"/></g><path fill="#ffffff" d="M 213.777344 281.597656 C 213.109375 281.597656 212.488281 281.425781 211.914062 281.082031 C 211.34375 280.738281 210.898438 280.273438 210.582031 279.683594 L 202.695312 265.003906 L 188.277344 256.984375 C 187.703125 256.667969 187.25 256.222656 186.917969 255.65625 C 186.582031 255.089844 186.417969 254.476562 186.417969 253.820312 C 186.417969 253.164062 186.582031 252.550781 186.917969 251.984375 C 187.25 251.417969 187.703125 250.976562 188.277344 250.65625 L 202.695312 242.640625 L 210.582031 227.949219 C 210.898438 227.363281 211.34375 226.898438 211.914062 226.554688 C 212.488281 226.214844 213.105469 226.042969 213.773438 226.042969 C 214.441406 226.042969 215.058594 226.214844 215.632812 226.554688 C 216.203125 226.898438 216.648438 227.363281 216.964844 227.949219 L 224.851562 242.628906 L 239.269531 250.644531 C 239.84375 250.964844 240.300781 251.410156 240.632812 251.976562 C 240.964844 252.542969 241.132812 253.152344 241.132812 253.8125 C 241.132812 254.46875 240.964844 255.078125 240.632812 255.644531 C 240.300781 256.210938 239.84375 256.65625 239.269531 256.976562 L 224.851562 264.992188 L 216.964844 279.671875 C 216.652344 280.261719 216.207031 280.730469 215.636719 281.074219 C 215.066406 281.421875 214.445312 281.59375 213.777344 281.597656 Z M 197.484375 253.824219 L 207.144531 259.199219 C 207.761719 259.542969 208.238281 260.027344 208.570312 260.648438 L 213.773438 270.328125 L 218.976562 260.648438 C 219.3125 260.023438 219.789062 259.542969 220.40625 259.195312 L 230.066406 253.824219 L 220.410156 248.441406 C 219.792969 248.097656 219.316406 247.613281 218.984375 246.992188 L 213.78125 237.3125 L 208.574219 246.992188 C 208.238281 247.613281 207.761719 248.097656 207.144531 248.441406 Z M 197.484375 253.824219 " fill-opacity="1" fill-rule="nonzero"/><path fill="#ffffff" d="M 263.472656 252.597656 C 262.804688 252.597656 262.183594 252.429688 261.613281 252.085938 C 261.039062 251.742188 260.59375 251.277344 260.28125 250.691406 L 250.390625 232.285156 L 232.308594 222.226562 C 231.734375 221.90625 231.285156 221.460938 230.953125 220.894531 C 230.621094 220.332031 230.453125 219.71875 230.453125 219.0625 C 230.453125 218.410156 230.621094 217.796875 230.953125 217.230469 C 231.285156 216.667969 231.734375 216.222656 232.308594 215.902344 L 250.386719 205.84375 L 260.277344 187.4375 C 260.59375 186.851562 261.035156 186.386719 261.609375 186.042969 C 262.179688 185.699219 262.800781 185.53125 263.46875 185.53125 C 264.132812 185.53125 264.753906 185.699219 265.328125 186.042969 C 265.898438 186.386719 266.34375 186.851562 266.65625 187.4375 L 276.550781 205.84375 L 294.640625 215.902344 C 295.214844 216.222656 295.667969 216.667969 296 217.230469 C 296.332031 217.796875 296.5 218.410156 296.5 219.066406 C 296.5 219.722656 296.332031 220.335938 296 220.902344 C 295.667969 221.46875 295.214844 221.910156 294.640625 222.230469 L 276.5625 232.289062 L 266.660156 250.691406 C 266.34375 251.277344 265.902344 251.742188 265.328125 252.085938 C 264.757812 252.425781 264.136719 252.597656 263.472656 252.597656 Z M 241.519531 219.0625 L 254.839844 226.472656 C 255.457031 226.820312 255.929688 227.300781 256.265625 227.925781 L 263.472656 241.332031 L 270.675781 227.925781 C 271.007812 227.300781 271.484375 226.816406 272.105469 226.472656 L 285.425781 219.0625 L 272.105469 211.648438 C 271.484375 211.304688 271.007812 210.820312 270.675781 210.199219 L 263.472656 196.796875 L 256.265625 210.199219 C 255.929688 210.820312 255.457031 211.304688 254.839844 211.648438 Z M 241.519531 219.0625 " fill-opacity="1" fill-rule="nonzero"/></svg>