<svg xmlns="http://www.w3.org/2000/svg" xmlns:xlink="http://www.w3.org/1999/xlink" width="2000" zoomAndPan="magnify" viewBox="0 0 1500 1499.999933" height="2000" preserveAspectRatio="xMidYMid meet" version="1.0"><defs><clipPath id="1ea81eae49"><path d="M 345.191406 137 L 1109.441406 137 L 1109.441406 1397 L 345.191406 1397 Z M 345.191406 137 " clip-rule="nonzero"/></clipPath></defs><rect x="-150" width="1800" fill="#ffffff" y="-149.999993" height="1799.99992" fill-opacity="1"/><rect x="-150" width="1800" fill="#ffffff" y="-149.999993" height="1799.99992" fill-opacity="1"/><g clip-path="url(#1ea81eae49)"><path fill="#000000" d="M 916.863281 494.09375 C 915.578125 498.859375 914.882812 503.707031 914.769531 508.636719 C 913.695312 520.1875 913.539062 531.746094 914.300781 543.320312 C 915.046875 554.558594 914.523438 565.734375 912.730469 576.855469 C 912.601562 578.050781 912.324219 579.210938 911.90625 580.339844 C 911.484375 581.46875 910.933594 582.527344 910.246094 583.515625 C 909.5625 584.503906 908.765625 585.394531 907.855469 586.183594 C 906.949219 586.972656 905.957031 587.636719 904.882812 588.179688 C 903.503906 588.910156 902.355469 589.910156 901.4375 591.171875 C 900.519531 592.433594 899.925781 593.835938 899.652344 595.371094 C 896.332031 607.769531 894.027344 620.691406 888.824219 632.277344 C 883.90625 643.238281 882.597656 654.40625 881.1875 665.8125 C 880.402344 672.296875 876.976562 677.84375 875.277344 684.121094 C 874.21875 687.226562 873.644531 690.417969 873.550781 693.695312 C 874.082031 702.269531 874.160156 710.847656 873.785156 719.429688 C 873.011719 727.527344 870.960938 735.289062 867.636719 742.710938 C 863.0625 753.539062 858.039062 764.421875 857.386719 776.53125 C 857.386719 777.863281 857.175781 779.488281 855.972656 779.90625 C 851.003906 781.65625 851.761719 785.710938 851.867188 789.453125 C 852.023438 795.074219 850.402344 799.625 844.910156 802.007812 C 842.292969 803.15625 842.292969 805.222656 842.503906 807.5 C 843.441406 824.820312 842.464844 842.03125 839.574219 859.132812 C 838.316406 867.175781 835.832031 874.824219 832.121094 882.070312 C 821.839844 902.945312 808.851562 921.972656 793.148438 939.144531 C 781.691406 951.542969 772.355469 966.007812 759.148438 976.757812 C 753.660156 981.476562 748.632812 986.644531 744.070312 992.265625 C 739.511719 997.886719 735.484375 1003.867188 732 1010.210938 C 720.804688 1029.359375 707.289062 1046.699219 691.457031 1062.234375 C 681.519531 1071.992188 671.398438 1081.695312 663.707031 1093.492188 C 663.269531 1094.347656 662.605469 1094.957031 661.71875 1095.324219 C 653.875 1096.8125 651.257812 1103.171875 648.433594 1109.421875 C 645.609375 1115.671875 641.503906 1120.722656 634.542969 1122.65625 C 633.976562 1122.824219 633.441406 1123.058594 632.933594 1123.363281 C 632.425781 1123.667969 631.964844 1124.03125 631.554688 1124.457031 C 631.140625 1124.878906 630.789062 1125.351562 630.5 1125.863281 C 630.207031 1126.378906 629.988281 1126.921875 629.835938 1127.496094 C 617.859375 1157.992188 601.511719 1186.375 586.65625 1215.460938 C 584.457031 1219.722656 581.660156 1223.644531 583.359375 1228.851562 C 583.496094 1229.257812 583.558594 1229.675781 583.542969 1230.101562 C 583.527344 1230.53125 583.4375 1230.945312 583.273438 1231.339844 C 583.105469 1231.734375 582.875 1232.085938 582.578125 1232.398438 C 582.28125 1232.707031 581.941406 1232.957031 581.554688 1233.140625 C 577.710938 1234.789062 577.132812 1238.214844 576.453125 1241.640625 C 574.910156 1249.488281 573.394531 1257.152344 571.851562 1264.867188 C 570.9375 1269.367188 573.054688 1273.839844 571.617188 1278.390625 C 571.066406 1280.167969 573.054688 1280.5625 574.519531 1281.007812 C 578.757812 1281.949219 582.941406 1282.941406 588.722656 1284.300781 C 582.941406 1286.054688 579.097656 1284.300781 575.171875 1283.570312 C 573.96875 1283.335938 572.21875 1281.976562 571.667969 1284.40625 C 571.222656 1286.265625 571.667969 1287.675781 573.917969 1287.964844 C 574.457031 1288.078125 574.988281 1288.214844 575.511719 1288.382812 C 594.660156 1293.429688 602.140625 1307.765625 594.789062 1326.285156 C 590.734375 1336.457031 584.328125 1344.957031 573.605469 1348.933594 C 572.285156 1349.550781 571.125 1350.386719 570.117188 1351.4375 C 569.113281 1352.488281 568.328125 1353.6875 567.769531 1355.027344 C 565.390625 1359.265625 563.167969 1359.320312 560.628906 1355.34375 C 560.011719 1354.519531 559.242188 1353.878906 558.324219 1353.421875 C 557.402344 1352.960938 556.429688 1352.730469 555.398438 1352.726562 C 553.097656 1352.4375 553.28125 1354.847656 552.628906 1356.207031 C 550.949219 1360.378906 548.382812 1363.910156 544.9375 1366.800781 C 542.558594 1368.886719 540.8125 1371.417969 539.707031 1374.382812 C 539.039062 1376.519531 537.933594 1378.394531 536.386719 1380.007812 C 531.546875 1383.566406 527.441406 1387.226562 527.492188 1393.921875 C 527.492188 1395.964844 525.609375 1396.929688 523.464844 1396.746094 C 520.691406 1396.539062 517.683594 1396.589844 516.636719 1393.296875 C 516.523438 1392.824219 516.367188 1392.371094 516.171875 1391.925781 C 515.972656 1391.484375 515.742188 1391.0625 515.472656 1390.660156 C 515.203125 1390.257812 514.902344 1389.882812 514.566406 1389.535156 C 514.230469 1389.1875 513.867188 1388.867188 513.480469 1388.582031 C 513.089844 1388.296875 512.675781 1388.046875 512.242188 1387.832031 C 511.808594 1387.617188 511.359375 1387.445312 510.894531 1387.308594 C 510.429688 1387.171875 509.957031 1387.078125 509.476562 1387.023438 C 508.996094 1386.972656 508.515625 1386.960938 508.03125 1386.992188 C 504.449219 1386.992188 501.886719 1384.613281 499.167969 1382.832031 C 496.445312 1381.054688 493.777344 1380.636719 491.320312 1383.121094 C 491.03125 1383.484375 490.691406 1383.785156 490.292969 1384.019531 C 489.894531 1384.257812 489.464844 1384.414062 489.007812 1384.488281 C 488.550781 1384.566406 488.097656 1384.558594 487.644531 1384.46875 C 487.191406 1384.375 486.765625 1384.207031 486.375 1383.957031 C 484.363281 1382.832031 484.570312 1380.949219 484.703125 1379.117188 C 485.851562 1364.183594 486.375 1349.378906 493.515625 1335.332031 C 497.464844 1327.484375 497.726562 1317.964844 502.488281 1310.144531 C 502.824219 1309.457031 502.902344 1308.742188 502.722656 1308 C 500.421875 1297.695312 503.480469 1288.511719 507.953125 1279.382812 C 512.425781 1270.257812 513.707031 1259.191406 515.226562 1248.992188 C 518.46875 1227.203125 519.933594 1205.152344 522.207031 1183.234375 C 522.523438 1180.332031 521.265625 1180.015625 518.808594 1179.808594 C 493.570312 1177.585938 472.277344 1187.65625 452.113281 1201.203125 C 451.375 1201.601562 450.761719 1202.140625 450.269531 1202.820312 C 449.78125 1203.496094 449.460938 1204.25 449.316406 1205.074219 C 449.246094 1206.175781 449.070312 1207.261719 448.777344 1208.324219 C 448.488281 1209.390625 448.089844 1210.414062 447.589844 1211.398438 C 447.085938 1212.382812 446.492188 1213.304688 445.800781 1214.164062 C 445.105469 1215.023438 444.335938 1215.804688 443.480469 1216.503906 C 442.75 1217.082031 441.992188 1218.046875 442.566406 1218.886719 C 447.796875 1226.289062 439.140625 1226.730469 436.550781 1229.582031 C 435.191406 1231.101562 433.515625 1232.199219 433.125 1234.316406 C 431.851562 1241.265625 429.332031 1247.726562 425.566406 1253.699219 C 423.527344 1256.800781 422.089844 1260.15625 421.25 1263.769531 C 418.636719 1277.5 411.730469 1289.535156 406.238281 1302.089844 C 399.726562 1316.917969 387.640625 1325.996094 371.949219 1329.8125 C 363.109375 1331.984375 357.640625 1329.5 352.566406 1321.96875 C 350.527344 1318.878906 348.949219 1315.570312 347.828125 1312.042969 C 346.707031 1308.511719 346.089844 1304.898438 345.976562 1301.199219 C 345.214844 1288.84375 345.992188 1276.585938 348.304688 1264.421875 C 349.300781 1259.066406 350.929688 1253.910156 353.191406 1248.957031 C 355.449219 1244 358.277344 1239.390625 361.667969 1235.128906 C 368.121094 1227.105469 374.105469 1218.742188 379.613281 1210.042969 C 382.371094 1205.785156 384.613281 1201.273438 386.339844 1196.503906 C 388.066406 1191.734375 389.230469 1186.832031 389.839844 1181.796875 C 390.203125 1178.761719 390.882812 1175.859375 388.058594 1173.136719 C 385.785156 1170.941406 387.484375 1167.90625 389.261719 1166.257812 C 392.925781 1162.753906 392.167969 1158.152344 393.132812 1153.964844 C 393.230469 1153.523438 393.214844 1153.085938 393.082031 1152.65625 C 392.953125 1152.222656 392.726562 1151.847656 392.402344 1151.53125 C 392.179688 1151.339844 391.972656 1151.128906 391.777344 1150.910156 C 391.585938 1150.6875 391.40625 1150.457031 391.238281 1150.214844 C 391.074219 1149.972656 390.925781 1149.71875 390.792969 1149.457031 C 390.660156 1149.195312 390.542969 1148.925781 390.441406 1148.648438 C 390.34375 1148.371094 390.261719 1148.089844 390.195312 1147.800781 C 390.132812 1147.515625 390.085938 1147.226562 390.058594 1146.933594 C 390.03125 1146.640625 390.023438 1146.347656 390.03125 1146.054688 C 390.042969 1145.757812 390.070312 1145.46875 390.117188 1145.175781 C 390.160156 1144.886719 390.226562 1144.597656 390.308594 1144.316406 C 390.390625 1144.035156 390.488281 1143.757812 390.605469 1143.488281 C 390.722656 1143.21875 390.855469 1142.957031 391.007812 1142.703125 C 391.15625 1142.453125 391.320312 1142.210938 391.503906 1141.976562 C 391.683594 1141.746094 391.875 1141.523438 392.085938 1141.316406 C 392.292969 1141.109375 392.511719 1140.914062 392.746094 1140.734375 C 392.976562 1140.554688 393.21875 1140.390625 393.472656 1140.242188 C 393.726562 1140.089844 393.988281 1139.957031 394.257812 1139.839844 C 396.503906 1138.640625 398.492188 1137.105469 400.222656 1135.238281 C 401.589844 1133.875 403.039062 1132.601562 404.566406 1131.421875 C 406.097656 1130.246094 407.695312 1129.167969 409.363281 1128.195312 C 411.03125 1127.222656 412.753906 1126.359375 414.535156 1125.605469 C 416.3125 1124.855469 418.132812 1124.21875 419.992188 1123.699219 C 421.851562 1123.179688 423.738281 1122.78125 425.648438 1122.503906 C 427.5625 1122.230469 429.480469 1122.074219 431.414062 1122.042969 C 433.34375 1122.011719 435.269531 1122.105469 437.1875 1122.324219 C 439.109375 1122.539062 441.003906 1122.875 442.878906 1123.335938 C 444.304688 1123.703125 445.746094 1123.984375 447.203125 1124.179688 C 448.660156 1124.375 450.125 1124.484375 451.597656 1124.507812 C 453.066406 1124.53125 454.53125 1124.464844 455.996094 1124.316406 C 457.457031 1124.164062 458.90625 1123.929688 460.34375 1123.605469 C 461.777344 1123.285156 463.1875 1122.878906 464.578125 1122.390625 C 465.964844 1121.902344 467.316406 1121.335938 468.636719 1120.6875 C 469.957031 1120.039062 471.234375 1119.316406 472.46875 1118.515625 C 473.703125 1117.714844 474.886719 1116.847656 476.019531 1115.90625 C 481.667969 1111.226562 487.214844 1106.414062 493.28125 1102.253906 C 496.367188 1100.421875 498.761719 1097.929688 500.472656 1094.773438 C 506.359375 1082.0625 516.953125 1073.847656 528.773438 1068.015625 C 531.160156 1066.910156 533.417969 1065.59375 535.554688 1064.0625 C 537.691406 1062.53125 539.667969 1060.816406 541.480469 1058.914062 C 543.292969 1057.011719 544.910156 1054.957031 546.335938 1052.746094 C 547.765625 1050.539062 548.972656 1048.21875 549.960938 1045.785156 C 556.417969 1031.238281 564.796875 1017.898438 575.09375 1005.765625 C 579.335938 1000.90625 583.050781 995.675781 586.238281 990.070312 C 588.382812 986.015625 589.347656 982.222656 585.269531 978.195312 C 578.730469 971.65625 579.019531 971.394531 583.933594 963.101562 C 584.980469 961.371094 585.921875 959.582031 586.757812 957.742188 C 589.820312 951.097656 589.503906 950.023438 582.574219 947.277344 C 579.148438 945.917969 578.441406 943.773438 579.960938 940.84375 C 580.273438 940.136719 580.503906 939.402344 580.648438 938.640625 C 580.789062 937.878906 580.84375 937.109375 580.808594 936.335938 C 580.773438 935.5625 580.644531 934.800781 580.433594 934.054688 C 580.21875 933.3125 579.921875 932.601562 579.539062 931.925781 C 571.328125 912.046875 563.296875 892.089844 560.472656 870.535156 C 559.820312 865.988281 559.402344 861.421875 559.21875 856.832031 C 558.644531 838.835938 558.355469 820.8125 557.78125 802.816406 C 557.132812 787.984375 559.007812 773.476562 563.402344 759.292969 C 564.414062 756.519531 564.933594 753.65625 564.964844 750.703125 C 564.996094 747.75 564.539062 744.878906 563.585938 742.082031 C 560.394531 732.875 562.617188 723.929688 566.410156 715.324219 C 566.699219 714.644531 566.960938 713.78125 567.507812 713.441406 C 578.992188 705.988281 572.503906 697.382812 568.792969 689.300781 C 568.25 688.238281 567.832031 687.128906 567.535156 685.972656 C 567.238281 684.820312 567.070312 683.644531 567.035156 682.453125 C 567 681.261719 567.09375 680.082031 567.320312 678.910156 C 567.546875 677.738281 567.894531 676.609375 568.371094 675.515625 C 569.910156 671.539062 572.042969 667.914062 574.761719 664.632812 C 577.484375 661.351562 580.652344 658.589844 584.273438 656.34375 C 589.765625 652.996094 593.507812 642.0625 591.441406 635.941406 C 590.421875 632.933594 592.644531 631.179688 593.558594 628.90625 C 599.183594 615.355469 607.210938 602.75 607.238281 587.054688 C 607.15625 583.621094 607.613281 580.265625 608.617188 576.980469 C 609.617188 573.699219 611.113281 570.65625 613.097656 567.855469 C 613.800781 567.097656 614.292969 566.21875 614.578125 565.222656 C 614.863281 564.230469 614.910156 563.222656 614.71875 562.207031 C 612.679688 554.75 622.566406 551.273438 620.65625 543.582031 C 618.746094 535.894531 623.714844 531.289062 628.710938 526.632812 C 629.152344 526.265625 629.558594 525.859375 629.929688 525.421875 C 630.300781 524.980469 630.628906 524.511719 630.917969 524.015625 C 631.207031 523.515625 631.449219 523 631.644531 522.457031 C 631.84375 521.917969 631.992188 521.367188 632.09375 520.800781 C 632.195312 520.234375 632.246094 519.664062 632.246094 519.089844 C 632.246094 518.511719 632.199219 517.941406 632.101562 517.375 C 632 516.808594 631.855469 516.257812 631.660156 515.714844 C 631.460938 515.175781 631.222656 514.65625 630.933594 514.15625 C 628.546875 509.0625 626.742188 503.769531 625.523438 498.273438 C 624.304688 492.78125 623.703125 487.21875 623.714844 481.59375 C 623.714844 480.414062 624.214844 478.558594 622.617188 478.246094 C 617.386719 477.25 616.132812 473.011719 614.066406 469.089844 C 611.789062 464.773438 606.871094 462.96875 603.34375 460.015625 C 601.015625 458.078125 595.914062 461.398438 592.59375 463.753906 C 591.742188 464.515625 591.027344 465.386719 590.449219 466.371094 C 573.203125 488.714844 553.613281 508.769531 531.675781 526.527344 C 518.859375 537.226562 506.097656 548.109375 496.105469 561.734375 C 494.40625 564.039062 492.210938 566.183594 494.457031 569.582031 C 494.640625 569.914062 494.761719 570.269531 494.816406 570.644531 C 494.875 571.019531 494.863281 571.390625 494.785156 571.765625 C 494.710938 572.136719 494.570312 572.480469 494.371094 572.804688 C 494.171875 573.125 493.921875 573.402344 493.621094 573.636719 C 487.867188 578.265625 485.511719 585.328125 481.328125 591.058594 C 478.878906 594.199219 476.824219 597.578125 475.160156 601.195312 C 473.492188 604.816406 472.261719 608.574219 471.46875 612.480469 C 468.851562 627.492188 459.804688 638.898438 448.871094 648.707031 C 443.398438 653.417969 437.355469 657.226562 430.746094 660.136719 C 430.304688 660.382812 429.847656 660.59375 429.371094 660.765625 C 428.894531 660.9375 428.40625 661.070312 427.910156 661.160156 C 427.410156 661.25 426.910156 661.296875 426.402344 661.304688 C 425.898438 661.308594 425.394531 661.273438 424.894531 661.195312 C 424.394531 661.113281 423.90625 660.996094 423.425781 660.832031 C 422.945312 660.671875 422.480469 660.472656 422.035156 660.230469 C 421.589844 659.992188 421.167969 659.71875 420.769531 659.40625 C 420.367188 659.097656 419.996094 658.753906 419.65625 658.382812 C 413.824219 652.65625 407.9375 647.03125 402.132812 641.328125 C 401.214844 640.53125 400.628906 639.535156 400.378906 638.347656 C 399.488281 631.519531 398.101562 625.007812 392.53125 620.039062 C 392.179688 619.496094 391.960938 618.902344 391.875 618.261719 C 391.789062 617.621094 391.839844 616.992188 392.035156 616.375 C 395.355469 605.496094 397.761719 594.328125 405.425781 585.144531 C 409.714844 579.914062 414.058594 575.9375 420.960938 574.683594 C 426.195312 573.820312 430.457031 570.707031 435.085938 567.933594 C 445.234375 561.839844 448.53125 550.539062 456.769531 543.898438 C 471.652344 531.96875 476.726562 514.472656 485.042969 498.882812 C 493.597656 482.066406 503.066406 465.777344 513.445312 450.023438 C 518.917969 441.921875 525.148438 434.457031 532.148438 427.632812 C 538.976562 421.503906 545.445312 415.015625 551.554688 408.171875 C 553.65625 405.488281 556.273438 403.464844 559.402344 402.105469 C 564.320312 400.117188 566.042969 396.507812 566.4375 391.378906 C 568.710938 361.328125 585.503906 341.394531 611.34375 328.132812 C 617.878906 324.652344 624.78125 322.238281 632.058594 320.886719 C 634.089844 320.351562 636.152344 320.167969 638.246094 320.328125 C 640.339844 320.488281 642.351562 320.988281 644.273438 321.832031 C 647.699219 323.53125 651.492188 322.71875 655.15625 322.222656 C 668.597656 320.417969 681.964844 317.800781 695.539062 316.992188 C 700.558594 316.675781 706.445312 309.667969 706.390625 304.59375 C 706.390625 301.480469 706.105469 298.34375 706.261719 295.230469 C 706.652344 286.730469 705.632812 279.117188 697.96875 273.390625 C 696.988281 272.542969 696.109375 271.597656 695.339844 270.554688 C 694.570312 269.511719 693.921875 268.394531 693.402344 267.207031 C 692.882812 266.019531 692.5 264.785156 692.253906 263.511719 C 692.011719 262.238281 691.910156 260.953125 691.953125 259.65625 C 691.542969 256.195312 690.863281 252.785156 689.914062 249.429688 C 688.136719 240.695312 691.511719 234.074219 699.539062 231.433594 C 702.15625 230.570312 701.738281 228.820312 701.921875 227.195312 C 703.453125 214.785156 704.15625 202.324219 704.039062 189.820312 C 703.671875 172.136719 711.886719 158.902344 726.792969 150.375 C 749.128906 137.664062 772.667969 133.269531 797.699219 142.371094 C 806.382812 145.535156 815.222656 148.386719 821.789062 155.164062 C 826.175781 159.621094 829.871094 164.59375 832.867188 170.082031 C 835.867188 175.570312 838.058594 181.367188 839.441406 187.464844 C 839.414062 187.648438 839.414062 187.832031 839.441406 188.015625 C 846.375 202.6875 842.214844 217.832031 841.351562 232.820312 C 841.097656 237.0625 840.375 241.21875 839.179688 245.296875 C 837.890625 249.027344 837.636719 252.832031 838.421875 256.703125 C 838.777344 258.136719 838.820312 259.585938 838.550781 261.039062 C 838.28125 262.496094 837.722656 263.828125 836.878906 265.046875 C 834.109375 269.4375 834.789062 274.671875 834.449219 279.5625 C 833.898438 287.410156 832.929688 295.253906 828.273438 302.109375 C 826.3125 304.960938 827.59375 305.691406 830.367188 306.371094 C 843.027344 309.511719 855.632812 312.886719 868.265625 315.996094 C 886.609375 320.714844 904.5625 326.625 922.117188 333.730469 C 924.417969 334.433594 926.566406 335.457031 928.566406 336.792969 C 930.566406 338.128906 932.332031 339.722656 933.863281 341.578125 C 934.484375 342.253906 935.003906 343 935.429688 343.8125 C 935.855469 344.625 936.164062 345.480469 936.367188 346.375 C 936.566406 347.269531 936.644531 348.175781 936.605469 349.089844 C 936.570312 350.007812 936.414062 350.902344 936.136719 351.777344 C 934.910156 355.285156 936.582031 358.238281 938.753906 360.933594 C 959.441406 387.402344 977.148438 416.019531 998.335938 442.203125 C 1010.574219 457.347656 1022.761719 473.011719 1031.472656 490.800781 C 1033.078125 493.492188 1034.375 496.328125 1035.371094 499.300781 C 1035.917969 501.339844 1035.839844 502.882812 1033.671875 503.800781 C 1028.699219 505.839844 1030.402344 510.128906 1032.285156 512.246094 C 1033.234375 513.214844 1034.007812 514.308594 1034.605469 515.523438 C 1035.203125 516.742188 1035.597656 518.019531 1035.789062 519.363281 C 1036.3125 524.804688 1041.542969 526.6875 1043.898438 530.84375 C 1047.464844 537.027344 1050.613281 543.417969 1053.339844 550.015625 C 1060.6875 568.039062 1068.378906 585.957031 1071.832031 605.285156 C 1073.949219 617.109375 1071.386719 629.53125 1074.761719 640.910156 C 1079.390625 656.605469 1083.46875 673.265625 1100.078125 681.921875 C 1106.5625 685.296875 1109.46875 690.058594 1109.023438 698.296875 C 1108.578125 706.535156 1108.449219 714.253906 1104.601562 721.679688 C 1102.25 726.179688 1099.03125 728.925781 1093.800781 728.691406 C 1092.808594 728.546875 1091.84375 728.660156 1090.910156 729.03125 C 1089.976562 729.398438 1089.199219 729.976562 1088.570312 730.757812 C 1087.917969 731.605469 1087.160156 732.339844 1086.296875 732.972656 C 1085.429688 733.601562 1084.496094 734.097656 1083.492188 734.457031 C 1082.484375 734.820312 1081.449219 735.03125 1080.382812 735.097656 C 1079.316406 735.160156 1078.261719 735.074219 1077.21875 734.835938 C 1075.417969 734.574219 1073.625 734.605469 1071.832031 734.925781 C 1070.042969 735.25 1068.351562 735.847656 1066.757812 736.722656 C 1061.867188 739.046875 1057.15625 741.375 1051.0625 739.859375 C 1047.976562 739.074219 1043.976562 742.1875 1040.339844 743.441406 C 1038.324219 744.125 1036.234375 745.457031 1034.21875 743.441406 C 1033.765625 742.980469 1033.386719 742.460938 1033.085938 741.886719 C 1032.785156 741.3125 1032.570312 740.703125 1032.449219 740.066406 C 1032.324219 739.429688 1032.296875 738.789062 1032.363281 738.144531 C 1032.429688 737.5 1032.585938 736.875 1032.832031 736.277344 C 1033.582031 734.378906 1034.617188 732.652344 1035.9375 731.097656 C 1037.257812 729.542969 1038.796875 728.246094 1040.550781 727.199219 C 1041.371094 726.550781 1042.140625 725.851562 1042.863281 725.09375 C 1043.585938 724.335938 1044.25 723.53125 1044.859375 722.679688 C 1045.46875 721.828125 1046.011719 720.9375 1046.492188 720.007812 C 1046.976562 719.078125 1047.386719 718.121094 1047.734375 717.132812 C 1048.078125 716.144531 1048.355469 715.140625 1048.558594 714.113281 C 1048.761719 713.085938 1048.890625 712.050781 1048.945312 711.007812 C 1049 709.960938 1048.984375 708.917969 1048.890625 707.875 C 1048.800781 706.832031 1048.632812 705.804688 1048.394531 704.785156 C 1048.234375 704.371094 1048.023438 703.984375 1047.765625 703.625 C 1047.507812 703.265625 1047.210938 702.941406 1046.871094 702.65625 C 1046.535156 702.367188 1046.167969 702.125 1045.773438 701.925781 C 1045.375 701.730469 1044.960938 701.582031 1044.527344 701.488281 C 1044.097656 701.394531 1043.660156 701.351562 1043.214844 701.363281 C 1042.773438 701.375 1042.339844 701.441406 1041.910156 701.558594 C 1041.484375 701.675781 1041.078125 701.84375 1040.695312 702.0625 C 1040.308594 702.28125 1039.953125 702.542969 1039.632812 702.847656 C 1037.816406 705.421875 1035.628906 707.628906 1033.070312 709.464844 C 1029.222656 711.714844 1025.769531 711.246094 1023.992188 706.851562 C 1022.109375 702.65625 1019.941406 698.621094 1017.480469 694.738281 C 1013.035156 687.128906 1013.921875 681.085938 1020.460938 675.121094 C 1021.523438 674.234375 1022.453125 673.226562 1023.246094 672.09375 C 1024.042969 670.960938 1024.675781 669.746094 1025.148438 668.445312 C 1025.621094 667.144531 1025.917969 665.808594 1026.035156 664.429688 C 1026.15625 663.050781 1026.09375 661.679688 1025.851562 660.316406 C 1025.421875 658.902344 1025.222656 657.453125 1025.253906 655.976562 C 1025.285156 654.496094 1025.546875 653.058594 1026.03125 651.660156 C 1027.027344 649.621094 1025.640625 648.207031 1024.648438 646.664062 C 1021.332031 641.589844 1018.03125 636.507812 1014.734375 631.414062 C 1007.53125 620.3125 1002.394531 608.324219 999.328125 595.449219 C 997.738281 588.070312 995.296875 580.988281 991.996094 574.199219 C 988.695312 567.410156 984.636719 561.109375 979.816406 555.300781 C 975.292969 550.070312 968.804688 546.488281 966.398438 539.476562 C 966.34375 539.296875 966.253906 539.136719 966.132812 538.996094 C 966.011719 538.855469 965.863281 538.742188 965.695312 538.660156 C 965.527344 538.582031 965.351562 538.535156 965.164062 538.527344 C 964.976562 538.519531 964.796875 538.546875 964.621094 538.613281 C 959.078125 540.027344 956.773438 535.996094 954.027344 532.519531 C 947.59375 524.855469 941.316406 517.007812 932.660156 511.59375 C 926.09375 507.332031 922.460938 500.164062 916.863281 494.09375 Z M 916.863281 494.09375 " fill-opacity="1" fill-rule="nonzero"/></g><path fill="#000000" d="M 853.382812 1416.523438 C 851.90625 1416.511719 850.429688 1416.464844 848.953125 1416.382812 C 847.476562 1416.300781 846.003906 1416.179688 844.53125 1416.027344 C 843.0625 1415.871094 841.597656 1415.679688 840.136719 1415.453125 C 838.675781 1415.226562 837.21875 1414.964844 835.773438 1414.664062 C 834.324219 1414.367188 832.886719 1414.03125 831.453125 1413.664062 C 830.019531 1413.296875 828.601562 1412.890625 827.1875 1412.453125 C 825.777344 1412.015625 824.375 1411.539062 822.988281 1411.035156 C 821.597656 1410.527344 820.222656 1409.984375 818.863281 1409.410156 C 817.5 1408.835938 816.152344 1408.226562 814.820312 1407.585938 C 813.488281 1406.945312 812.171875 1406.269531 810.871094 1405.566406 C 809.574219 1404.859375 808.292969 1404.125 807.03125 1403.355469 C 805.765625 1402.585938 804.523438 1401.789062 803.300781 1400.957031 C 802.074219 1400.128906 800.871094 1399.269531 799.691406 1398.378906 C 798.507812 1397.492188 797.351562 1396.574219 796.214844 1395.628906 C 795.078125 1394.683594 793.964844 1393.710938 792.875 1392.710938 C 791.785156 1391.710938 790.722656 1390.6875 789.683594 1389.632812 C 788.644531 1388.582031 787.632812 1387.503906 786.648438 1386.402344 C 785.660156 1385.300781 784.703125 1384.175781 783.773438 1383.027344 C 782.84375 1381.878906 781.941406 1380.707031 781.066406 1379.511719 C 780.195312 1378.320312 779.351562 1377.105469 778.539062 1375.871094 C 777.722656 1374.636719 776.941406 1373.382812 776.1875 1372.109375 C 775.4375 1370.839844 774.714844 1369.546875 774.027344 1368.238281 C 773.339844 1366.929688 772.683594 1365.605469 772.058594 1364.265625 C 771.433594 1362.925781 770.84375 1361.570312 770.289062 1360.203125 C 769.730469 1358.832031 769.207031 1357.449219 768.71875 1356.054688 C 768.226562 1354.660156 767.773438 1353.253906 767.351562 1351.835938 C 766.933594 1350.417969 766.546875 1348.992188 766.195312 1347.554688 C 765.847656 1346.117188 765.53125 1344.675781 765.25 1343.222656 C 764.972656 1341.769531 764.726562 1340.3125 764.519531 1338.847656 C 764.3125 1337.386719 764.140625 1335.917969 764.003906 1334.445312 C 763.867188 1332.972656 763.769531 1331.5 763.703125 1330.023438 C 763.640625 1328.542969 763.613281 1327.066406 763.621094 1325.589844 C 763.632812 1324.109375 763.675781 1322.632812 763.757812 1321.15625 C 763.839844 1319.679688 763.957031 1318.207031 764.109375 1316.734375 C 764.261719 1315.265625 764.453125 1313.800781 764.679688 1312.339844 C 764.902344 1310.878906 765.164062 1309.421875 765.460938 1307.972656 C 765.757812 1306.527344 766.089844 1305.085938 766.457031 1303.652344 C 766.828125 1302.222656 767.230469 1300.800781 767.667969 1299.386719 C 768.105469 1297.976562 768.574219 1296.574219 769.082031 1295.183594 C 769.585938 1293.796875 770.128906 1292.417969 770.699219 1291.058594 C 771.273438 1289.695312 771.882812 1288.347656 772.519531 1287.015625 C 773.160156 1285.679688 773.832031 1284.363281 774.535156 1283.066406 C 775.242188 1281.765625 775.976562 1280.484375 776.742188 1279.21875 C 777.511719 1277.957031 778.308594 1276.710938 779.136719 1275.484375 C 779.964844 1274.261719 780.824219 1273.058594 781.710938 1271.875 C 782.597656 1270.691406 783.515625 1269.53125 784.457031 1268.394531 C 785.402344 1267.257812 786.375 1266.144531 787.371094 1265.054688 C 788.371094 1263.964844 789.394531 1262.898438 790.449219 1261.859375 C 791.5 1260.820312 792.574219 1259.804688 793.675781 1258.820312 C 794.777344 1257.832031 795.902344 1256.871094 797.046875 1255.941406 C 798.195312 1255.007812 799.367188 1254.105469 800.558594 1253.230469 C 801.75 1252.359375 802.964844 1251.511719 804.199219 1250.699219 C 805.429688 1249.882812 806.683594 1249.101562 807.957031 1248.347656 C 809.226562 1247.59375 810.519531 1246.871094 811.824219 1246.179688 C 813.132812 1245.492188 814.457031 1244.832031 815.796875 1244.207031 C 817.136719 1243.582031 818.492188 1242.992188 819.859375 1242.433594 C 821.226562 1241.875 822.609375 1241.351562 824.003906 1240.859375 C 825.398438 1240.367188 826.804688 1239.910156 828.222656 1239.488281 C 829.640625 1239.066406 831.066406 1238.679688 832.5 1238.328125 C 833.9375 1237.976562 835.378906 1237.660156 836.832031 1237.378906 C 838.285156 1237.097656 839.742188 1236.855469 841.203125 1236.644531 C 842.667969 1236.433594 844.136719 1236.261719 845.609375 1236.125 C 847.078125 1235.988281 848.554688 1235.886719 850.03125 1235.820312 C 851.507812 1235.753906 852.984375 1235.726562 854.464844 1235.734375 C 855.941406 1235.742188 857.421875 1235.785156 858.894531 1235.863281 C 860.371094 1235.945312 861.847656 1236.058594 863.316406 1236.210938 C 864.789062 1236.363281 866.253906 1236.554688 867.714844 1236.777344 C 869.175781 1237 870.628906 1237.261719 872.078125 1237.554688 C 873.527344 1237.851562 874.96875 1238.183594 876.402344 1238.550781 C 877.832031 1238.914062 879.253906 1239.316406 880.667969 1239.753906 C 882.082031 1240.1875 883.480469 1240.660156 884.871094 1241.164062 C 886.261719 1241.667969 887.636719 1242.207031 889 1242.777344 C 890.363281 1243.351562 891.710938 1243.957031 893.046875 1244.59375 C 894.378906 1245.234375 895.695312 1245.90625 896.996094 1246.605469 C 898.296875 1247.308594 899.578125 1248.046875 900.84375 1248.8125 C 902.109375 1249.578125 903.355469 1250.375 904.578125 1251.199219 C 905.804688 1252.027344 907.007812 1252.882812 908.191406 1253.769531 C 909.375 1254.65625 910.535156 1255.570312 911.675781 1256.515625 C 912.8125 1257.457031 913.929688 1258.429688 915.019531 1259.425781 C 916.109375 1260.421875 917.175781 1261.449219 918.214844 1262.496094 C 919.257812 1263.546875 920.273438 1264.625 921.257812 1265.722656 C 922.246094 1266.824219 923.207031 1267.945312 924.140625 1269.09375 C 925.074219 1270.242188 925.976562 1271.410156 926.851562 1272.601562 C 927.726562 1273.792969 928.574219 1275.003906 929.390625 1276.238281 C 930.207031 1277.46875 930.992188 1278.722656 931.746094 1279.996094 C 932.5 1281.265625 933.222656 1282.554688 933.914062 1283.863281 C 934.605469 1285.167969 935.265625 1286.492188 935.890625 1287.832031 C 936.515625 1289.171875 937.109375 1290.523438 937.671875 1291.890625 C 938.230469 1293.261719 938.757812 1294.640625 939.25 1296.035156 C 939.742188 1297.429688 940.199219 1298.835938 940.621094 1300.253906 C 941.042969 1301.667969 941.433594 1303.09375 941.785156 1304.53125 C 942.140625 1305.964844 942.457031 1307.410156 942.738281 1308.859375 C 943.023438 1310.3125 943.269531 1311.769531 943.480469 1313.234375 C 943.691406 1314.695312 943.867188 1316.164062 944.003906 1317.636719 C 944.144531 1319.109375 944.246094 1320.582031 944.3125 1322.058594 C 944.378906 1323.535156 944.410156 1325.015625 944.402344 1326.492188 C 944.394531 1327.972656 944.347656 1329.453125 944.265625 1330.933594 C 944.183594 1332.410156 944.0625 1333.886719 943.910156 1335.359375 C 943.753906 1336.832031 943.5625 1338.300781 943.335938 1339.765625 C 943.109375 1341.226562 942.847656 1342.6875 942.550781 1344.136719 C 942.25 1345.585938 941.917969 1347.03125 941.550781 1348.464844 C 941.179688 1349.898438 940.777344 1351.324219 940.339844 1352.738281 C 939.898438 1354.152344 939.425781 1355.554688 938.917969 1356.945312 C 938.410156 1358.339844 937.871094 1359.714844 937.296875 1361.082031 C 936.71875 1362.445312 936.113281 1363.796875 935.46875 1365.132812 C 934.828125 1366.464844 934.15625 1367.785156 933.449219 1369.085938 C 932.742188 1370.390625 932.007812 1371.671875 931.238281 1372.9375 C 930.46875 1374.203125 929.667969 1375.453125 928.839844 1376.679688 C 928.011719 1377.90625 927.152344 1379.109375 926.261719 1380.296875 C 925.371094 1381.480469 924.453125 1382.640625 923.507812 1383.78125 C 922.5625 1384.921875 921.589844 1386.035156 920.589844 1387.128906 C 919.589844 1388.21875 918.5625 1389.285156 917.507812 1390.328125 C 916.457031 1391.371094 915.378906 1392.386719 914.273438 1393.375 C 913.171875 1394.363281 912.046875 1395.324219 910.894531 1396.257812 C 909.746094 1397.191406 908.574219 1398.09375 907.378906 1398.972656 C 906.1875 1399.847656 904.96875 1400.695312 903.734375 1401.511719 C 902.5 1402.328125 901.246094 1403.113281 899.96875 1403.867188 C 898.695312 1404.621094 897.402344 1405.34375 896.09375 1406.035156 C 894.785156 1406.726562 893.457031 1407.386719 892.117188 1408.015625 C 890.773438 1408.640625 889.417969 1409.234375 888.046875 1409.792969 C 886.675781 1410.355469 885.292969 1410.878906 883.894531 1411.371094 C 882.5 1411.863281 881.089844 1412.320312 879.671875 1412.746094 C 878.25 1413.167969 876.824219 1413.554688 875.382812 1413.910156 C 873.945312 1414.261719 872.5 1414.582031 871.046875 1414.863281 C 869.59375 1415.144531 868.132812 1415.390625 866.667969 1415.601562 C 865.199219 1415.8125 863.730469 1415.988281 862.253906 1416.125 C 860.78125 1416.265625 859.304688 1416.367188 857.824219 1416.433594 C 856.34375 1416.5 854.863281 1416.527344 853.382812 1416.523438 Z M 853.382812 1416.523438 " fill-opacity="1" fill-rule="nonzero"/></svg>