<svg xmlns="http://www.w3.org/2000/svg" xmlns:xlink="http://www.w3.org/1999/xlink" width="1024" zoomAndPan="magnify" viewBox="0 0 768 767.999994" height="1024" preserveAspectRatio="xMidYMid meet" version="1.0"><defs><clipPath id="e416f7fa16"><path d="M 156.070312 17 L 595.570312 17 L 595.570312 742 L 156.070312 742 Z M 156.070312 17 " clip-rule="nonzero"/></clipPath><clipPath id="32e0bd42c1"><path d="M 396 649 L 501 649 L 501 753.777344 L 396 753.777344 Z M 396 649 " clip-rule="nonzero"/></clipPath></defs><rect x="-76.8" width="921.6" fill="#ffffff" y="-76.799999" height="921.599993" fill-opacity="1"/><rect x="-76.8" width="921.6" fill="#ffffff" y="-76.799999" height="921.599993" fill-opacity="1"/><g clip-path="url(#e416f7fa16)"><path fill="#000000" d="M 484.824219 222.425781 C 484.085938 225.167969 483.683594 227.953125 483.617188 230.792969 C 483 237.433594 482.910156 244.085938 483.347656 250.742188 C 483.777344 257.207031 483.476562 263.636719 482.445312 270.035156 C 482.371094 270.722656 482.214844 271.390625 481.972656 272.039062 C 481.730469 272.6875 481.414062 273.296875 481.019531 273.867188 C 480.625 274.433594 480.167969 274.945312 479.644531 275.402344 C 479.121094 275.855469 478.550781 276.238281 477.933594 276.550781 C 477.140625 276.96875 476.480469 277.542969 475.953125 278.269531 C 475.425781 278.996094 475.082031 279.800781 474.925781 280.6875 C 473.015625 287.820312 471.691406 295.25 468.699219 301.917969 C 465.871094 308.222656 465.117188 314.648438 464.304688 321.207031 C 463.855469 324.9375 461.882812 328.128906 460.90625 331.738281 C 460.300781 333.527344 459.96875 335.363281 459.914062 337.246094 C 460.21875 342.179688 460.265625 347.117188 460.050781 352.054688 C 459.605469 356.710938 458.425781 361.175781 456.515625 365.445312 C 453.882812 371.675781 450.996094 377.933594 450.617188 384.898438 C 450.617188 385.667969 450.5 386.601562 449.804688 386.839844 C 446.949219 387.847656 447.386719 390.179688 447.445312 392.332031 C 447.535156 395.566406 446.601562 398.1875 443.445312 399.554688 C 441.941406 400.21875 441.941406 401.40625 442.058594 402.714844 C 442.601562 412.679688 442.039062 422.578125 440.375 432.417969 C 439.652344 437.046875 438.222656 441.445312 436.089844 445.613281 C 430.175781 457.621094 422.707031 468.566406 413.679688 478.445312 C 407.089844 485.578125 401.71875 493.898438 394.125 500.082031 C 387.761719 505.554688 382.554688 511.96875 378.511719 519.328125 C 372.074219 530.34375 364.304688 540.316406 355.199219 549.253906 C 349.484375 554.867188 343.660156 560.449219 339.238281 567.234375 C 338.988281 567.726562 338.605469 568.078125 338.097656 568.289062 C 333.585938 569.148438 332.082031 572.804688 330.457031 576.398438 C 328.832031 579.996094 326.46875 582.898438 322.46875 584.011719 C 321.804688 584.207031 321.230469 584.550781 320.75 585.046875 C 320.265625 585.542969 319.9375 586.125 319.761719 586.796875 C 312.871094 604.339844 303.472656 620.667969 294.929688 637.398438 C 293.664062 639.851562 292.054688 642.109375 293.035156 645.101562 C 293.113281 645.335938 293.148438 645.574219 293.140625 645.824219 C 293.132812 646.070312 293.078125 646.304688 292.984375 646.53125 C 292.886719 646.761719 292.753906 646.964844 292.585938 647.140625 C 292.414062 647.320312 292.21875 647.464844 291.996094 647.570312 C 289.785156 648.519531 289.453125 650.488281 289.0625 652.460938 C 288.175781 656.972656 287.304688 661.382812 286.414062 665.820312 C 285.890625 668.410156 287.109375 670.980469 286.28125 673.601562 C 285.964844 674.625 287.109375 674.847656 287.949219 675.105469 C 290.386719 675.648438 292.792969 676.21875 296.117188 677 C 292.792969 678.007812 290.582031 677 288.324219 676.578125 C 287.632812 676.445312 286.625 675.660156 286.308594 677.0625 C 286.054688 678.128906 286.308594 678.941406 287.605469 679.109375 C 287.914062 679.171875 288.21875 679.253906 288.519531 679.347656 C 299.53125 682.253906 303.832031 690.496094 299.605469 701.152344 C 297.273438 707.003906 293.589844 711.894531 287.421875 714.179688 C 286.664062 714.535156 285.996094 715.015625 285.417969 715.621094 C 284.839844 716.226562 284.390625 716.914062 284.070312 717.6875 C 282.699219 720.125 281.421875 720.15625 279.964844 717.867188 C 279.605469 717.394531 279.164062 717.027344 278.636719 716.761719 C 278.105469 716.496094 277.546875 716.363281 276.953125 716.363281 C 275.632812 716.199219 275.738281 717.582031 275.359375 718.363281 C 274.394531 720.765625 272.921875 722.796875 270.9375 724.457031 C 269.570312 725.660156 268.566406 727.113281 267.929688 728.820312 C 267.546875 730.050781 266.910156 731.128906 266.019531 732.058594 C 263.238281 734.101562 260.875 736.210938 260.90625 740.0625 C 260.90625 741.234375 259.824219 741.792969 258.589844 741.6875 C 256.996094 741.566406 255.265625 741.597656 254.664062 739.699219 C 254.527344 739.15625 254.304688 738.652344 253.992188 738.183594 C 253.683594 737.71875 253.300781 737.320312 252.847656 736.988281 C 252.394531 736.65625 251.898438 736.414062 251.363281 736.257812 C 250.824219 736.097656 250.273438 736.039062 249.714844 736.074219 C 247.65625 736.074219 246.179688 734.703125 244.617188 733.683594 C 243.050781 732.660156 241.519531 732.417969 240.105469 733.847656 C 239.9375 734.054688 239.742188 734.230469 239.511719 734.363281 C 239.285156 734.5 239.039062 734.589844 238.773438 734.636719 C 238.511719 734.679688 238.25 734.675781 237.988281 734.621094 C 237.730469 734.570312 237.484375 734.472656 237.261719 734.328125 C 236.101562 733.683594 236.222656 732.597656 236.296875 731.546875 C 236.960938 722.953125 237.261719 714.4375 241.367188 706.355469 C 243.640625 701.84375 243.789062 696.367188 246.527344 691.867188 C 246.71875 691.472656 246.765625 691.0625 246.660156 690.632812 C 245.339844 684.703125 247.097656 679.421875 249.671875 674.171875 C 252.242188 668.921875 252.980469 662.554688 253.851562 656.6875 C 255.714844 644.152344 256.558594 631.46875 257.867188 618.859375 C 258.046875 617.191406 257.324219 617.011719 255.914062 616.890625 C 241.398438 615.609375 229.152344 621.402344 217.558594 629.199219 C 217.132812 629.425781 216.78125 629.738281 216.5 630.128906 C 216.214844 630.515625 216.03125 630.949219 215.949219 631.425781 C 215.871094 632.707031 215.539062 633.917969 214.957031 635.0625 C 214.371094 636.207031 213.585938 637.183594 212.59375 638 C 212.171875 638.332031 211.738281 638.886719 212.066406 639.371094 C 215.074219 643.628906 210.097656 643.882812 208.609375 645.523438 C 207.824219 646.394531 206.863281 647.027344 206.636719 648.246094 C 205.90625 652.242188 204.457031 655.960938 202.289062 659.394531 C 201.117188 661.179688 200.292969 663.109375 199.808594 665.1875 C 198.304688 673.089844 194.335938 680.011719 191.175781 687.234375 C 187.429688 695.765625 180.480469 700.984375 171.457031 703.183594 C 166.371094 704.429688 163.230469 703 160.3125 698.667969 C 159.136719 696.890625 158.230469 694.988281 157.585938 692.957031 C 156.941406 690.929688 156.585938 688.847656 156.519531 686.722656 C 156.082031 679.613281 156.53125 672.5625 157.859375 665.566406 C 158.433594 662.484375 159.367188 659.519531 160.667969 656.667969 C 161.96875 653.816406 163.59375 651.164062 165.546875 648.714844 C 169.257812 644.097656 172.695312 639.289062 175.863281 634.285156 C 179.078125 629.320312 181.039062 623.902344 181.746094 618.03125 C 181.957031 616.289062 182.347656 614.617188 180.722656 613.050781 C 179.414062 611.789062 180.390625 610.042969 181.414062 609.09375 C 183.519531 607.078125 183.082031 604.429688 183.640625 602.023438 C 183.757812 601.480469 183.617188 601.011719 183.21875 600.625 C 182.964844 600.398438 182.742188 600.144531 182.550781 599.867188 C 182.359375 599.585938 182.207031 599.285156 182.09375 598.964844 C 181.976562 598.644531 181.902344 598.316406 181.871094 597.976562 C 181.839844 597.640625 181.851562 597.304688 181.90625 596.96875 C 181.957031 596.632812 182.050781 596.308594 182.1875 595.996094 C 182.320312 595.683594 182.492188 595.394531 182.703125 595.125 C 182.910156 594.859375 183.148438 594.621094 183.417969 594.414062 C 183.683594 594.203125 183.976562 594.03125 184.285156 593.898438 C 185.578125 593.207031 186.71875 592.324219 187.714844 591.25 C 188.503906 590.464844 189.335938 589.734375 190.214844 589.054688 C 191.09375 588.378906 192.015625 587.757812 192.972656 587.199219 C 193.933594 586.640625 194.925781 586.140625 195.945312 585.710938 C 196.96875 585.277344 198.015625 584.910156 199.085938 584.613281 C 200.15625 584.3125 201.238281 584.085938 202.339844 583.925781 C 203.4375 583.765625 204.542969 583.679688 205.652344 583.660156 C 206.765625 583.644531 207.871094 583.695312 208.972656 583.820312 C 210.078125 583.945312 211.167969 584.140625 212.25 584.402344 C 213.890625 584.828125 215.5625 585.050781 217.261719 585.078125 C 218.957031 585.101562 220.632812 584.929688 222.289062 584.558594 C 223.945312 584.1875 225.535156 583.628906 227.058594 582.878906 C 228.582031 582.128906 230 581.214844 231.304688 580.128906 C 234.554688 577.4375 237.742188 574.667969 241.230469 572.277344 C 243.007812 571.222656 244.382812 569.789062 245.367188 567.972656 C 248.753906 560.660156 254.84375 555.933594 261.644531 552.578125 C 263.015625 551.945312 264.3125 551.1875 265.542969 550.304688 C 266.773438 549.425781 267.90625 548.4375 268.949219 547.34375 C 269.992188 546.25 270.921875 545.066406 271.742188 543.796875 C 272.5625 542.527344 273.257812 541.191406 273.828125 539.789062 C 277.539062 531.421875 282.359375 523.75 288.28125 516.769531 C 290.71875 513.976562 292.855469 510.964844 294.6875 507.742188 C 295.921875 505.410156 296.476562 503.226562 294.132812 500.910156 C 290.371094 497.148438 290.535156 496.996094 293.363281 492.226562 C 293.964844 491.230469 294.507812 490.203125 294.988281 489.144531 C 296.75 485.320312 296.566406 484.703125 292.582031 483.125 C 290.613281 482.34375 290.207031 481.109375 291.078125 479.421875 C 291.445312 478.597656 291.609375 477.730469 291.566406 476.828125 C 291.523438 475.925781 291.28125 475.082031 290.835938 474.292969 C 286.113281 462.855469 281.496094 451.375 279.871094 438.976562 C 279.496094 436.363281 279.257812 433.734375 279.152344 431.09375 C 278.820312 420.742188 278.65625 410.375 278.324219 400.023438 C 277.953125 391.488281 279.03125 383.144531 281.558594 374.984375 C 282.136719 373.386719 282.4375 371.742188 282.457031 370.042969 C 282.472656 368.34375 282.210938 366.691406 281.664062 365.082031 C 279.828125 359.785156 281.105469 354.640625 283.285156 349.691406 C 283.453125 349.300781 283.601562 348.804688 283.917969 348.609375 C 290.523438 344.320312 286.792969 339.367188 284.65625 334.71875 C 284.023438 333.480469 283.6875 332.167969 283.644531 330.78125 C 283.605469 329.394531 283.859375 328.0625 284.414062 326.789062 C 285.300781 324.503906 286.523438 322.417969 288.089844 320.53125 C 289.652344 318.644531 291.476562 317.054688 293.558594 315.761719 C 296.71875 313.835938 298.871094 307.546875 297.679688 304.023438 C 297.09375 302.292969 298.375 301.285156 298.898438 299.976562 C 302.132812 292.183594 306.75 284.929688 306.765625 275.902344 C 306.71875 273.925781 306.980469 271.996094 307.558594 270.105469 C 308.132812 268.21875 308.992188 266.46875 310.136719 264.859375 C 310.539062 264.421875 310.824219 263.914062 310.988281 263.34375 C 311.152344 262.769531 311.179688 262.191406 311.066406 261.609375 C 309.894531 257.320312 315.582031 255.316406 314.480469 250.894531 C 313.382812 246.46875 316.242188 243.824219 319.113281 241.144531 C 319.625 240.714844 320.046875 240.214844 320.382812 239.636719 C 320.71875 239.0625 320.941406 238.445312 321.058594 237.789062 C 321.175781 237.132812 321.175781 236.476562 321.0625 235.820312 C 320.949219 235.160156 320.726562 234.542969 320.394531 233.96875 C 317.609375 228.03125 316.226562 221.789062 316.242188 215.234375 C 316.242188 214.558594 316.527344 213.488281 315.609375 213.308594 C 312.601562 212.734375 311.878906 210.296875 310.691406 208.042969 C 309.382812 205.558594 306.554688 204.519531 304.523438 202.820312 C 303.1875 201.707031 300.253906 203.617188 298.34375 204.972656 C 297.855469 205.410156 297.441406 205.910156 297.109375 206.476562 C 287.195312 219.332031 275.929688 230.867188 263.3125 241.082031 C 255.941406 247.238281 248.601562 253.496094 242.855469 261.335938 C 241.878906 262.660156 240.617188 263.894531 241.910156 265.851562 C 242.015625 266.042969 242.082031 266.246094 242.117188 266.460938 C 242.148438 266.675781 242.140625 266.890625 242.097656 267.105469 C 242.054688 267.320312 241.972656 267.519531 241.859375 267.703125 C 241.742188 267.890625 241.601562 268.050781 241.429688 268.183594 C 238.117188 270.847656 236.765625 274.910156 234.359375 278.203125 C 231.503906 281.867188 229.613281 285.976562 228.6875 290.527344 C 227.183594 299.164062 221.980469 305.722656 215.691406 311.367188 C 212.546875 314.078125 209.070312 316.269531 205.269531 317.941406 C 204.757812 318.230469 204.214844 318.425781 203.636719 318.53125 C 203.0625 318.636719 202.484375 318.644531 201.90625 318.550781 C 201.324219 318.460938 200.777344 318.273438 200.261719 318 C 199.746094 317.722656 199.289062 317.367188 198.890625 316.933594 C 195.539062 313.640625 192.152344 310.402344 188.8125 307.125 C 188.285156 306.664062 187.949219 306.09375 187.804688 305.410156 C 187.296875 301.480469 186.496094 297.734375 183.292969 294.875 C 182.867188 294.21875 182.773438 293.515625 183.007812 292.769531 C 184.917969 286.511719 186.300781 280.085938 190.710938 274.804688 C 193.175781 271.792969 195.671875 269.507812 199.644531 268.785156 C 202.652344 268.289062 205.105469 266.496094 207.765625 264.902344 C 213.601562 261.398438 215.496094 254.898438 220.234375 251.074219 C 228.792969 244.214844 231.710938 234.148438 236.496094 225.179688 C 241.414062 215.503906 246.859375 206.136719 252.828125 197.074219 C 255.972656 192.410156 259.558594 188.117188 263.582031 184.191406 C 267.511719 180.667969 271.230469 176.933594 274.742188 172.996094 C 275.953125 171.453125 277.457031 170.289062 279.257812 169.507812 C 282.082031 168.363281 283.078125 166.285156 283.300781 163.335938 C 284.609375 146.050781 294.265625 134.582031 309.128906 126.953125 C 312.882812 124.953125 316.855469 123.5625 321.039062 122.785156 C 322.207031 122.480469 323.394531 122.371094 324.597656 122.464844 C 325.800781 122.558594 326.957031 122.84375 328.0625 123.328125 C 330.035156 124.308594 332.214844 123.839844 334.320312 123.554688 C 342.050781 122.515625 349.738281 121.011719 357.542969 120.546875 C 360.433594 120.363281 363.816406 116.332031 363.785156 113.414062 C 363.785156 111.621094 363.621094 109.816406 363.710938 108.027344 C 363.9375 103.136719 363.351562 98.757812 358.945312 95.460938 C 357.796875 94.476562 356.921875 93.289062 356.316406 91.90625 C 355.710938 90.519531 355.433594 89.074219 355.484375 87.5625 C 355.246094 85.570312 354.855469 83.609375 354.3125 81.679688 C 353.289062 76.652344 355.226562 72.847656 359.847656 71.328125 C 361.351562 70.832031 361.109375 69.824219 361.214844 68.890625 C 362.09375 61.75 362.5 54.582031 362.433594 47.386719 C 362.222656 37.214844 366.945312 29.601562 375.519531 24.699219 C 388.363281 17.386719 401.902344 14.855469 416.296875 20.09375 C 421.289062 21.914062 426.371094 23.554688 430.148438 27.453125 C 432.671875 30.015625 434.796875 32.875 436.519531 36.035156 C 438.246094 39.191406 439.503906 42.523438 440.300781 46.035156 C 440.285156 46.140625 440.285156 46.246094 440.300781 46.351562 C 444.285156 54.792969 441.894531 63.503906 441.398438 72.125 C 441.253906 74.5625 440.835938 76.957031 440.148438 79.300781 C 439.40625 81.449219 439.261719 83.636719 439.714844 85.863281 C 439.917969 86.6875 439.941406 87.519531 439.789062 88.359375 C 439.632812 89.195312 439.3125 89.964844 438.828125 90.664062 C 437.230469 93.191406 437.625 96.199219 437.429688 99.011719 C 437.113281 103.527344 436.554688 108.042969 433.878906 111.984375 C 432.75 113.625 433.488281 114.042969 435.082031 114.4375 C 442.363281 116.242188 449.609375 118.183594 456.875 119.972656 C 467.425781 122.6875 477.75 126.085938 487.84375 130.175781 C 490.546875 131.003906 492.800781 132.507812 494.597656 134.6875 C 494.957031 135.078125 495.257812 135.507812 495.5 135.972656 C 495.742188 136.441406 495.921875 136.933594 496.039062 137.449219 C 496.152344 137.960938 496.199219 138.484375 496.175781 139.011719 C 496.15625 139.539062 496.066406 140.054688 495.90625 140.558594 C 495.199219 142.574219 496.164062 144.273438 497.410156 145.824219 C 509.308594 161.050781 519.492188 177.511719 531.675781 192.574219 C 538.714844 201.285156 545.722656 210.296875 550.730469 220.53125 C 551.652344 222.078125 552.402344 223.710938 552.972656 225.421875 C 553.289062 226.59375 553.242188 227.480469 551.996094 228.007812 C 549.136719 229.183594 550.117188 231.648438 551.199219 232.867188 C 552.316406 234.011719 552.988281 235.375 553.214844 236.960938 C 553.515625 240.089844 556.523438 241.175781 557.875 243.566406 C 559.929688 247.125 561.738281 250.800781 563.304688 254.597656 C 567.53125 264.964844 571.957031 275.269531 573.941406 286.390625 C 575.160156 293.191406 573.683594 300.335938 575.625 306.882812 C 578.289062 315.910156 580.632812 325.496094 590.183594 330.476562 C 593.914062 332.417969 595.585938 335.15625 595.328125 339.894531 C 595.074219 344.636719 595 349.074219 592.785156 353.347656 C 591.433594 355.933594 589.582031 357.515625 586.574219 357.378906 C 586.003906 357.296875 585.449219 357.363281 584.914062 357.574219 C 584.375 357.785156 583.929688 358.117188 583.566406 358.566406 C 583.191406 359.054688 582.753906 359.480469 582.257812 359.839844 C 581.761719 360.203125 581.222656 360.488281 580.644531 360.695312 C 580.066406 360.90625 579.472656 361.027344 578.859375 361.066406 C 578.246094 361.101562 577.636719 361.050781 577.039062 360.914062 C 574.914062 360.605469 572.90625 360.964844 571.023438 362 C 568.210938 363.339844 565.503906 364.675781 561.996094 363.804688 C 560.222656 363.351562 557.921875 365.144531 555.832031 365.867188 C 554.671875 366.257812 553.46875 367.023438 552.3125 365.867188 C 552.050781 365.597656 551.832031 365.300781 551.660156 364.96875 C 551.484375 364.640625 551.363281 364.289062 551.292969 363.925781 C 551.222656 363.558594 551.207031 363.1875 551.242188 362.816406 C 551.28125 362.445312 551.371094 362.089844 551.515625 361.742188 C 551.945312 360.652344 552.539062 359.660156 553.300781 358.765625 C 554.058594 357.871094 554.945312 357.121094 555.953125 356.523438 C 556.902344 355.773438 557.726562 354.90625 558.429688 353.921875 C 559.132812 352.9375 559.683594 351.875 560.082031 350.730469 C 560.484375 349.589844 560.714844 348.414062 560.78125 347.207031 C 560.84375 346 560.738281 344.804688 560.464844 343.625 C 560.371094 343.390625 560.25 343.167969 560.101562 342.960938 C 559.953125 342.753906 559.78125 342.566406 559.589844 342.402344 C 559.394531 342.238281 559.183594 342.097656 558.957031 341.984375 C 558.726562 341.871094 558.488281 341.785156 558.238281 341.730469 C 557.992188 341.675781 557.738281 341.652344 557.484375 341.660156 C 557.230469 341.664062 556.980469 341.703125 556.734375 341.769531 C 556.488281 341.839844 556.257812 341.9375 556.035156 342.0625 C 555.8125 342.1875 555.609375 342.339844 555.425781 342.511719 C 554.378906 343.992188 553.121094 345.261719 551.648438 346.320312 C 549.4375 347.613281 547.453125 347.34375 546.429688 344.816406 C 545.347656 342.402344 544.101562 340.082031 542.683594 337.847656 C 540.128906 333.46875 540.640625 329.996094 544.398438 326.5625 C 545.011719 326.054688 545.542969 325.472656 546 324.820312 C 546.457031 324.171875 546.824219 323.472656 547.09375 322.722656 C 547.367188 321.976562 547.539062 321.203125 547.605469 320.410156 C 547.675781 319.617188 547.636719 318.832031 547.5 318.046875 C 546.992188 316.375 547.027344 314.714844 547.605469 313.066406 C 548.175781 311.894531 547.378906 311.082031 546.804688 310.191406 C 544.902344 307.273438 543 304.351562 541.105469 301.421875 C 536.964844 295.035156 534.011719 288.136719 532.246094 280.730469 C 531.332031 276.488281 529.925781 272.410156 528.03125 268.507812 C 526.132812 264.601562 523.796875 260.976562 521.027344 257.636719 C 518.425781 254.625 514.695312 252.566406 513.308594 248.53125 C 513.242188 248.316406 513.109375 248.160156 512.90625 248.0625 C 512.703125 247.964844 512.496094 247.957031 512.289062 248.035156 C 509.097656 248.847656 507.773438 246.53125 506.195312 244.53125 C 502.496094 240.121094 498.886719 235.605469 493.90625 232.492188 C 490.132812 230.039062 488.042969 225.917969 484.824219 222.425781 Z M 484.824219 222.425781 " fill-opacity="1" fill-rule="nonzero"/></g><g clip-path="url(#32e0bd42c1)"><path fill="#000000" d="M 448.316406 753.0625 C 446.617188 753.050781 444.917969 752.957031 443.226562 752.777344 C 441.535156 752.597656 439.855469 752.335938 438.191406 751.992188 C 436.523438 751.648438 434.878906 751.226562 433.253906 750.722656 C 431.628906 750.214844 430.03125 749.632812 428.464844 748.96875 C 426.898438 748.308594 425.367188 747.570312 423.871094 746.757812 C 422.375 745.945312 420.921875 745.0625 419.515625 744.109375 C 418.105469 743.152344 416.75 742.132812 415.441406 741.042969 C 414.132812 739.953125 412.878906 738.804688 411.683594 737.59375 C 410.488281 736.382812 409.355469 735.117188 408.285156 733.792969 C 407.214844 732.46875 406.210938 731.097656 405.273438 729.675781 C 404.339844 728.257812 403.476562 726.792969 402.683594 725.285156 C 401.890625 723.78125 401.171875 722.238281 400.53125 720.664062 C 399.890625 719.085938 399.328125 717.480469 398.84375 715.851562 C 398.359375 714.21875 397.957031 712.566406 397.636719 710.894531 C 397.3125 709.222656 397.074219 707.542969 396.917969 705.847656 C 396.761719 704.152344 396.6875 702.453125 396.699219 700.75 C 396.707031 699.050781 396.800781 697.351562 396.976562 695.660156 C 397.15625 693.964844 397.414062 692.285156 397.757812 690.617188 C 398.097656 688.953125 398.519531 687.304688 399.023438 685.679688 C 399.527344 684.054688 400.109375 682.457031 400.769531 680.886719 C 401.429688 679.316406 402.164062 677.785156 402.976562 676.289062 C 403.785156 674.792969 404.667969 673.339844 405.621094 671.929688 C 406.574219 670.519531 407.59375 669.160156 408.679688 667.851562 C 409.765625 666.539062 410.914062 665.289062 412.125 664.089844 C 413.335938 662.894531 414.601562 661.757812 415.921875 660.6875 C 417.242188 659.613281 418.613281 658.609375 420.03125 657.671875 C 421.453125 656.730469 422.914062 655.867188 424.417969 655.070312 C 425.921875 654.277344 427.464844 653.558594 429.039062 652.914062 C 430.613281 652.273438 432.21875 651.707031 433.847656 651.222656 C 435.476562 650.738281 437.128906 650.332031 438.800781 650.007812 C 440.46875 649.683594 442.152344 649.445312 443.847656 649.285156 C 445.539062 649.128906 447.238281 649.054688 448.9375 649.0625 C 450.640625 649.070312 452.335938 649.160156 454.03125 649.335938 C 455.722656 649.511719 457.402344 649.769531 459.070312 650.109375 C 460.734375 650.449219 462.382812 650.871094 464.007812 651.375 C 465.632812 651.875 467.230469 652.457031 468.800781 653.113281 C 470.367188 653.773438 471.902344 654.507812 473.398438 655.316406 C 474.894531 656.125 476.347656 657.007812 477.757812 657.957031 C 479.167969 658.910156 480.527344 659.929688 481.839844 661.015625 C 483.148438 662.101562 484.402344 663.25 485.601562 664.457031 C 486.800781 665.667969 487.933594 666.929688 489.007812 668.253906 C 490.082031 669.574219 491.085938 670.941406 492.027344 672.363281 C 492.964844 673.78125 493.832031 675.242188 494.628906 676.746094 C 495.425781 678.253906 496.144531 679.792969 496.789062 681.367188 C 497.433594 682.941406 498 684.546875 498.484375 686.175781 C 498.972656 687.808594 499.378906 689.457031 499.703125 691.128906 C 500.027344 692.800781 500.269531 694.480469 500.429688 696.175781 C 500.589844 697.871094 500.667969 699.570312 500.660156 701.269531 C 500.648438 702.976562 500.554688 704.675781 500.375 706.371094 C 500.199219 708.066406 499.9375 709.75 499.59375 711.421875 C 499.25 713.089844 498.828125 714.742188 498.324219 716.371094 C 497.816406 717.996094 497.234375 719.597656 496.574219 721.167969 C 495.910156 722.742188 495.175781 724.277344 494.363281 725.773438 C 493.550781 727.273438 492.664062 728.730469 491.710938 730.140625 C 490.753906 731.554688 489.734375 732.914062 488.644531 734.226562 C 487.554688 735.539062 486.40625 736.792969 485.195312 737.992188 C 483.980469 739.191406 482.714844 740.328125 481.390625 741.402344 C 480.066406 742.480469 478.695312 743.484375 477.273438 744.425781 C 475.851562 745.367188 474.386719 746.234375 472.878906 747.03125 C 471.371094 747.824219 469.828125 748.546875 468.25 749.191406 C 466.671875 749.835938 465.066406 750.402344 463.433594 750.890625 C 461.800781 751.375 460.148438 751.78125 458.476562 752.105469 C 456.800781 752.433594 455.117188 752.675781 453.417969 752.832031 C 451.722656 752.992188 450.023438 753.070312 448.316406 753.0625 Z M 448.316406 753.0625 " fill-opacity="1" fill-rule="nonzero"/></g></svg>