<?xml version="1.0" encoding="utf-8"?>
<!-- Generator: Adobe Illustrator 13.0.2, SVG Export Plug-In . SVG Version: 6.00 Build 14948)  -->
<!DOCTYPE svg PUBLIC "-//W3C//DTD SVG 1.0//EN" "http://www.w3.org/TR/2001/REC-SVG-20010904/DTD/svg10.dtd">
<svg version="1.0" id="Ebene_1" xmlns="http://www.w3.org/2000/svg" xmlns:xlink="http://www.w3.org/1999/xlink" x="0px" y="0px"
	 width="480.886px" height="566px" viewBox="0 0 480.886 566" enable-background="new 0 0 480.886 566" xml:space="preserve">
<path fill="#FFFFFF" d="M240.443,2.483c74.678,0,146.978,15.371,214.929,45.647c14.134,57.47,23.025,117.439,23.231,156.72
	c0.008,0.713,0.008,1.426,0.008,2.131c0,38.731-5.566,76.56-16.555,112.49c-10.81,35.286-26.876,68.742-47.797,99.432
	c-20.551,30.156-45.886,57.847-75.322,82.282c-31.239,25.929-67.977,49.247-98.494,62.555
	c-30.509-13.299-67.247-36.626-98.495-62.555c-29.435-24.436-54.78-52.126-75.332-82.282
	c-20.904-30.689-36.979-64.146-47.778-99.432C7.85,283.541,2.282,245.704,2.282,206.973c0-0.705,0-1.409,0-2.123
	c0.206-39.281,9.099-99.241,23.232-156.72C93.465,17.854,165.764,2.483,240.443,2.483"/>
<path fill="#CE1042" d="M240.451,223.623c16.53,0,32.116,4.261,45.587,11.813h138.756c0.283-9.708,0.11-20.611-0.078-30.904
	c-0.808-42.494-13.164-114.217-25.268-163.979c-49.222-15.929-102.035-25.259-158.972-25.259L240.451,223.623"/>
<path fill="#DA2128" d="M240.485,15.465c-55.665,0-106.906,8.299-158.851,25.019C68.859,92.042,58.292,160.329,56.71,193.097
	c-2.311,48.001,1.161,82.703,10.766,120.669c5.404,21.359,12.578,41.421,21.711,61.749c9.872-5.19,20.113-11.693,30.457-19.409
	c10.869-8.102,20.302-18.463,28.026-28.292c-0.404-3.539-0.618-7.14-0.618-10.791c0-5.619,0.489-11.118,1.434-16.47
	c-19.193,0.67-30.096,0.928-38.654,0.928c-10.327,0-19.743-7.191-24.314-18.198c-2.328,0-4.836,0-4.836,0
	c-3.634,0-9.812-3.11-9.812-14.794c0-11.676,6.178-14.794,9.812-14.794c0,0,2.508,0,4.819,0c4.571-11.041,14.004-18.24,24.331-18.24
	h85.083c13.48-7.543,29.014-11.848,45.553-11.848L240.485,15.465"/>
<path fill="#003976" d="M155.97,482.902c-26.23-26.128-47.898-54.995-65.039-85.813c-17.389-31.291-29.752-66.13-37.047-100.952
	c-7.492-35.828-9.863-72.007-7.346-110.36c2.38-36.111,11.908-90.806,23.679-141.401c-11.272,3.96-22.433,8.317-33.482,13.085
	c-12.38,49.71-21.075,112.782-21.255,147.26c-0.198,38.431,5.267,75.658,15.979,110.678c11.23,36.712,26.119,66.586,46.069,95.856
	c19.855,29.151,44.367,55.915,72.84,79.56c26.625,22.098,56.979,41.532,90.049,57.907c0,0,0.008,0,0,0
	C208.962,529.425,180.481,507.302,155.97,482.902"/>
<path fill="#003976" d="M324.881,482.91c26.23-26.126,47.89-54.995,65.03-85.813c17.397-31.291,29.753-66.121,37.048-100.952
	c7.499-35.827,9.862-72.006,7.345-110.359c-2.372-36.111-11.925-90.857-23.696-141.453c11.272,3.961,22.494,8.351,33.543,13.119
	c12.389,49.711,21.032,112.8,21.221,147.278c0.198,38.43-5.275,75.666-15.979,110.676c-10.413,34.032-25.913,66.285-46.07,95.858
	c-19.854,29.15-44.365,55.914-72.848,79.559c-26.625,22.098-56.979,41.532-90.049,57.916c0.009,0,0-0.01,0,0
	C271.888,529.434,300.37,507.32,324.881,482.91"/>
<path fill="#9A8449" d="M240.374,228.288c-49.024,0-88.77,39.754-88.77,88.761c0,49.031,39.746,88.769,88.77,88.769
	c49.023,0,88.769-39.737,88.769-88.769C329.143,268.042,289.397,228.288,240.374,228.288"/>
<path fill="#DA2128" d="M240.443,410.458c-30.165,0-57.031-14.306-74.121-36.498c-20.852,11.908-42.76,21.307-63.724,27.734
	c16.547,29.082,37.116,56.275,61.834,81.165c22.313,22.458,47.83,42.975,76.011,61.232V410.458"/>
<path fill="#9A8449" d="M109.747,296.849c-9.605,0-17.819-7.568-21.075-18.188c-3.909,0-8.068,0-8.068,0
	c-2.079,0-5.18-2.526-5.18-10.156c0-7.62,3.102-10.146,5.18-10.146c0,0,4.142,0,8.06,0c3.256-10.653,11.478-18.248,21.083-18.248
	h77.634c-18.85,13.007-32.683,32.768-38.009,55.769C132.18,296.481,119,296.849,109.747,296.849"/>
<path fill="#9A8449" d="M403.357,411.239c-19.862,29.144-44.367,55.915-72.856,79.55c-26.625,22.089-57.014,41.55-90.075,57.925
	c-33.069-16.375-63.423-35.836-90.041-57.925c-28.481-23.635-52.993-50.406-72.848-79.55c-1.572-2.311-3.11-4.648-4.622-6.984
	c28.997-4.89,61.06-17.201,90.667-34.074c-7.38-10.646-12.63-22.88-15.069-36.103c-7.415,9.115-16.256,18.36-26.343,25.887
	c-16.367,12.217-36.127,24.349-57.504,30.921c-13.979-23.824-25.13-49.127-33.198-75.503
	c-10.713-35.012-16.178-72.238-15.972-110.669c0.171-34.479,8.866-97.549,21.238-147.261c64.464-27.828,132.956-41.97,203.708-41.97
	c70.752,0,139.244,14.142,203.708,41.97c12.381,49.711,21.066,112.782,21.246,147.261c0.062,11.925-0.421,23.748-1.442,35.406
	H293.317c21.101,14.563,35.912,37.589,39.537,64.189l32.546-7.759c7.26-1.624,10.267-6.538,11.022-11.023l81.871-5.532
	c-2.382,12.011-5.337,23.815-8.877,35.389C439.004,349.397,423.513,381.65,403.357,411.239 M457.321,46.275
	C391.389,16.736,318.833,0,240.443,0S89.504,16.736,23.572,46.275C8.365,107.799,0.203,167.494,0.005,204.636
	c-0.206,39.693,5.396,78.477,16.659,115.274c10.86,35.51,27.047,69.18,48.07,100.049c20.672,30.338,46.163,58.184,75.77,82.747
	c27.836,23.11,65.545,48.466,99.938,63.294c34.393-14.828,72.109-40.184,99.945-63.294c29.608-24.563,55.091-52.409,75.753-82.747
	c21.041-30.869,37.22-64.539,48.089-100.049c11.254-36.797,16.865-75.581,16.65-115.274
	C480.691,167.494,472.52,107.799,457.321,46.275z"/>
<path fill="#FFFFFF" d="M246.268,341.595v47.829c22.32-1.787,41.799-13.678,53.853-31.084l-41.412-23.91
	C255.393,337.91,251.096,340.444,246.268,341.595"/>
<path fill="#FFFFFF" d="M234.515,244.681c-22.338,1.788-41.816,13.678-53.878,31.11l41.334,23.842
	c3.333-3.531,7.664-6.091,12.544-7.243V244.681"/>
<path fill="#FFFFFF" d="M240.365,304.126c-7.122,0-12.904,5.774-12.904,12.896c0,7.14,5.782,12.904,12.904,12.904
	c7.123,0,12.897-5.765,12.897-12.904C253.262,309.901,247.488,304.126,240.365,304.126"/>
<path fill="#FFFFFF" d="M246.268,244.681v47.709c4.871,1.161,9.21,3.721,12.526,7.253l41.343-23.852
	C288.075,258.368,268.597,246.477,246.268,244.681"/>
<path fill="#FFFFFF" d="M234.515,341.603c-3.935-0.936-7.509-2.791-10.5-5.327c-0.687-0.583-1.332-1.202-1.95-1.838l-41.412,23.902
	c0.954,1.375,1.942,2.697,2.981,4.004c12.157,15.207,30.311,25.432,50.88,27.08V341.603"/>
<path fill="#FFFFFF" d="M264.62,324.266l41.395,23.893c8.145-16.71,10.413-40.62,0.009-62.194l-41.369,23.876
	C265.986,314.154,266.123,319.334,264.62,324.266"/>
<path fill="#9A8449" d="M187.519,274.434l33.73,19.451c2.568-2.156,5.481-3.806,8.626-4.966l-0.017-38.937
	C213.173,252.483,198.085,261.194,187.519,274.434"/>
<path fill="#9A8449" d="M250.985,250.017l-0.062,39.033c3.138,1.15,5.955,2.671,8.524,4.818l33.808-19.425
	C282.697,261.203,267.678,252.517,250.985,250.017"/>
<path fill="#9A8449" d="M308.042,310.003c-0.628-5.963-2.055-11.771-4.245-17.338l-33.852,19.451
	c0.275,1.615,0.431,3.239,0.431,4.872c0,0.661-0.035,1.322-0.077,1.968c9.562-2.612,19.64-5.096,29.847-7.252
	C302.628,311.18,305.284,310.613,308.042,310.003"/>
<path fill="#CE1042" d="M240.443,544.091c28.189-18.258,53.766-38.835,76.07-61.301c26.144-26.316,47.692-55.374,64.688-86.338
	c17.259-31.454,29.46-66.413,36.564-101.355c0.56-2.698,1.073-5.276,1.556-7.973l-39.323,2.81
	c-2.081,5.516-6.789,9.604-13.388,11.082l0.069-0.017c-0.266,0.077-14.684,3.651-33.258,7.939c0.223,2.663,0.344,5.369,0.344,8.102
	c0,51.593-41.764,93.417-93.322,93.417V544.091"/>
<path fill="#9A8449" d="M248.682,317.023c0-4.57-3.737-8.316-8.317-8.316c-4.579,0-8.316,3.746-8.316,8.316
	c0,4.588,3.738,8.316,8.316,8.316C244.945,325.339,248.682,321.611,248.682,317.023"/>
<path fill="#CE1042" d="M250.907,384.115c16.669-2.5,31.824-11.186,42.383-24.417l-33.963-19.546
	c-2.543,2.122-5.327,3.789-8.42,4.923C250.907,345.075,250.968,384.115,250.907,384.115"/>
<path fill="#DA2128" d="M187.536,359.707l33.808-19.58c2.551,2.122,5.43,3.745,8.531,4.88l-0.078,39.092
	C213.122,381.597,198.103,372.938,187.536,359.707"/>
<path fill="#CE1042" d="M308.368,317.1c0-0.919-0.033-1.848-0.068-2.758c-2.56,0.55-5.009,1.092-7.32,1.573
	c-10.326,2.173-20.311,4.707-29.229,7.139l31.995,18.472C306.795,333.759,308.368,325.563,308.368,317.1"/>
<path fill="#FFFFFF" d="M174.708,286.042c-9.58,20.25-8.961,43.069,0.129,62.204l41.273-23.954c-1.4-4.647-1.46-9.674-0.034-14.494
	L174.708,286.042"/>
<path fill="#9A8449" d="M177.097,341.613l33.662-19.556c-0.576-3.298-0.558-6.65,0-9.957l-33.765-19.383
	C170.841,308.432,170.885,325.855,177.097,341.613"/>
<path fill="#9A8449" d="M355.837,159.616c-4.477,0.163-5.447-2.87-5.507-5.069c0.017-2.303,0.781-5.74,7.902-7.665
	c0.173,2.44,0.361,4.881,0.361,4.881l0.146,2.199c0.104,1.582,0.198,3.007,0.361,4.563
	C358.157,159.151,357.083,159.572,355.837,159.616 M268.289,152.27c-4.847,4.132-8.445,6.882-14.313,6.761
	c-4.614-0.094-7.466-3.204-9.219-6.684c5.068-1.899,23.969-9.004,29.382-11.032c0.062,3.961,0.138,9.279,0.138,9.279v0.043
	c0.129,3.136,0.164,6.203,0.104,9.236c0,0.043,0,0.077,0,0.121L268.289,152.27z M241.542,136.349c0,0,0-0.129,0-0.188
	c0-7.801,2.913-10.851,5.662-11.109c0.825-0.077,3.023-0.274,4.029,3.385c0.388,1.417,0.55,2.475,0.55,3.299
	c0,2.113-1.135,2.525-2.474,3.006l-0.087,0.026c0,0-3.979,1.529-7.638,2.93C241.577,137.252,241.542,136.805,241.542,136.349z
	 M97.916,142.098c1.332-3.815,2.397-6.865,4.657-13.378c1.357,6.487,2.079,9.889,2.758,13.128
	C102.487,141.951,101.198,141.994,97.916,142.098z M274.191,165.037c-0.087,1.813-0.55,7.939-0.713,9.76h26.908
	c-1.572-7.191-2.217-17.166-2.501-24.597c0,0.034-0.412-15.525-0.412-15.525c-0.051-1.478,0.37-2.715,1.212-3.6
	c0.773-0.808,1.84-1.289,2.93-1.297c1.255-0.017,3.359-0.043,3.531,4.339l0.575,16.513c0.274,7.423,0.387,17.853-0.593,24.168
	h26.214c-0.43-2.25-1.178-7.664-1.358-9.15c3.301,6.968,10.346,10.551,19.779,10.551c5.593,0,9.966-2.011,13.145-4.004
	c0.112,0.215,1.357,2.604,1.357,2.604h48.431c-2.155-7.286-3.479-17.39-4.338-24.898c0-0.043-6.615-54.265-6.615-54.265
	l-24.968-4.021c2.02,6.779,3.523,17.166,4.364,24.632c0,0.035,3.738,34.667,3.738,34.667c0.713,6.324,1.365,13.094,1.305,19.898
	l-0.009,0.842l-0.996-2.448c-1.728-4.228-2.844-10.173-3.419-18.171c-0.009-0.052-1.04-11.126-1.04-11.126
	c-1.323-17.613-11.016-25.646-32.055-25.646c-3.575,0-12.519,0.894-17.939,2.448l1.46,20.063l5.61-3.445
	c4.588-2.818,8.291-4.021,12.363-4.021c3.351,0,5.524,1.254,6.53,3.531c-4.134,0.67-8.584,1.77-13.489,3.97
	c-7.433,3.325-12.286,8.119-14.235,13.875c-0.01-0.163-0.01-0.326-0.019-0.48c-0.009-0.044-0.867-18.395-0.867-18.395
	c-0.447-11.891-7.845-19.297-19.306-19.297c-5.301,0-10.001,1.521-14.081,4.45c-0.225-0.73-0.474-1.417-0.748-2.002l-1.021-2.13
	l-21.54-0.988c0.971,3.875,2.311,14.684,2.594,18.928c-1.142-5.851-4.201-12.08-9.991-16.118c-4.398-3.05-9.914-4.674-15.954-4.674
	c-8.008,0-16.076,3.351-21.591,8.978c-5.456,5.56-8.455,13.172-8.764,22.115c-2.028-2.225-4.726-4.124-8.093-5.696l-9.897-4.717
	l-0.49-0.232c-2.38-1.108-2.465-1.495-2.414-2.139c0.077-1.005,2.371-2.097,5.619-2.097c4.072,0,9.958,2.045,14.726,5.095
	l0.404-17.715c-3.531-1.59-8.446-2.896-15.49-2.896c-3.678,0-10.74,0.524-16.823,3.96c-1.684,0.954-3.204,2.054-4.553,3.249
	l0.275-5.207c-5.731-0.645-11.874-0.825-19.374,6.125c-0.06-0.481-0.559-2.896-1.057-4.287l-23.266,1.417
	c1.727,6.237,1.941,15.68,1.469,24.1c0,0.025-0.438,8.892-0.438,8.892c0-0.025-0.069,1.006-0.069,1.006
	c-0.25,4.647-0.516,9.381-0.988,13.823c-1.942-6.014-4.081-14.219-5.688-21.032L120.04,91.002l-32.812,4.683
	c0.284,0.662,0.748,2.336,0.962,3.969c0.292,2.165,0.198,6.649-2.921,15.74c-5.267,15.336-12.845,37.992-20.087,53.62
	c-1.014,2.191-2.733,5.782-2.733,5.782h25.552c0.327-4.003,2.019-10.61,3.66-15.413c3.522-0.095,12.802-0.335,17.08-0.447
	c0.791,3.711,1.848,8.97,2.071,12.046l0.275,3.814h51.43c-1.22-8.068-0.748-19.228-0.396-25.56
	c0.404-7.183,1.907-11.779,4.88-14.872c2.303-2.406,5.06-2.973,6.985-3.024c-0.266,9.614,6.057,14.099,11.693,16.926l10.044,5.112
	c3.617,1.89,3.548,2.869,3.497,3.504c-0.146,1.934-3.058,2.681-5.73,2.612c-5.232-0.111-12.475-3.729-20.646-12.166l-0.43,22.905
	c6.47,3.643,14.314,4.95,21.454,4.95c11.649,0,24.16-5.078,27.527-15.938c5.739,10.979,17.218,16.049,28.534,16.049
	C260.032,175.295,267.583,172.039,274.191,165.037z"/>
<path fill="#FFFFFF" d="M213.508,116.348c-2.26-0.842-5.911-1.649-11.419-1.649c-4.545,0-10.31,0.867-14.872,3.445
	c-5.198,2.946-8.857,7.663-9.192,12.646c-0.5,7.423,3.616,10.955,9.434,13.876c3.96,1.984,7.724,3.909,10.103,5.146
	c3.197,1.675,5.954,3.72,5.679,7.415c-0.292,3.763-3.746,6.298-9.708,6.298c-4.915,0-12.011-2.887-16.84-7.286l-0.206,11.547
	c4.209,2.113,11.1,3.368,17.337,3.368c10.825,0,24.194-4.949,24.435-17.596c0.163-8.995-6.435-12.715-10.345-14.537
	c-3.9-1.821-8.016-3.815-9.958-4.742c-1.778-0.876-5.516-2.269-5.189-6.358c0.318-3.909,4.769-5.757,9.588-5.757
	c4.055,0,7.982,1.117,10.988,2.741L213.508,116.348"/>
<path fill="#FFFFFF" d="M92.168,146.316l11.341-32.631l6.727,32.03L92.168,146.316 M116.938,95.522l-24.77,3.548
	c0.602,3.548-0.344,9.717-3.05,17.596c-5.216,15.207-13.609,39.667-20.269,54.11h15.629c0.764-4.613,2.087-9.313,4.287-15.345
	l23.172-0.61c1.022,4.563,2.594,11.839,2.896,15.955h20.68c-2.544-5.945-5.86-18.558-7.905-27.227L116.938,95.522z"/>
<path fill="#FFFFFF" d="M176.709,116.434l-0.533,10.989c-3.642-0.473-8.428,0.327-12.088,4.132
	c-3.385,3.532-5.499,8.661-5.988,17.433c-0.396,7.216-0.662,15.129-0.052,21.788h-17.733c1.168-6.563,1.564-14.399,1.976-21.633
	l0.438-8.849c0.404-7.209,0.429-14.039-0.679-20.621l15.456-0.954c0.722,2.586,1.074,6.083,0.902,9.923
	C165.18,118.496,171.787,116.193,176.709,116.434"/>
<path fill="#FFFFFF" d="M398.1,99.139l-15.974-2.578c1.573,6.676,2.209,11.977,3.017,19.176l3.736,34.685
	c0.808,7.217,1.385,13.79,1.324,20.354h17.295c-1.537-6.563-2.32-13.136-3.145-20.354L398.1,99.139"/>
<path fill="#FFFFFF" d="M326.617,170.776c-1.03-6.563-1.435-13.136-1.692-20.354l-0.868-18.352
	c-0.37-9.752-5.971-15.534-15.362-15.534c-5.146,0-11.246,1.658-16.479,8.265c-0.146-1.391-0.945-6.022-1.915-8.058l-14.064-0.653
	c1.211,6.813,1.589,13.635,1.864,20.826l0.197,13.506c0.275,7.217,0.111,13.79-0.446,20.354h17.716
	c-1.041-6.563-1.426-13.136-1.7-20.354l-0.423-15.576c-0.205-5.525,3.928-9.039,8.188-9.099c4.933-0.06,7.347,3.205,7.535,8.153
	l0.575,16.522c0.275,7.217,0.378,13.79-0.172,20.354H326.617"/>
<path fill="#FFFFFF" d="M355.81,163.593c-5,0.215-9.33-2.431-9.502-8.849c-0.154-5.748,3.789-10.835,15.612-12.776l0.679,9.424
	c0.241,3.257,0.326,5.542,0.738,8.669C361.637,162.107,358.844,163.448,355.81,163.593 M381.44,170.776
	c-2.122-5.215-3.179-12.149-3.703-19.383l-1.031-11.075c-0.979-13.076-6.478-22.037-28.111-22.037c-3.738,0-9.21,0.61-13.601,1.581
	l0.73,10.052c4.39-2.706,8.936-4.64,14.511-4.64c5.765,0,10.757,2.363,11.229,10.972c-5.584,0.627-10.809,1.589-16.667,4.227
	c-6.59,2.947-13.386,8.266-12.743,17.321c0.714,10.009,8.275,14.373,17.794,14.373c7.165,0,12.174-3.72,14.882-6.513
	c0.497,1.848,1.201,3.703,2.009,5.121H381.44z"/>
<path fill="#FFFFFF" d="M250.667,138.522l-12.647,4.854c-0.318-2.268-0.49-4.622-0.507-7.01
	c-0.077-13.128,6.994-15.104,9.322-15.319c3.901-0.361,7.037,1.787,8.273,6.323C256.518,132.492,256.166,136.555,250.667,138.522
	 M261.69,117.955c-3.927-2.724-8.652-3.961-13.66-3.961c-11.454,0-26.755,8.128-26.351,29.41
	c0.404,21.35,16.736,27.863,28.25,27.863c10.104,0,16.229-3.574,21.221-8.867l-3.539-4.493c-2.707,2.122-6.857,5.292-13.722,5.155
	c-7.251-0.146-12.028-5.55-14.382-13.033l31.797-11.951C270.324,127.56,266.725,121.469,261.69,117.955z"/>
</svg>
