<?xml version="1.0" encoding="utf-8"?>
<!-- Generator: Adobe Illustrator 17.0.0, SVG Export Plug-In . SVG Version: 6.00 Build 0)  -->
<!DOCTYPE svg PUBLIC "-//W3C//DTD SVG 1.1//EN" "http://www.w3.org/Graphics/SVG/1.1/DTD/svg11.dtd">
<svg version="1.1"
	 id="svg2" xmlns:dc="http://purl.org/dc/elements/1.1/" xmlns:inkscape="http://www.inkscape.org/namespaces/inkscape" xmlns:sodipodi="http://sodipodi.sourceforge.net/DTD/sodipodi-0.dtd" xmlns:svg="http://www.w3.org/2000/svg" xmlns:rdf="http://www.w3.org/1999/02/22-rdf-syntax-ns#" xmlns:cc="http://creativecommons.org/ns#" inkscape:version="0.48.4 r9939" sodipodi:docname="DFBEagle.svg"
	 xmlns="http://www.w3.org/2000/svg" xmlns:xlink="http://www.w3.org/1999/xlink" x="0px" y="0px" width="707.509px"
	 height="835.113px" viewBox="0 0 707.509 835.113" enable-background="new 0 0 707.509 835.113" xml:space="preserve">
<g id="Layer_x0020_1">
	<g id="_761878240">
		<g>
			<path fill="#FEFEFE" d="M19.906,490.208c0-184.222,149.915-333.849,333.849-333.849c184.222,0,333.849,149.915,333.849,333.849
				c0,184.222-149.915,333.849-333.849,333.849C169.532,824.057,19.906,674.142,19.906,490.208z"/>
			<path fill="#FEFEFE" d="M608.898,490.208c0,140.978-114.166,254.855-254.855,254.855S99.188,630.897,99.188,490.208
				s114.166-254.855,254.855-254.855S608.898,349.518,608.898,490.208z"/>
		</g>
		<g>
			<path fill="#7C7C7D" d="M354.043,168.179c-177.591,0-321.74,144.149-321.74,321.74c0,73.516,24.505,140.978,66.02,195.178
				l27.1-13.838c-39.497-49.876-63.137-112.724-63.137-181.339c0-161.159,130.599-291.757,292.046-291.757
				c161.159,0,292.046,130.599,292.046,291.757c0,68.615-23.64,131.464-63.137,181.339l27.1,13.838
				c41.227-54.2,65.732-121.662,65.732-194.889c0-177.591-144.149-321.74-321.74-321.74L354.043,168.179z"/>
			<path d="M143.009,691.728l-26.523,15.28c33.731,36.902,76.111,66.02,123.68,83.895l13.55-26.812
				c-42.38-15.568-80.147-40.65-110.706-72.651V691.728z"/>
			<path fill="#FFCC29" d="M591.312,707.008l-26.523-15.28c-30.848,32.001-68.615,57.371-111.283,72.651l13.838,26.523
				C515.201,773.028,557.293,743.91,591.312,707.008z"/>
			<path fill="#D83135" d="M354.043,781.965c-27.1,0-53.047-3.748-77.84-10.667l-10.667,27.965
				c28.253,8.072,57.66,12.397,88.507,12.397c30.56,0,59.966-4.324,87.931-12.397l-10.667-27.965
				c-24.794,6.631-50.452,10.379-77.264,10.379V781.965z"/>
		</g>
		<g>
			<path fill="#ACACAC" d="M173.568,490.208c0,99.751,81.012,180.763,180.474,180.763s180.474-81.012,180.474-180.763
				c0-99.463-81.012-180.474-180.474-180.474S173.568,390.745,173.568,490.208z M183.947,490.208
				c0-93.697,76.399-170.096,170.096-170.096s170.096,76.399,170.096,170.096c0,93.985-76.399,170.384-170.096,170.384
				S183.947,584.193,183.947,490.208z"/>
			<path fill="#ACACAC" d="M104.954,490.208c0-137.23,111.571-248.801,248.801-248.801s248.801,111.571,248.801,248.801
				S490.984,739.009,353.755,739.009S104.954,627.438,104.954,490.208z M92.845,490.208c0,143.861,117.049,260.91,260.91,260.91
				s260.91-117.049,260.91-260.91s-117.049-260.91-260.91-260.91S92.845,346.347,92.845,490.208z"/>
		</g>
		<g>
			<path fill="#373435" d="M206.146,337.41c6.343,5.766,8.072,12.973,1.441,20.181l-3.46,3.748l-21.622-19.604l3.46-3.748
				c6.631-7.207,13.55-6.054,20.181-0.288V337.41z M210.471,332.797c-10.667-9.802-21.334-7.207-28.83,0.865l-7.496,8.361
				l30.271,27.965l7.496-8.361c7.207-8.072,9.226-19.028-1.73-28.83H210.471z"/>
			<polygon fill="#373435" points="232.958,340.581 208.741,307.139 230.363,291.571 233.823,296.472 217.39,308.292 
				223.156,316.652 232.958,309.733 236.417,314.634 226.615,321.553 234.399,332.221 251.697,319.824 255.157,324.436 			"/>
			<path fill="#373435" d="M277.356,314.346c-9.226,4.036-16.721,0.288-21.334-10.09l-9.802-21.911l5.766-2.595l9.514,21.622
				c3.171,7.207,7.784,9.514,13.55,7.207c6.054-2.595,7.207-7.496,4.036-14.415l-9.802-22.199l5.766-2.595l9.802,21.911
				c4.613,10.667,2.018,18.739-7.207,22.776L277.356,314.346z"/>
			<polygon fill="#373435" points="310.51,266.489 317.717,301.084 311.663,302.238 304.456,267.93 292.635,270.236 
				291.194,264.471 320.889,258.128 322.042,264.182 			"/>
			<path fill="#373435" d="M349.43,298.201c-6.054,0-11.244-2.306-14.703-6.343l4.324-4.324c2.883,2.883,6.919,4.901,10.955,4.613
				c5.766,0,8.361-2.018,8.361-6.054c0-3.171-2.595-4.613-9.514-6.631c-8.649-2.306-12.973-4.613-13.262-11.82
				c0-7.207,5.766-11.532,13.262-11.82c5.478,0,9.802,2.018,13.55,5.478l-4.324,4.613c-2.595-2.595-5.766-3.748-9.802-3.748
				c-4.901,0-6.919,2.595-6.919,5.189c0,2.883,2.018,4.324,9.226,6.343c8.072,2.306,13.262,4.901,13.55,12.108
				c0,7.496-4.613,12.685-14.991,12.685L349.43,298.201z"/>
			<path fill="#373435" d="M389.504,301.661c-10.379-2.018-15.568-11.82-13.262-24.217c2.306-12.397,10.379-19.604,21.046-17.874
				c6.631,1.153,10.667,4.613,12.397,10.09l-6.054,2.306c-1.441-3.748-3.46-5.766-7.496-6.343
				c-7.207-1.441-11.82,3.748-13.55,12.685c-1.73,9.226,1.153,15.568,8.072,16.721c4.324,0.865,7.207-0.577,9.802-3.46l4.324,4.324
				c-3.748,4.324-9.226,6.343-15.28,5.189V301.661z"/>
			<polygon fill="#373435" points="435.92,316.076 443.127,299.066 425.541,291.859 418.333,308.868 412.567,306.274 
				428.712,268.218 434.478,270.813 427.847,286.093 445.433,293.589 452.064,278.021 457.542,280.615 441.685,318.671 			"/>
			<polygon fill="#373435" points="451.199,324.436 475.128,290.417 496.75,305.697 493.291,310.598 476.57,299.066 
				470.804,307.427 480.606,314.058 477.146,318.959 467.344,312.328 459.848,322.995 477.434,335.104 473.687,340.005 			"/>
			<path fill="#373435" d="M519.238,344.906c-3.171,3.171-6.919,2.306-9.514-0.577l-8.361-8.937l9.802-8.937l8.361,8.649
				c2.883,3.171,3.171,6.631,0,9.802H519.238z M523.562,349.23c6.054-5.766,4.901-12.973,0-18.163l-12.397-13.262l-29.983,28.253
				l4.036,4.324l11.82-11.244l6.343,6.919l-6.343,17.01l4.901,5.189l6.631-17.586c4.901,3.171,10.09,2.883,14.991-1.73V349.23z"/>
			<polygon fill="#373435" points="173.28,576.985 163.478,581.886 168.956,592.554 163.478,595.148 158.289,584.769 
				141.856,592.842 138.973,587.364 175.875,568.625 187.983,592.265 182.506,595.148 			"/>
			<path fill="#373435" d="M167.803,636.086c-6.343-8.072-4.324-16.145,4.613-23.352l18.739-14.703l3.748,4.901l-18.739,14.703
				c-6.054,4.901-7.496,9.802-3.748,14.703c4.036,5.189,8.937,5.189,14.991,0.288l19.028-14.991l3.748,4.901l-19.028,14.703
				c-9.226,7.207-17.586,6.631-23.929-1.441L167.803,636.086z"/>
			<path fill="#373435" d="M199.227,669.241c-4.613-4.036-6.919-9.226-6.631-14.703l6.054-0.288c0,4.036,2.018,8.072,4.901,10.667
				c4.324,3.748,7.784,4.036,10.379,1.153c2.018-2.306,1.153-5.189-2.595-11.244c-4.901-7.784-6.631-12.109-1.73-17.586
				c4.613-5.478,12.109-4.901,17.874,0.288c4.324,3.748,6.054,8.072,6.631,12.973l-6.343,0.577c-0.288-3.748-1.73-6.631-4.613-9.226
				c-3.748-3.171-6.631-2.595-8.649-0.577c-2.018,2.306-1.441,4.613,2.595,10.667c4.613,7.207,6.631,12.397,2.018,18.163
				c-4.901,5.766-11.82,6.343-19.604-0.577L199.227,669.241z"/>
			<path fill="#373435" d="M234.111,694.034c-5.189-3.171-8.361-7.784-9.226-13.262l6.054-1.441c0.865,4.036,3.46,7.784,6.919,9.802
				c4.901,2.883,8.361,2.595,10.379-0.865c1.73-2.883,0.288-5.478-4.613-10.667c-6.343-6.631-8.649-10.667-4.901-17.01
				c3.748-6.054,10.955-6.919,17.586-3.171c4.901,2.883,7.496,6.631,8.937,11.532l-6.054,1.73c-0.865-3.748-2.883-6.343-6.343-8.361
				c-4.036-2.595-7.207-1.441-8.649,0.865c-1.441,2.595-0.577,4.613,4.613,10.09c5.766,6.343,8.937,10.955,5.189,17.298
				c-3.748,6.343-10.379,8.361-19.604,3.171L234.111,694.034z"/>
			<path fill="#373435" d="M293.5,687.115c-0.865,2.595-3.171,4.324-7.207,3.171l-10.379-3.748l3.46-10.09l10.379,3.748
				C293.789,681.638,294.365,684.232,293.5,687.115z M295.23,706.143c2.018-5.478-0.577-9.514-3.46-11.244
				c3.46-0.288,6.343-2.018,7.784-6.054c2.306-6.631-0.865-11.532-7.496-14.127l-16.145-5.478l-13.55,38.92l15.568,5.478
				c8.649,2.883,14.703,0.577,17.586-7.207L295.23,706.143z M289.464,704.125c-1.441,3.748-4.036,5.766-9.226,4.036l-10.379-3.748
				l4.613-12.973l10.667,3.748c4.324,1.441,6.054,4.901,4.613,8.937H289.464z"/>
			<path fill="#373435" d="M329.538,709.602l-12.685-1.73l4.613-8.937c1.441-2.883,3.46-7.496,4.324-8.937
				c0.288,1.73,1.153,6.919,1.73,9.802L329.538,709.602z M339.34,726.324l-9.226-42.956l-6.343-0.865l-20.469,38.92l6.343,0.865
				l4.613-9.226l16.433,2.306l2.018,10.09L339.34,726.324z"/>
			<polygon fill="#373435" points="354.331,726.324 352.025,685.097 358.367,684.809 360.097,719.981 380.566,718.828 
				381.143,724.882 			"/>
			<polygon fill="#373435" points="395.846,722.576 386.332,682.502 392.387,681.061 400.459,715.368 420.351,710.467 
				421.793,716.522 			"/>
			<polygon fill="#373435" points="415.739,698.359 414.009,692.881 427.847,687.98 429.865,693.746 			"/>
			<path fill="#373435" d="M455.524,668.952c1.153,2.306,0.865,5.478-2.595,7.207l-9.802,5.189l-4.901-9.514l9.802-5.189
				c3.748-2.018,6.054-0.577,7.496,2.018V668.952z M470.515,680.773c-2.595-5.189-7.207-6.054-10.667-5.189
				c2.018-2.595,2.883-6.054,0.865-9.802c-3.171-6.054-9.226-7.207-15.568-4.036l-14.991,7.784l19.028,36.614l14.415-7.496
				c8.072-4.036,10.667-10.379,6.631-17.875H470.515z M465.038,683.656c2.018,3.46,1.441,6.919-3.46,9.514l-9.802,5.189
				l-6.343-12.109l9.802-5.189c4.036-2.018,7.784-1.153,9.514,2.595H465.038z"/>
			<path fill="#373435" d="M502.516,673.565c-7.784,6.343-16.145,4.613-23.352-4.036l-15.28-18.451l4.901-4.036l14.991,18.451
				c4.901,6.054,10.09,7.207,14.991,3.171c4.901-4.036,4.901-9.226,0-14.991l-15.28-18.739l4.901-4.036l15.28,18.739
				c7.207,8.937,6.919,17.298-0.865,23.929H502.516z"/>
			<path fill="#373435" d="M542.878,630.609l-30.56-3.46c-1.73-0.288-4.613-0.577-5.766-0.865c1.153,0.865,5.766,4.613,7.496,6.054
				l16.721,13.55l-3.748,4.613l-32.289-25.947l4.036-4.901l29.406,3.46c2.018,0.288,5.478,0.865,6.631,0.865
				c-1.153-0.865-5.766-4.613-7.496-6.054l-16.433-13.262l3.748-4.613l32.001,25.947L542.878,630.609z"/>
			<path fill="#373435" d="M549.221,579.004c7.784,4.036,11.244,10.09,6.919,19.028l-2.306,4.613l-25.947-13.262l2.306-4.613
				c4.324-8.649,11.532-9.514,19.316-5.766H549.221z M552.104,573.238c-12.973-6.631-22.487-1.441-27.388,8.649l-5.189,10.09
				l36.902,18.739l5.189-10.09c4.901-9.514,3.748-20.757-9.226-27.388H552.104z"/>
			<path d="M498.192,506.352c0,0-27.388-91.102-32.001-105.517c-3.748-12.397-13.55-11.82-13.55-11.82s-3.171,0.288-29.118,0
				c-25.082-0.288-27.388,6.054-9.514,29.406c5.766,7.496,3.46,8.361-10.955,10.955c-14.415,2.595-21.334-11.532-22.199-17.874
				s-4.036-28.253-4.324-29.406c-0.865-2.595,5.766-4.613,9.226-2.595c6.054,3.748,5.189,5.189,5.189-6.343
				c0-11.532-15.28-10.667-15.28-10.667c-0.865-12.109-19.028-10.09-24.794-9.802c-5.766,0.288-11.532,4.613-27.1,4.613
				s-12.685,19.893-12.685,19.893s7.207-2.018,12.685-2.018s19.316,0,15.28,8.361c0,0-11.244-4.036-16.433-4.036
				s-17.874,0-21.046-4.613s-4.324-6.054-4.324-6.054s-3.46,14.415,4.613,15.856c8.072,1.441,16.721,0,20.469-0.288
				c4.036-0.288,11.82-0.288,13.838,0c2.018,0.288,0,2.595-4.324,2.883c-4.036,0.288-13.55-0.288-10.955,3.748
				c2.595,4.324,6.919,6.631,9.514,7.207c2.595,0.577,9.802-0.577,6.631,7.207l-1.73,5.189c-2.018,6.054-8.361,19.893-22.776,17.298
				c-14.415-2.595-16.721-3.46-10.955-10.955c17.874-23.352,15.28-29.695-9.514-29.406c-25.947,0.288-29.118,0-29.118,0
				s-9.802-0.865-13.55,11.82c-4.324,14.703-38.92,106.959-38.92,106.959s-1.441,8.937,6.054,11.532
				c9.802,3.171,12.973-6.343,12.973-6.343l25.082-66.309c1.73,1.153,3.748,2.306,5.478,3.46l-31.136,86.489
				c0,0-3.171,9.514,6.919,12.973c8.937,3.171,12.973-8.072,12.973-8.072l29.983-81.877c1.73,0.577,3.171,1.441,4.901,2.018
				l-31.713,90.237c0,0-2.883,9.802,6.343,12.973c9.226,3.171,12.973-7.784,12.973-7.784l31.424-88.796
				c1.73,0.577,3.748,0.865,5.478,1.441v0.288l-15.856,53.335c0,0-2.595,9.226,6.343,12.685c8.937,3.46,13.838-8.361,13.838-8.361
				l14.703-46.993c0,0,6.054,24.505-4.613,41.515s-21.046,28.542-34.596,34.884c0,0,0.288,2.018,5.189,2.306
				c4.901,0.288,5.189,1.73,6.054,2.595l-6.919,10.667c0,0-1.153,3.748-5.766,1.73c-4.901-2.018-10.667-5.189-10.667-5.189
				s-6.054-1.441-7.496,1.441c-1.441,2.883-1.441,2.883-1.441,2.883s-6.919,0.577-8.072,4.613c-0.865,4.036,0.288,4.613,0.288,4.613
				s3.171-2.306,4.613-1.441c2.018,1.153,0.288,4.613,2.595,5.189c4.036,1.442,6.919-0.865,8.937-2.595
				c1.441-1.153,4.901,0.288,4.901,1.153c0.288,1.153-1.441,3.748-5.478,4.324s-12.973,2.018-12.397,6.631
				c0.577,3.748,0.577,4.324,0.577,4.324s-3.171,6.919,3.46,9.802c0,0,1.153-4.324,2.595-4.324c1.441,0,2.595,2.595,5.189,2.595
				c2.595,0,4.901-2.018,6.054-6.343c1.441-4.324,3.748-9.802,3.748-9.802s1.73-2.018,2.883-1.73c1.153,0.288,1.73,2.306,1.153,3.46
				c-0.288,1.153-1.153,4.036-1.153,4.901c-0.288,0.577-6.054,8.072-1.441,11.532c4.613,3.46,4.324,4.901,5.478,5.766
				s6.054,2.595,8.072,1.73c0,0-2.018-3.748-2.595-4.613c-0.577-0.577-0.288-2.018,2.883-2.018c3.46,0,3.46-4.324,1.153-7.496
				c-2.018-3.171-2.883-6.343-3.46-8.361c-1.441-4.036,2.306-5.766,4.036-1.441c1.73,4.036,0.865,8.072,4.613,7.496
				c2.595-0.288,3.46-2.306,4.613-2.018c1.153,0.288,4.613,2.595,2.883,7.207c0,0,8.361-1.441,5.478-8.937
				c-1.73-4.901-4.036-2.595-2.595-7.496c1.153-3.748-2.306-6.631-6.343-6.631c-3.748,0.288-8.649-0.865-6.343-5.478
				c2.595-4.901,6.054-10.667,6.054-10.667l5.766,6.631c0,0,5.478-13.838,10.379-19.893c4.901-6.054,10.955-13.838,13.838-12.109
				c2.883,1.441,3.748,21.622,1.441,31.424c-2.306,10.09-10.667,32.001-12.397,35.172c-2.018,2.883,10.955-2.018,12.397-2.595
				c1.441-0.577,4.901-4.325,5.478,1.73c0.865,6.054,3.171,17.298,8.649,23.352l0,0c5.478-5.766,8.072-17.586,8.937-23.64
				c0.577-6.054,3.748-2.018,5.478-1.441c1.441,0.577,14.415,5.478,12.397,2.595c-2.018-2.883-10.09-25.082-12.397-35.172
				c-2.306-10.09-1.441-29.983,1.441-31.424c2.883-1.442,8.649,6.054,13.838,12.109c4.901,6.054,10.379,19.893,10.379,19.893
				l5.766-6.631c0,0,3.46,5.766,6.054,10.667c2.306,4.613-2.595,5.478-6.343,5.478c-4.036-0.288-7.496,2.595-6.343,6.631
				c1.441,4.901-0.865,2.306-2.595,7.496c-2.883,7.496,5.478,8.937,5.478,8.937c-1.73-4.613,1.73-6.919,2.883-7.207
				c1.153-0.288,2.018,1.73,4.613,2.018c3.748,0.577,2.883-3.46,4.613-7.496c1.73-4.324,5.478-2.883,4.036,1.441
				c-0.577,2.018-1.441,5.189-3.46,8.361c-2.018,3.171-2.018,7.496,1.153,7.496c3.46,0,3.46,1.441,2.883,2.018
				c-0.577,0.577-2.595,4.613-2.595,4.613c1.73,1.153,6.631-0.577,8.072-1.73c1.153-0.865,0.577-2.306,5.478-5.766
				c4.613-3.46-1.153-10.955-1.441-11.532s-0.865-3.46-1.153-4.901c-0.288-1.153,0.288-3.171,1.153-3.46
				c1.153-0.288,2.883,1.73,2.883,1.73s2.595,5.766,3.748,9.802c1.441,4.324,3.748,6.343,6.054,6.343
				c2.595,0,3.748-2.595,5.189-2.595c1.441,0,2.595,4.324,2.595,4.324c6.631-2.595,3.46-9.514,3.46-9.802c0,0,0-0.288,0.577-4.324
				c0.577-4.613-8.361-6.054-12.397-6.631c-4.036-0.577-5.766-3.46-5.478-4.324c0.288-1.153,3.46-2.595,4.901-1.153
				c2.018,2.018,4.901,4.036,8.937,2.595c2.306-0.865,0.577-4.036,2.595-5.189c1.441-0.865,4.613,1.441,4.613,1.441
				s1.153-0.577,0.288-4.613c-0.865-4.036-8.072-4.901-8.072-4.901s0,0-1.441-2.883s-7.496-1.441-7.496-1.441
				s-6.054,3.171-10.667,5.189c-4.613,2.018-5.766-1.73-5.766-1.73l-5.766-12.109c0.577-0.865,1.153-2.018,6.054-2.595
				c4.901-0.288,5.189-2.306,5.189-2.306c-13.55-6.343-20.469-15.568-31.136-32.866c-10.667-17.01-4.613-41.515-4.613-41.515
				l14.703,46.993c0,0,4.901,12.108,13.838,8.361c8.937-3.46,6.343-12.685,6.343-12.685l-16.433-54.488l0,0
				c1.73-0.577,3.748-0.865,5.478-1.441l26.812,89.661c0,0,3.748,10.955,13.262,7.784c9.226-3.171,6.343-12.973,6.343-12.973
				l-27.388-91.679c1.441-0.577,3.171-1.441,4.613-2.018l0,0l25.947,83.03c0,0,4.036,11.244,12.973,8.072
				c10.09-3.46,6.919-12.973,6.919-12.973l-27.1-88.507l0,0c1.73-1.153,3.46-2.306,5.189-3.46c0.577,0.577,0.577,1.153,0.577,1.153
				l20.757,66.885c0,0,3.171,9.514,12.973,6.343c7.496-2.595,6.054-11.532,6.054-11.532L498.192,506.352z M223.156,507.794
				c0,0-1.73,5.478-4.613,3.748c-3.171-1.441-0.865-5.766-0.865-5.766s23.64-61.119,26.235-67.173c1.73,1.153,3.46,2.306,5.189,3.46
				l-25.659,65.444L223.156,507.794z M242.183,536.624c0,0-1.441,5.478-4.613,4.036c-3.171-1.442-0.865-5.766-0.865-5.766
				s25.659-70.921,29.695-82.165c1.73,0.865,3.748,2.018,5.478,2.883L242.183,536.624z M264.671,553.057
				c0,0-1.441,5.478-4.613,4.036c-3.171-1.442-0.865-5.766-0.865-5.766s25.947-74.669,30.848-88.219
				c2.018,0.577,3.748,1.441,5.766,2.018l-30.848,87.931H264.671z M305.032,523.939c0,0-1.153,5.478-4.324,4.324
				c-3.171-1.153-1.153-5.766-1.153-5.766s12.397-41.515,15.568-52.47c2.018,0.288,4.036,0.577,6.054,0.865L305.032,523.939z
				 M350.007,368.834c-2.595,0-4.901-2.595-4.901-2.595s1.441-2.595,4.613-2.306c3.171,0,4.901,2.306,4.901,2.306
				S352.601,369.123,350.007,368.834z M413.432,522.497c0,0,2.018,4.613-1.153,5.766c-3.171,1.153-4.324-4.324-4.324-4.324
				l-16.433-52.182c0,0-0.288-0.577,0.288-1.73c1.73-0.288,3.46-0.577,5.189-1.153c1.153,3.171,16.433,53.335,16.433,53.335V522.497
				z M449.47,551.039c0,0,2.018,4.613-1.153,5.766c-3.171,1.153-4.324-4.324-4.324-4.324l-27.388-88.796
				c2.018-0.577,3.748-1.441,5.766-2.018c2.883,9.514,27.388,89.372,27.388,89.372H449.47z M472.245,535.182
				c0,0,2.018,4.613-1.153,5.766c-3.171,1.153-4.324-4.324-4.324-4.324l-25.947-83.606c1.73-0.865,3.46-2.018,5.478-2.883
				c1.73,5.478,25.947,84.76,25.947,84.76V535.182z M489.543,510.965c-3.171,1.153-4.324-4.324-4.324-4.324l-21.046-68.327
				c1.73-1.153,3.46-2.595,5.189-3.748l0,0c0.577,1.73,21.334,70.345,21.334,70.345s2.018,4.613-1.153,5.766V510.965z"/>
		</g>
	</g>
	<g id="_761874112">
		<polygon id="polygon325" fill="#CC9933" stroke="#BA8C30" stroke-width="2.4026" stroke-linejoin="round" points="
			672.612,187.495 672.612,187.495 623.025,181.441 602.267,226.704 592.754,177.693 543.455,171.639 586.988,147.71 
			577.185,98.988 613.511,133.007 657.044,108.501 635.998,153.764 		"/>
		<polygon id="polygon329" fill="#CC9933" stroke="#BA8C30" stroke-width="2.4026" stroke-linejoin="round" points="
			483.489,137.908 483.489,137.908 446.298,105.042 403.63,130.412 423.234,84.861 386.044,51.995 435.631,56.608 455.236,11.057 
			465.902,59.491 515.49,64.392 472.533,89.474 		"/>
		<polygon id="polygon333" fill="#CC9933" stroke="#BA8C30" stroke-width="2.4026" stroke-linejoin="round" points="
			261.499,105.042 224.309,137.908 224.309,137.908 235.264,89.474 192.308,64.392 241.895,59.491 252.562,11.057 272.166,56.608 
			321.754,51.995 284.563,84.861 304.456,130.412 		"/>
		<polygon id="polygon3156" fill="#CC9933" stroke="#BA8C30" stroke-width="2.4026" stroke-linejoin="round" points="
			35.474,187.495 71.799,153.764 50.754,108.501 94.287,132.718 130.612,98.988 120.81,147.71 164.343,171.639 115.044,177.693 
			105.53,226.415 84.773,181.441 		"/>
	</g>
</g>
</svg>
